SplineFontDB: 3.2
FontName: AcariSans-MediumItalic
FullName: Acari Sans Medium Italic
FamilyName: Acari Sans Medium
Weight: Medium
Copyright: Copyright (c)2015, HK Grotesk Latin by Alfredo Marco Pradil (ammpradil@gmail.com) and HK Grotesk Cyrillic by Stefan Peev (http://www.contextbg.net/). HK Grotesk is a trademark of Alfredo Marco Pradil. Copyright (c) 2018-2023 The Acari Sans Project Authors (https://github.com/cssobral2013/acari-sans)
Version: 1.063; ttfautohint (v1.8.3)
ItalicAngle: -13
UnderlinePosition: -250
UnderlineWidth: 100
Ascent: 1600
Descent: 400
InvalidEm: 0
sfntRevision: 0x00011020
LayerCount: 2
Layer: 0 1 "Back" 1
Layer: 1 1 "Fore" 0
XUID: [1021 467 -1401554168 13977704]
StyleMap: 0x0001
FSType: 0
OS2Version: 4
OS2_WeightWidthSlopeOnly: 0
OS2_UseTypoMetrics: 1
CreationTime: 1480856841
ModificationTime: 1686782975
PfmFamily: 81
TTFWeight: 500
TTFWidth: 5
LineGap: 26
VLineGap: 0
Panose: 0 0 0 0 0 0 0 0 0 0
OS2TypoAscent: 1900
OS2TypoAOffset: 0
OS2TypoDescent: -487
OS2TypoDOffset: 0
OS2TypoLinegap: 26
OS2WinAscent: 1913
OS2WinAOffset: 0
OS2WinDescent: 500
OS2WinDOffset: 0
HheadAscent: 1900
HheadAOffset: 0
HheadDescent: -487
HheadDOffset: 0
OS2SubXSize: 1331
OS2SubYSize: 1228
OS2SubXOff: 0
OS2SubYOff: 153
OS2SupXSize: 1331
OS2SupYSize: 1228
OS2SupXOff: 0
OS2SupYOff: 716
OS2StrikeYSize: 82
OS2StrikeYPos: 599
OS2CapHeight: 1413
OS2XHeight: 1039
OS2Vendor: 'AMSP'
OS2CodePages: 20000197.00000000
OS2UnicodeRanges: 2000020f.00000001.00000000.00000000
Lookup: 1 0 0 "'aalt' Access All Alternates lookup 0" { "'aalt' Access All Alternates lookup 0 subtable"  } ['aalt' ('DFLT' <'dflt' > 'cyrl' <'BGR ' 'RUS ' 'SRB ' 'dflt' > 'latn' <'AZE ' 'CRT ' 'KAZ ' 'MOL ' 'ROM ' 'TAT ' 'TRK ' 'dflt' > ) ]
Lookup: 3 0 0 "'aalt' Access All Alternates lookup 1" { "'aalt' Access All Alternates lookup 1 subtable"  } ['aalt' ('DFLT' <'dflt' > 'cyrl' <'BGR ' 'RUS ' 'SRB ' 'dflt' > 'latn' <'AZE ' 'CRT ' 'KAZ ' 'MOL ' 'ROM ' 'TAT ' 'TRK ' 'dflt' > ) ]

StartChar: .notdef
Encoding: 65536 -1 0
Width: 728
GlyphClass: 1
Flags: W
LayerCount: 2
Fore
SplineSet
596 0 m 1,0,-1
 66 0 l 1,1,-1
 66 1333 l 1,2,-1
 596 1333 l 1,3,-1
 596 0 l 1,0,-1
530 66 m 1,4,-1
 530 1267 l 1,5,-1
 132 1267 l 1,6,-1
 132 66 l 1,7,-1
 530 66 l 1,4,-1
EndSplineSet
EndChar

StartChar: exclam
Encoding: 33 33 4
Width: 636
GlyphClass: 1
Flags: W
LayerCount: 2
Fore
SplineSet
369 403 m 1,0,-1
 222 403 l 1,1,-1
 432 1434 l 1,2,-1
 636 1434 l 1,3,-1
 369 403 l 1,0,-1
318 0 m 1,4,-1
 89 0 l 1,5,-1
 140 227 l 1,6,-1
 369 227 l 1,7,-1
 318 0 l 1,4,-1
EndSplineSet
EndChar

StartChar: quotedbl
Encoding: 34 34 5
Width: 935
GlyphClass: 1
Flags: W
LayerCount: 2
Fore
SplineSet
488 929 m 1,0,-1
 321 929 l 1,1,-1
 433 1413 l 1,2,-1
 600 1413 l 1,3,-1
 488 929 l 1,0,-1
812 929 m 1,4,-1
 644 929 l 1,5,-1
 756 1413 l 1,6,-1
 924 1413 l 1,7,-1
 812 929 l 1,4,-1
EndSplineSet
EndChar

StartChar: numbersign
Encoding: 35 35 6
Width: 1379
GlyphClass: 1
Flags: W
LayerCount: 2
Fore
SplineSet
719 0 m 1,0,-1
 564 0 l 1,1,-1
 756 436 l 1,2,-1
 471 436 l 1,3,-1
 280 0 l 1,4,-1
 125 0 l 1,5,-1
 314 427 l 1,6,-1
 78 427 l 1,7,-1
 111 567 l 1,8,-1
 376 567 l 1,9,-1
 507 867 l 1,10,-1
 261 867 l 1,11,-1
 296 1010 l 1,12,-1
 569 1010 l 1,13,-1
 761 1434 l 1,14,-1
 918 1434 l 1,15,-1
 722 997 l 1,16,-1
 1006 997 l 1,17,-1
 1200 1434 l 1,18,-1
 1356 1434 l 1,19,-1
 1164 1007 l 1,20,-1
 1400 1007 l 1,21,-1
 1367 867 l 1,22,-1
 1103 867 l 1,23,-1
 972 567 l 1,24,-1
 1217 567 l 1,25,-1
 1182 425 l 1,26,-1
 909 425 l 1,27,-1
 719 0 l 1,0,-1
816 567 m 1,28,-1
 947 867 l 1,29,-1
 662 867 l 1,30,-1
 531 567 l 1,31,-1
 816 567 l 1,28,-1
EndSplineSet
EndChar

StartChar: dollar
Encoding: 36 36 7
Width: 1114
GlyphClass: 1
Flags: W
LayerCount: 2
Fore
SplineSet
465 -246 m 1,0,-1
 313 -246 l 1,1,-1
 374 -11 l 1,2,3
 280 3 280 3 204.5 48 c 128,-1,4
 129 93 129 93 84 169 c 128,-1,5
 39 245 39 245 39 350 c 2,6,-1
 40 384 l 1,7,-1
 241 414 l 1,8,9
 239 401 239 401 239 376 c 0,10,11
 239 303 239 303 271.5 257.5 c 128,-1,12
 304 212 304 212 360.5 190.5 c 128,-1,13
 417 169 417 169 490 169 c 0,14,15
 611 169 611 169 700 227.5 c 128,-1,16
 789 286 789 286 820 410 c 0,17,18
 825 435 825 435 825 451 c 0,19,20
 825 504 825 504 793.5 542.5 c 128,-1,21
 762 581 762 581 715 608 c 128,-1,22
 668 635 668 635 588 672 c 0,23,24
 487 719 487 719 426.5 758.5 c 128,-1,25
 366 798 366 798 327 854 c 0,26,27
 284 913 284 913 284 997 c 0,28,29
 284 1060 284 1060 306.5 1125.5 c 128,-1,30
 329 1191 329 1191 374 1248 c 0,31,32
 435 1324 435 1324 518 1369.5 c 128,-1,33
 601 1415 601 1415 694 1430 c 1,34,-1
 754 1659 l 1,35,-1
 905 1659 l 1,36,-1
 845 1430 l 1,37,38
 949 1418 949 1418 1025 1361 c 128,-1,39
 1101 1304 1101 1304 1137 1197 c 1,40,-1
 961 1114 l 1,41,42
 937 1189 937 1189 881.5 1222.5 c 128,-1,43
 826 1256 826 1256 754 1256 c 0,44,45
 666 1256 666 1256 590 1202 c 128,-1,46
 514 1148 514 1148 491 1059 c 0,47,48
 487 1042 487 1042 487 1022 c 0,49,50
 487 974 487 974 516.5 938.5 c 128,-1,51
 546 903 546 903 590.5 878 c 128,-1,52
 635 853 635 853 713 817 c 0,53,54
 816 770 816 770 879 729 c 128,-1,55
 942 688 942 688 983 630 c 0,56,57
 1027 567 1027 567 1027 477 c 0,58,59
 1027 410 1027 410 999.5 330.5 c 128,-1,60
 972 251 972 251 918 183 c 0,61,62
 841 91 841 91 738.5 41 c 128,-1,63
 636 -9 636 -9 524 -17 c 1,64,-1
 465 -246 l 1,0,-1
EndSplineSet
EndChar

StartChar: percent
Encoding: 37 37 8
Width: 1564
GlyphClass: 1
Flags: W
LayerCount: 2
Fore
SplineSet
452 787 m 0,0,1
 339 787 339 787 289.5 855 c 128,-1,2
 240 923 240 923 240 1025 c 0,3,4
 240 1084 240 1084 260 1155 c 128,-1,5
 280 1226 280 1226 320.5 1289.5 c 128,-1,6
 361 1353 361 1353 423 1394.5 c 128,-1,7
 485 1436 485 1436 570 1436 c 0,8,9
 675 1436 675 1436 727 1368 c 128,-1,10
 779 1300 779 1300 779 1195 c 0,11,12
 779 1094 779 1094 737 1000.5 c 128,-1,13
 695 907 695 907 621 847 c 128,-1,14
 547 787 547 787 452 787 c 0,0,1
361 -8 m 1,15,-1
 186 -8 l 1,16,-1
 1288 1429 l 1,17,-1
 1462 1429 l 1,18,-1
 361 -8 l 1,15,-1
454 921 m 0,19,20
 509 921 509 921 551 968 c 128,-1,21
 593 1015 593 1015 616.5 1079.5 c 128,-1,22
 640 1144 640 1144 640 1197 c 0,23,24
 640 1241 640 1241 622 1270.5 c 128,-1,25
 604 1300 604 1300 563 1300 c 0,26,27
 507 1300 507 1300 464.5 1254 c 128,-1,28
 422 1208 422 1208 398 1144 c 128,-1,29
 374 1080 374 1080 374 1025 c 0,30,31
 374 980 374 980 392.5 950.5 c 128,-1,32
 411 921 411 921 454 921 c 0,19,20
1096 -3 m 0,33,34
 985 -3 985 -3 935 65.5 c 128,-1,35
 885 134 885 134 885 235 c 0,36,37
 885 293 885 293 904.5 364 c 128,-1,38
 924 435 924 435 964.5 499.5 c 128,-1,39
 1005 564 1005 564 1067.5 606 c 128,-1,40
 1130 648 1130 648 1216 648 c 0,41,42
 1321 648 1321 648 1372.5 580.5 c 128,-1,43
 1424 513 1424 513 1424 408 c 0,44,45
 1424 306 1424 306 1382.5 212 c 128,-1,46
 1341 118 1341 118 1267 57.5 c 128,-1,47
 1193 -3 1193 -3 1096 -3 c 0,33,34
1101 130 m 0,48,49
 1155 130 1155 130 1197 177.5 c 128,-1,50
 1239 225 1239 225 1262.5 290 c 128,-1,51
 1286 355 1286 355 1286 409 c 0,52,53
 1286 454 1286 454 1268.5 483.5 c 128,-1,54
 1251 513 1251 513 1210 513 c 0,55,56
 1154 513 1154 513 1111 467 c 128,-1,57
 1068 421 1068 421 1044 356.5 c 128,-1,58
 1020 292 1020 292 1020 236 c 0,59,60
 1020 190 1020 190 1038.5 160 c 128,-1,61
 1057 130 1057 130 1101 130 c 0,48,49
EndSplineSet
EndChar

StartChar: ampersand
Encoding: 38 38 9
Width: 1373
GlyphClass: 1
Flags: W
LayerCount: 2
Fore
SplineSet
1038 -64 m 1,0,-1
 900 154 l 1,1,2
 799 71 799 71 680.5 24.5 c 128,-1,3
 562 -22 562 -22 429 -22 c 0,4,5
 325 -22 325 -22 240.5 8 c 128,-1,6
 156 38 156 38 106.5 99 c 128,-1,7
 57 160 57 160 57 252 c 0,8,9
 57 334 57 334 90.5 407 c 128,-1,10
 124 480 124 480 180 542 c 128,-1,11
 236 604 236 604 304 652 c 0,12,13
 389 711 389 711 507 775 c 1,14,15
 462 845 462 845 432.5 913 c 128,-1,16
 403 981 403 981 403 1058 c 0,17,18
 403 1192 403 1192 498 1289 c 0,19,20
 567 1360 567 1360 656 1395 c 128,-1,21
 745 1430 745 1430 832 1430 c 0,22,23
 963 1430 963 1430 1041.5 1355.5 c 128,-1,24
 1120 1281 1120 1281 1120 1169 c 0,25,26
 1120 1099 1120 1099 1089 1027 c 128,-1,27
 1058 955 1058 955 996 894 c 0,28,29
 906 808 906 808 761 724 c 1,30,-1
 941 446 l 1,31,32
 1018 567 1018 567 1057 702 c 1,33,-1
 1231 666 l 1,34,35
 1169 459 1169 459 1038 295 c 1,36,-1
 1194 53 l 1,37,-1
 1038 -64 l 1,0,-1
656 854 m 1,38,39
 789 926 789 926 860.5 990 c 128,-1,40
 932 1054 932 1054 949 1128 c 0,41,42
 953 1144 953 1144 953 1162 c 0,43,44
 953 1210 953 1210 920 1242.5 c 128,-1,45
 887 1275 887 1275 824 1275 c 0,46,47
 747 1275 747 1275 675.5 1227 c 128,-1,48
 604 1179 604 1179 581 1089 c 0,49,50
 578 1076 578 1076 578 1059 c 0,51,52
 578 980 578 980 656 854 c 1,38,39
442 146 m 0,53,54
 650 146 650 146 811 294 c 1,55,-1
 596 632 l 1,56,57
 441 548 441 548 351.5 470.5 c 128,-1,58
 262 393 262 393 239 296 c 0,59,60
 235 280 235 280 235 264 c 0,61,62
 235 201 235 201 294 173.5 c 128,-1,63
 353 146 353 146 442 146 c 0,53,54
EndSplineSet
EndChar

StartChar: quotesingle
Encoding: 39 39 10
Width: 611
GlyphClass: 1
Flags: W
LayerCount: 2
Fore
SplineSet
495 958 m 1,0,-1
 328 958 l 1,1,-1
 439 1442 l 1,2,-1
 606 1442 l 1,3,-1
 495 958 l 1,0,-1
EndSplineSet
EndChar

StartChar: parenleft
Encoding: 40 40 11
Width: 570
GlyphClass: 1
Flags: W
LayerCount: 2
Fore
SplineSet
388 -69 m 1,0,-1
 232 -69 l 1,1,2
 179 8 179 8 154.5 127 c 128,-1,3
 130 246 130 246 130 381 c 0,4,5
 130 785 130 785 329 1159 c 0,6,7
 436 1360 436 1360 580 1492 c 1,8,-1
 758 1492 l 1,9,10
 423 1160 423 1160 314 684 c 0,11,12
 275 515 275 515 275 370 c 0,13,14
 275 142 275 142 388 -69 c 1,0,-1
EndSplineSet
EndChar

StartChar: parenright
Encoding: 41 41 12
Width: 571
GlyphClass: 1
Flags: W
LayerCount: 2
Fore
SplineSet
82 -82 m 1,0,-1
 -88 -82 l 1,1,2
 72 81 72 81 193 304 c 0,3,4
 297 494 297 494 349 722 c 0,5,6
 387 888 387 888 387 1032 c 0,7,8
 387 1278 387 1278 277 1479 c 1,9,-1
 436 1479 l 1,10,11
 542 1314 542 1314 542 1048 c 0,12,13
 542 668 542 668 337 265 c 0,14,15
 226 47 226 47 82 -82 c 1,0,-1
EndSplineSet
EndChar

StartChar: asterisk
Encoding: 42 42 13
Width: 889
GlyphClass: 1
Flags: W
LayerCount: 2
Fore
SplineSet
645 842 m 1,0,-1
 578 1063 l 1,1,-1
 411 842 l 1,2,-1
 302 926 l 1,3,-1
 507 1106 l 1,4,-1
 278 1142 l 1,5,-1
 356 1280 l 1,6,-1
 557 1189 l 1,7,-1
 580 1413 l 1,8,-1
 731 1413 l 1,9,-1
 649 1189 l 1,10,-1
 888 1280 l 1,11,-1
 905 1142 l 1,12,-1
 656 1106 l 1,13,-1
 783 926 l 1,14,-1
 645 842 l 1,0,-1
EndSplineSet
EndChar

StartChar: plus
Encoding: 43 43 14
Width: 1265
GlyphClass: 1
Flags: W
LayerCount: 2
Fore
SplineSet
706 106 m 1,0,-1
 559 106 l 1,1,-1
 559 552 l 1,2,-1
 102 552 l 1,3,-1
 102 699 l 1,4,-1
 559 699 l 1,5,-1
 559 1143 l 1,6,-1
 706 1143 l 1,7,-1
 706 699 l 1,8,-1
 1162 699 l 1,9,-1
 1162 552 l 1,10,-1
 706 552 l 1,11,-1
 706 106 l 1,0,-1
EndSplineSet
EndChar

StartChar: comma
Encoding: 44 44 15
Width: 600
GlyphClass: 1
Flags: W
LayerCount: 2
Fore
SplineSet
69 -225 m 1,0,-1
 -58 -225 l 1,1,-1
 156 264 l 1,2,-1
 393 264 l 1,3,-1
 69 -225 l 1,0,-1
EndSplineSet
EndChar

StartChar: hyphen
Encoding: 45 45 16
Width: 852
GlyphClass: 1
Flags: W
LayerCount: 2
Fore
SplineSet
718 579 m 1,0,-1
 171 579 l 1,1,-1
 204 726 l 1,2,-1
 751 726 l 1,3,-1
 718 579 l 1,0,-1
EndSplineSet
EndChar

StartChar: period
Encoding: 46 46 17
Width: 600
GlyphClass: 1
Flags: W
LayerCount: 2
Fore
SplineSet
302 0 m 1,0,-1
 81 0 l 1,1,-1
 133 227 l 1,2,-1
 353 227 l 1,3,-1
 302 0 l 1,0,-1
EndSplineSet
EndChar

StartChar: slash
Encoding: 47 47 18
Width: 936
GlyphClass: 1
Flags: W
LayerCount: 2
Fore
SplineSet
-34 -430 m 1,0,-1
 -226 -430 l 1,1,-1
 990 1516 l 1,2,-1
 1181 1516 l 1,3,-1
 -34 -430 l 1,0,-1
EndSplineSet
EndChar

StartChar: zero
Encoding: 48 48 19
Width: 1200
GlyphClass: 1
Flags: W
LayerCount: 2
Fore
SplineSet
475 -20 m 0,0,1
 366 -20 366 -20 291.5 20.5 c 128,-1,2
 217 61 217 61 171 130 c 128,-1,3
 125 199 125 199 105 290.5 c 128,-1,4
 85 382 85 382 85 484 c 0,5,6
 85 598 85 598 112 719.5 c 128,-1,7
 139 841 139 841 188 954.5 c 128,-1,8
 237 1068 237 1068 306 1165 c 128,-1,9
 375 1262 375 1262 459 1325 c 0,10,11
 527 1376 527 1376 606 1406 c 128,-1,12
 685 1436 685 1436 776 1436 c 0,13,14
 846 1436 846 1436 901.5 1416.5 c 128,-1,15
 957 1397 957 1397 1000.5 1361 c 128,-1,16
 1044 1325 1044 1325 1076 1273.5 c 128,-1,17
 1108 1222 1108 1222 1130 1159 c 0,18,19
 1147 1108 1147 1108 1153.5 1058 c 128,-1,20
 1160 1008 1160 1008 1162 951 c 2,21,-1
 1161 904 l 2,22,23
 1158 801 1158 801 1134 692.5 c 128,-1,24
 1110 584 1110 584 1067 481 c 128,-1,25
 1024 378 1024 378 963.5 287 c 128,-1,26
 903 196 903 196 827.5 128 c 128,-1,27
 752 60 752 60 663 20 c 128,-1,28
 574 -20 574 -20 475 -20 c 0,0,1
505 164 m 0,29,30
 560 164 560 164 607.5 186 c 128,-1,31
 655 208 655 208 695 243 c 128,-1,32
 735 278 735 278 767.5 322.5 c 128,-1,33
 800 367 800 367 825 412 c 128,-1,34
 850 457 850 457 867.5 498 c 128,-1,35
 885 539 885 539 895 568 c 0,36,37
 927 659 927 659 945 751.5 c 128,-1,38
 963 844 963 844 963 928 c 0,39,40
 963 980 963 980 954.5 1036.5 c 128,-1,41
 946 1093 946 1093 921.5 1139.5 c 128,-1,42
 897 1186 897 1186 853.5 1216.5 c 128,-1,43
 810 1247 810 1247 740 1247 c 0,44,45
 667 1247 667 1247 607.5 1214.5 c 128,-1,46
 548 1182 548 1182 499.5 1129.5 c 128,-1,47
 451 1077 451 1077 414.5 1010.5 c 128,-1,48
 378 944 378 944 351.5 876.5 c 128,-1,49
 325 809 325 809 308.5 747 c 128,-1,50
 292 685 292 685 285 641 c 0,51,52
 278 599 278 599 274.5 560.5 c 128,-1,53
 271 522 271 522 271 488 c 0,54,55
 271 431 271 431 280.5 373 c 128,-1,56
 290 315 290 315 315.5 268.5 c 128,-1,57
 341 222 341 222 387 193 c 128,-1,58
 433 164 433 164 505 164 c 0,29,30
EndSplineSet
Substitution2: "'subs' Subscript lookup 20 subtable" uni2080
Substitution2: "'sinf' Scientific Inferiors lookup 19 subtable" uni2080
Substitution2: "'sups' Superscript lookup 17 subtable" uni2070
AlternateSubs2: "'aalt' Access All Alternates lookup 1 subtable" uni2070 uni2080
EndChar

StartChar: one
Encoding: 49 49 20
Width: 1200
GlyphClass: 1
Flags: W
LayerCount: 2
Fore
SplineSet
670 0 m 1,0,-1
 468 0 l 1,1,-1
 712 1057 l 1,2,-1
 388 1057 l 1,3,-1
 424 1217 l 1,4,-1
 590 1217 l 2,5,6
 671 1217 671 1217 727.5 1266 c 128,-1,7
 784 1315 784 1315 802 1389 c 1,8,-1
 806 1413 l 1,9,-1
 996 1413 l 1,10,-1
 670 0 l 1,0,-1
EndSplineSet
Substitution2: "'subs' Subscript lookup 20 subtable" uni2081
Substitution2: "'sinf' Scientific Inferiors lookup 19 subtable" uni2081
Substitution2: "'sups' Superscript lookup 17 subtable" onesuperior
AlternateSubs2: "'aalt' Access All Alternates lookup 1 subtable" onesuperior uni2081
EndChar

StartChar: two
Encoding: 50 50 21
Width: 1200
GlyphClass: 1
Flags: W
LayerCount: 2
Fore
SplineSet
993 0 m 1,0,-1
 -29 0 l 1,1,-1
 7 175 l 1,2,3
 339 359 339 359 591 570 c 1,4,5
 748 692 748 692 837 803 c 128,-1,6
 926 914 926 914 953 1031 c 0,7,8
 961 1063 961 1063 961 1099 c 0,9,10
 961 1168 961 1168 920 1209 c 128,-1,11
 879 1250 879 1250 793 1250 c 0,12,13
 661 1250 661 1250 570 1156 c 128,-1,14
 479 1062 479 1062 437 918 c 1,15,-1
 245 950 l 1,16,17
 277 1085 277 1085 354 1194.5 c 128,-1,18
 431 1304 431 1304 553 1371 c 0,19,20
 669 1432 669 1432 807 1432 c 0,21,22
 976 1432 976 1432 1071.5 1343 c 128,-1,23
 1167 1254 1167 1254 1167 1112 c 0,24,25
 1167 1058 1167 1058 1153 1003 c 0,26,27
 1121 859 1121 859 1004 717.5 c 128,-1,28
 887 576 887 576 697 415 c 1,29,30
 588 332 588 332 502.5 277.5 c 128,-1,31
 417 223 417 223 329 174 c 1,32,-1
 1033 179 l 1,33,-1
 993 0 l 1,0,-1
EndSplineSet
Substitution2: "'subs' Subscript lookup 20 subtable" uni2082
Substitution2: "'sinf' Scientific Inferiors lookup 19 subtable" uni2082
Substitution2: "'sups' Superscript lookup 17 subtable" twosuperior
AlternateSubs2: "'aalt' Access All Alternates lookup 1 subtable" twosuperior uni2082
EndChar

StartChar: three
Encoding: 51 51 22
Width: 1200
GlyphClass: 1
Flags: W
LayerCount: 2
Fore
SplineSet
479 -20 m 0,0,1
 365 -20 365 -20 268 17.5 c 128,-1,2
 171 55 171 55 113 135 c 0,3,4
 59 211 59 211 59 319 c 0,5,6
 59 374 59 374 71 430 c 1,7,-1
 261 427 l 1,8,9
 253 390 253 390 253 362 c 0,10,11
 253 295 253 295 285 251 c 128,-1,12
 317 207 317 207 372.5 185 c 128,-1,13
 428 163 428 163 497 163 c 0,14,15
 622 163 622 163 733 232 c 128,-1,16
 844 301 844 301 879 434 c 0,17,18
 885 463 885 463 885 492 c 0,19,20
 885 550 885 550 854.5 587 c 128,-1,21
 824 624 824 624 771 642 c 128,-1,22
 718 660 718 660 649 660 c 2,23,-1
 523 660 l 1,24,-1
 565 840 l 1,25,-1
 677 840 l 2,26,27
 770 840 770 840 844 895.5 c 128,-1,28
 918 951 918 951 945 1058 c 0,29,30
 951 1084 951 1084 951 1105 c 0,31,32
 951 1176 951 1176 899.5 1212.5 c 128,-1,33
 848 1249 848 1249 769 1249 c 0,34,35
 666 1249 666 1249 578.5 1186 c 128,-1,36
 491 1123 491 1123 463 1015 c 1,37,-1
 283 1048 l 1,38,39
 332 1238 332 1238 474.5 1336 c 128,-1,40
 617 1434 617 1434 787 1434 c 0,41,42
 888 1434 888 1434 969.5 1398.5 c 128,-1,43
 1051 1363 1051 1363 1098 1295.5 c 128,-1,44
 1145 1228 1145 1228 1145 1133 c 0,45,46
 1145 1085 1145 1085 1133 1040 c 0,47,48
 1096 869 1096 869 921 756 c 1,49,50
 1000 719 1000 719 1035.5 651.5 c 128,-1,51
 1071 584 1071 584 1071 498 c 0,52,53
 1071 384 1071 384 1027 291 c 128,-1,54
 983 198 983 198 908 131 c 128,-1,55
 833 64 833 64 736 27 c 0,56,57
 615 -20 615 -20 479 -20 c 0,0,1
EndSplineSet
Substitution2: "'subs' Subscript lookup 20 subtable" uni2083
Substitution2: "'sinf' Scientific Inferiors lookup 19 subtable" uni2083
Substitution2: "'sups' Superscript lookup 17 subtable" threesuperior
AlternateSubs2: "'aalt' Access All Alternates lookup 1 subtable" threesuperior uni2083
EndChar

StartChar: four
Encoding: 52 52 23
Width: 1200
GlyphClass: 1
Flags: W
LayerCount: 2
Fore
SplineSet
758 0 m 1,0,-1
 563 0 l 1,1,-1
 644 360 l 1,2,-1
 6 360 l 1,3,-1
 30 472 l 1,4,-1
 903 1413 l 1,5,-1
 1076 1413 l 1,6,-1
 878 535 l 1,7,-1
 1097 535 l 1,8,-1
 1058 360 l 1,9,-1
 839 360 l 1,10,-1
 758 0 l 1,0,-1
683 535 m 1,11,-1
 812 1102 l 1,12,-1
 288 535 l 1,13,-1
 683 535 l 1,11,-1
EndSplineSet
Substitution2: "'subs' Subscript lookup 20 subtable" uni2084
Substitution2: "'sinf' Scientific Inferiors lookup 19 subtable" uni2084
Substitution2: "'sups' Superscript lookup 17 subtable" uni2074
AlternateSubs2: "'aalt' Access All Alternates lookup 1 subtable" uni2074 uni2084
EndChar

StartChar: five
Encoding: 53 53 24
Width: 1200
GlyphClass: 1
Flags: W
LayerCount: 2
Fore
SplineSet
483 -20 m 0,0,1
 359 -20 359 -20 268 36 c 128,-1,2
 177 92 177 92 130 188 c 0,3,4
 85 280 85 280 85 398 c 1,5,-1
 275 437 l 1,6,-1
 275 417 l 2,7,8
 275 158 275 158 497 158 c 0,9,10
 587 158 587 158 667 205.5 c 128,-1,11
 747 253 747 253 801 330 c 0,12,13
 883 445 883 445 883 564 c 0,14,15
 883 656 883 656 829.5 713 c 128,-1,16
 776 770 776 770 669 770 c 0,17,18
 587 770 587 770 504.5 728 c 128,-1,19
 422 686 422 686 363 617 c 1,20,-1
 193 686 l 1,21,-1
 491 1413 l 1,22,-1
 1231 1413 l 1,23,-1
 1189 1230 l 1,24,-1
 607 1230 l 1,25,-1
 455 869 l 1,26,27
 570 946 570 946 715 946 c 0,28,29
 828 946 828 946 911.5 897 c 128,-1,30
 995 848 995 848 1041 763 c 128,-1,31
 1087 678 1087 678 1087 571 c 0,32,33
 1087 517 1087 517 1073 453 c 0,34,35
 1043 327 1043 327 954 218 c 128,-1,36
 865 109 865 109 740 44.5 c 128,-1,37
 615 -20 615 -20 483 -20 c 0,0,1
EndSplineSet
Substitution2: "'subs' Subscript lookup 20 subtable" uni2085
Substitution2: "'sinf' Scientific Inferiors lookup 19 subtable" uni2085
Substitution2: "'sups' Superscript lookup 17 subtable" uni2075
AlternateSubs2: "'aalt' Access All Alternates lookup 1 subtable" uni2075 uni2085
EndChar

StartChar: six
Encoding: 54 54 25
Width: 1200
GlyphClass: 1
Flags: W
LayerCount: 2
Fore
SplineSet
493 -20 m 0,0,1
 369 -20 369 -20 279.5 31.5 c 128,-1,2
 190 83 190 83 141.5 170 c 128,-1,3
 93 257 93 257 93 365 c 0,4,5
 93 552 93 552 227 713 c 2,6,-1
 809 1413 l 1,7,-1
 1041 1413 l 1,8,-1
 611 917 l 1,9,10
 653 923 653 923 687 923 c 0,11,12
 868 923 868 923 979.5 818 c 128,-1,13
 1091 713 1091 713 1091 553 c 0,14,15
 1091 498 1091 498 1077 445 c 0,16,17
 1047 318 1047 318 961 213 c 128,-1,18
 875 108 875 108 752 44 c 128,-1,19
 629 -20 629 -20 493 -20 c 0,0,1
511 167 m 0,20,21
 598 167 598 167 677.5 210.5 c 128,-1,22
 757 254 757 254 812.5 324.5 c 128,-1,23
 868 395 868 395 887 479 c 0,24,25
 895 514 895 514 895 542 c 0,26,27
 895 639 895 639 831 697 c 128,-1,28
 767 755 767 755 671 755 c 0,29,30
 582 755 582 755 503.5 711 c 128,-1,31
 425 667 425 667 370 596.5 c 128,-1,32
 315 526 315 526 295 443 c 0,33,34
 287 414 287 414 287 382 c 0,35,36
 287 292 287 292 347.5 229.5 c 128,-1,37
 408 167 408 167 511 167 c 0,20,21
EndSplineSet
Substitution2: "'subs' Subscript lookup 20 subtable" uni2086
Substitution2: "'sinf' Scientific Inferiors lookup 19 subtable" uni2086
Substitution2: "'sups' Superscript lookup 17 subtable" uni2076
AlternateSubs2: "'aalt' Access All Alternates lookup 1 subtable" uni2076 uni2086
EndChar

StartChar: seven
Encoding: 55 55 26
Width: 1200
GlyphClass: 1
Flags: W
LayerCount: 2
Fore
SplineSet
358 0 m 1,0,-1
 130 0 l 1,1,-1
 1014 1231 l 1,2,-1
 280 1231 l 1,3,-1
 322 1413 l 1,4,-1
 1300 1413 l 1,5,-1
 1276 1311 l 1,6,-1
 358 0 l 1,0,-1
EndSplineSet
Substitution2: "'subs' Subscript lookup 20 subtable" uni2087
Substitution2: "'sinf' Scientific Inferiors lookup 19 subtable" uni2087
Substitution2: "'sups' Superscript lookup 17 subtable" uni2077
AlternateSubs2: "'aalt' Access All Alternates lookup 1 subtable" uni2077 uni2087
EndChar

StartChar: eight
Encoding: 56 56 27
Width: 1200
GlyphClass: 1
Flags: W
LayerCount: 2
Fore
SplineSet
492 -20 m 0,0,1
 377 -20 377 -20 281 16.5 c 128,-1,2
 185 53 185 53 127.5 126.5 c 128,-1,3
 70 200 70 200 70 312 c 0,4,5
 70 364 70 364 84 417 c 0,6,7
 112 539 112 539 193.5 628 c 128,-1,8
 275 717 275 717 394 772 c 1,9,10
 298 847 298 847 298 988 c 0,11,12
 298 1082 298 1082 336.5 1161 c 128,-1,13
 375 1240 375 1240 440.5 1299 c 128,-1,14
 506 1358 506 1358 589 1392 c 0,15,16
 694 1434 694 1434 804 1434 c 0,17,18
 902 1434 902 1434 983 1400 c 128,-1,19
 1064 1366 1064 1366 1112 1299.5 c 128,-1,20
 1160 1233 1160 1233 1160 1135 c 0,21,22
 1160 1018 1160 1018 1099.5 919 c 128,-1,23
 1039 820 1039 820 928 754 c 1,24,25
 1000 717 1000 717 1041 649.5 c 128,-1,26
 1082 582 1082 582 1082 487 c 0,27,28
 1082 302 1082 302 953 159 c 1,29,30
 860 64 860 64 739 22 c 128,-1,31
 618 -20 618 -20 492 -20 c 0,0,1
670 833 m 0,32,33
 767 833 767 833 852 892.5 c 128,-1,34
 937 952 937 952 962 1058 c 0,35,36
 968 1085 968 1085 968 1108 c 0,37,38
 968 1180 968 1180 917.5 1216.5 c 128,-1,39
 867 1253 867 1253 790 1253 c 0,40,41
 694 1253 694 1253 608.5 1194.5 c 128,-1,42
 523 1136 523 1136 498 1035 c 0,43,44
 490 1002 490 1002 490 982 c 0,45,46
 490 913 490 913 537.5 873 c 128,-1,47
 585 833 585 833 670 833 c 0,32,33
508 156 m 0,48,49
 633 156 633 156 739 226 c 128,-1,50
 845 296 845 296 880 432 c 0,51,52
 886 461 886 461 886 490 c 0,53,54
 886 550 886 550 855 589.5 c 128,-1,55
 824 629 824 629 771 649 c 128,-1,56
 718 669 718 669 652 669 c 0,57,58
 521 669 521 669 416 599 c 128,-1,59
 311 529 311 529 276 396 c 0,60,61
 270 367 270 367 270 338 c 0,62,63
 270 277 270 277 301.5 236.5 c 128,-1,64
 333 196 333 196 387 176 c 128,-1,65
 441 156 441 156 508 156 c 0,48,49
EndSplineSet
Substitution2: "'subs' Subscript lookup 20 subtable" uni2088
Substitution2: "'sinf' Scientific Inferiors lookup 19 subtable" uni2088
Substitution2: "'sups' Superscript lookup 17 subtable" uni2078
AlternateSubs2: "'aalt' Access All Alternates lookup 1 subtable" uni2078 uni2088
EndChar

StartChar: nine
Encoding: 57 57 28
Width: 1200
GlyphClass: 1
Flags: W
LayerCount: 2
Fore
SplineSet
486 0 m 1,0,-1
 254 0 l 1,1,-1
 684 496 l 1,2,3
 644 490 644 490 608 490 c 0,4,5
 484 490 484 490 393.5 538.5 c 128,-1,6
 303 587 303 587 253.5 671 c 128,-1,7
 204 755 204 755 204 860 c 0,8,9
 204 944 204 944 237.5 1033 c 128,-1,10
 271 1122 271 1122 332 1199 c 0,11,12
 416 1303 416 1303 539 1368.5 c 128,-1,13
 662 1434 662 1434 804 1434 c 0,14,15
 927 1434 927 1434 1016 1382 c 128,-1,16
 1105 1330 1105 1330 1153.5 1243 c 128,-1,17
 1202 1156 1202 1156 1202 1050 c 0,18,19
 1202 994 1202 994 1188 938 c 0,20,21
 1160 808 1160 808 1070 700 c 2,22,-1
 486 0 l 1,0,-1
622 658 m 0,23,24
 709 658 709 658 787.5 700.5 c 128,-1,25
 866 743 866 743 922.5 813.5 c 128,-1,26
 979 884 979 884 1000 970 c 0,27,28
 1008 1005 1008 1005 1008 1033 c 0,29,30
 1008 1124 1008 1124 946 1185.5 c 128,-1,31
 884 1247 884 1247 782 1247 c 0,32,33
 694 1247 694 1247 614.5 1202.5 c 128,-1,34
 535 1158 535 1158 480 1087 c 128,-1,35
 425 1016 425 1016 406 934 c 0,36,37
 398 905 398 905 398 873 c 0,38,39
 398 783 398 783 458.5 720.5 c 128,-1,40
 519 658 519 658 622 658 c 0,23,24
EndSplineSet
Substitution2: "'subs' Subscript lookup 20 subtable" uni2089
Substitution2: "'sinf' Scientific Inferiors lookup 19 subtable" uni2089
Substitution2: "'sups' Superscript lookup 17 subtable" uni2079
AlternateSubs2: "'aalt' Access All Alternates lookup 1 subtable" uni2079 uni2089
EndChar

StartChar: colon
Encoding: 58 58 29
Width: 600
GlyphClass: 1
Flags: W
LayerCount: 2
Fore
SplineSet
472 728 m 1,0,-1
 244 728 l 1,1,-1
 296 954 l 1,2,-1
 525 954 l 1,3,-1
 472 728 l 1,0,-1
306 0 m 1,4,-1
 77 0 l 1,5,-1
 129 227 l 1,6,-1
 358 227 l 1,7,-1
 306 0 l 1,4,-1
EndSplineSet
EndChar

StartChar: semicolon
Encoding: 59 59 30
Width: 600
GlyphClass: 1
Flags: W
LayerCount: 2
Fore
SplineSet
460 728 m 1,0,-1
 231 728 l 1,1,-1
 284 954 l 1,2,-1
 513 954 l 1,3,-1
 460 728 l 1,0,-1
69 -225 m 1,4,-1
 -59 -225 l 1,5,-1
 155 264 l 1,6,-1
 393 264 l 1,7,-1
 69 -225 l 1,4,-1
EndSplineSet
EndChar

StartChar: less
Encoding: 60 60 31
Width: 1229
GlyphClass: 1
Flags: W
LayerCount: 2
Fore
SplineSet
1018 161 m 1,0,-1
 79 674 l 1,1,-1
 1018 1186 l 1,2,-1
 1102 1040 l 1,3,-1
 397 674 l 1,4,-1
 1102 307 l 1,5,-1
 1018 161 l 1,0,-1
EndSplineSet
EndChar

StartChar: equal
Encoding: 61 61 32
Width: 1269
GlyphClass: 1
Flags: W
LayerCount: 2
Fore
SplineSet
1030 764 m 1,0,-1
 238 764 l 1,1,-1
 238 933 l 1,2,-1
 1030 933 l 1,3,-1
 1030 764 l 1,0,-1
1030 410 m 1,4,-1
 238 410 l 1,5,-1
 238 580 l 1,6,-1
 1030 580 l 1,7,-1
 1030 410 l 1,4,-1
EndSplineSet
EndChar

StartChar: greater
Encoding: 62 62 33
Width: 1228
GlyphClass: 1
Flags: W
LayerCount: 2
Fore
SplineSet
211 161 m 1,0,-1
 127 307 l 1,1,-1
 832 674 l 1,2,-1
 127 1040 l 1,3,-1
 211 1186 l 1,4,-1
 1150 674 l 1,5,-1
 211 161 l 1,0,-1
EndSplineSet
EndChar

StartChar: question
Encoding: 63 63 34
Width: 1015
GlyphClass: 1
Flags: W
LayerCount: 2
Fore
SplineSet
561 399 m 1,0,-1
 391 399 l 1,1,-1
 438 597 l 2,2,3
 471 734 471 734 566 796 c 0,4,5
 610 823 610 823 669.5 853.5 c 128,-1,6
 729 884 729 884 770 910 c 0,7,8
 854 964 854 964 881 1075 c 0,9,10
 888 1108 888 1108 888 1128 c 0,11,12
 888 1202 888 1202 833 1235 c 128,-1,13
 778 1268 778 1268 689 1268 c 0,14,15
 575 1268 575 1268 487.5 1204.5 c 128,-1,16
 400 1141 400 1141 371 1020 c 1,17,-1
 197 1037 l 1,18,19
 246 1231 246 1231 384 1332.5 c 128,-1,20
 522 1434 522 1434 694 1434 c 0,21,22
 794 1434 794 1434 877.5 1400.5 c 128,-1,23
 961 1367 961 1367 1010.5 1300 c 128,-1,24
 1060 1233 1060 1233 1060 1133 c 0,25,26
 1060 1070 1060 1070 1039 1001 c 128,-1,27
 1018 932 1018 932 981 881 c 0,28,29
 939 824 939 824 887 787.5 c 128,-1,30
 835 751 835 751 760 715 c 0,31,32
 684 679 684 679 648 650.5 c 128,-1,33
 612 622 612 622 602 578 c 2,34,-1
 561 399 l 1,0,-1
502 0 m 1,35,-1
 274 0 l 1,36,-1
 325 227 l 1,37,-1
 554 227 l 1,38,-1
 502 0 l 1,35,-1
EndSplineSet
EndChar

StartChar: at
Encoding: 64 64 35
Width: 2035
GlyphClass: 1
Flags: W
LayerCount: 2
Fore
SplineSet
825 -348 m 0,0,1
 623 -348 623 -348 458 -272.5 c 128,-1,2
 293 -197 293 -197 195 -41 c 0,3,4
 103 107 103 107 103 310 c 0,5,6
 103 492 103 492 169 669 c 128,-1,7
 235 846 235 846 347 991 c 0,8,9
 448 1122 448 1122 583.5 1221 c 128,-1,10
 719 1320 719 1320 882.5 1376 c 128,-1,11
 1046 1432 1046 1432 1230 1432 c 0,12,13
 1406 1432 1406 1432 1540 1380 c 128,-1,14
 1674 1328 1674 1328 1765.5 1236 c 128,-1,15
 1857 1144 1857 1144 1903.5 1020.5 c 128,-1,16
 1950 897 1950 897 1950 754 c 0,17,18
 1950 629 1950 629 1914 496.5 c 128,-1,19
 1878 364 1878 364 1807 242 c 0,20,21
 1727 105 1727 105 1607.5 20.5 c 128,-1,22
 1488 -64 1488 -64 1341 -64 c 0,23,24
 1225 -64 1225 -64 1167 -12.5 c 128,-1,25
 1109 39 1109 39 1109 120 c 0,26,27
 1109 154 1109 154 1120 195 c 1,28,29
 1042 121 1042 121 956 88 c 128,-1,30
 870 55 870 55 790 55 c 0,31,32
 701 55 701 55 644 91.5 c 128,-1,33
 587 128 587 128 560 191 c 128,-1,34
 533 254 533 254 533 334 c 0,35,36
 533 493 533 493 628.5 668 c 128,-1,37
 724 843 724 843 881 959 c 0,38,39
 1007 1049 1007 1049 1145 1049 c 0,40,41
 1249 1049 1249 1049 1309 1000 c 128,-1,42
 1369 951 1369 951 1379 876 c 1,43,-1
 1433 1000 l 1,44,-1
 1604 991 l 1,45,46
 1570 914 1570 914 1504 772 c 0,47,48
 1416 587 1416 587 1352 440 c 0,49,50
 1316 355 1316 355 1292.5 279.5 c 128,-1,51
 1269 204 1269 204 1269 167 c 0,52,53
 1269 111 1269 111 1338 111 c 0,54,55
 1459 111 1459 111 1545 180 c 0,56,57
 1633 253 1633 253 1687.5 357.5 c 128,-1,58
 1742 462 1742 462 1767 574 c 0,59,60
 1787 658 1787 658 1787 746 c 0,61,62
 1787 891 1787 891 1724 1010.5 c 128,-1,63
 1661 1130 1661 1130 1527 1203 c 0,64,65
 1398 1270 1398 1270 1217 1270 c 0,66,67
 1042 1270 1042 1270 888.5 1209.5 c 128,-1,68
 735 1149 735 1149 613 1043 c 128,-1,69
 491 937 491 937 408 799 c 128,-1,70
 325 661 325 661 288 504 c 0,71,72
 266 412 266 412 266 327 c 0,73,74
 266 164 266 164 341 51.5 c 128,-1,75
 416 -61 416 -61 546 -119 c 128,-1,76
 676 -177 676 -177 841 -177 c 0,77,78
 908 -177 908 -177 969.5 -166.5 c 128,-1,79
 1031 -156 1031 -156 1101 -135 c 1,80,-1
 1137 -299 l 1,81,82
 989 -348 989 -348 825 -348 c 0,0,1
823 225 m 0,83,84
 908 225 908 225 983 268 c 128,-1,85
 1058 311 1058 311 1118.5 379.5 c 128,-1,86
 1179 448 1179 448 1220.5 529 c 128,-1,87
 1262 610 1262 610 1280 688 c 0,88,89
 1290 733 1290 733 1290 762 c 0,90,91
 1290 878 1290 878 1157 878 c 0,92,93
 1048 878 1048 878 952 808 c 0,94,95
 850 731 850 731 785.5 626.5 c 128,-1,96
 721 522 721 522 698 419 c 0,97,98
 689 379 689 379 689 346 c 0,99,100
 689 225 689 225 823 225 c 0,83,84
EndSplineSet
EndChar

StartChar: A
Encoding: 65 65 36
Width: 1323
GlyphClass: 1
Flags: W
LayerCount: 2
Fore
SplineSet
1167 0 m 1,0,-1
 952 0 l 1,1,-1
 914 307 l 1,2,-1
 327 307 l 1,3,-1
 147 0 l 1,4,-1
 -77 0 l 1,5,-1
 795 1413 l 1,6,-1
 949 1413 l 1,7,-1
 1167 0 l 1,0,-1
887 486 m 1,8,-1
 810 1114 l 1,9,-1
 437 486 l 1,10,-1
 887 486 l 1,8,-1
EndSplineSet
Substitution2: "Single Substitution lookup 3 subtable" ordfeminine
Substitution2: "Single Substitution lookup 2 subtable" ordfeminine
Position2: "'cpsp' Capital Spacing lookup 0 per glyph data 0" dx=5 dy=0 dh=10 dv=0
EndChar

StartChar: B
Encoding: 66 66 37
Width: 1261
GlyphClass: 1
Flags: W
LayerCount: 2
Fore
SplineSet
595 0 m 2,0,-1
 85 0 l 1,1,-1
 411 1413 l 1,2,-1
 842 1413 l 2,3,4
 942 1413 942 1413 1029.5 1383.5 c 128,-1,5
 1117 1354 1117 1354 1171 1290.5 c 128,-1,6
 1225 1227 1225 1227 1225 1125 c 0,7,8
 1225 1062 1225 1062 1201 991.5 c 128,-1,9
 1177 921 1177 921 1127 861 c 0,10,11
 1063 787 1063 787 975 743 c 1,12,13
 1048 711 1048 711 1095 641.5 c 128,-1,14
 1142 572 1142 572 1142 471 c 0,15,16
 1142 392 1142 392 1110.5 309 c 128,-1,17
 1079 226 1079 226 1020 164 c 0,18,19
 933 77 933 77 822 38.5 c 128,-1,20
 711 0 711 0 595 0 c 2,0,-1
716 816 m 2,21,22
 824 816 824 816 908 873 c 128,-1,23
 992 930 992 930 1019 1049 c 0,24,25
 1025 1076 1025 1076 1025 1098 c 0,26,27
 1025 1230 1025 1230 814 1230 c 2,28,-1
 570 1230 l 1,29,-1
 474 816 l 1,30,-1
 716 816 l 2,21,22
632 191 m 2,31,32
 747 191 747 191 831 248.5 c 128,-1,33
 915 306 915 306 943 429 c 0,34,35
 950 457 950 457 950 485 c 0,36,37
 950 565 950 565 892.5 601.5 c 128,-1,38
 835 638 835 638 743 638 c 2,39,-1
 434 638 l 1,40,-1
 331 191 l 1,41,-1
 632 191 l 2,31,32
EndSplineSet
Position2: "'cpsp' Capital Spacing lookup 0 per glyph data 0" dx=5 dy=0 dh=10 dv=0
EndChar

StartChar: C
Encoding: 67 67 38
Width: 1431
GlyphClass: 1
Flags: W
LayerCount: 2
Fore
SplineSet
658 -20 m 0,0,1
 478 -20 478 -20 361.5 46.5 c 128,-1,2
 245 113 245 113 188.5 230 c 128,-1,3
 132 347 132 347 132 498 c 0,4,5
 132 633 132 633 177 789 c 128,-1,6
 222 945 222 945 313 1084 c 0,7,8
 420 1245 420 1245 587 1340.5 c 128,-1,9
 754 1436 754 1436 967 1436 c 0,10,11
 1100 1436 1100 1436 1211.5 1392 c 128,-1,12
 1323 1348 1323 1348 1396 1255 c 0,13,14
 1464 1165 1464 1165 1481 1037 c 1,15,-1
 1282 978 l 1,16,17
 1272 1122 1272 1122 1182.5 1189 c 128,-1,18
 1093 1256 1093 1256 946 1256 c 0,19,20
 787 1256 787 1256 667 1180 c 128,-1,21
 547 1104 547 1104 468.5 978 c 128,-1,22
 390 852 390 852 355 699 c 0,23,24
 332 601 332 601 332 515 c 0,25,26
 332 356 332 356 416 263.5 c 128,-1,27
 500 171 500 171 677 171 c 0,28,29
 835 171 835 171 954 243.5 c 128,-1,30
 1073 316 1073 316 1160 459 c 1,31,-1
 1331 363 l 1,32,33
 1200 167 1200 167 1025 73.5 c 128,-1,34
 850 -20 850 -20 658 -20 c 0,0,1
EndSplineSet
Position2: "'cpsp' Capital Spacing lookup 0 per glyph data 0" dx=5 dy=0 dh=10 dv=0
EndChar

StartChar: D
Encoding: 68 68 39
Width: 1411
GlyphClass: 1
Flags: W
LayerCount: 2
Fore
SplineSet
472 0 m 2,0,-1
 85 0 l 1,1,-1
 411 1413 l 1,2,-1
 788 1413 l 2,3,4
 989 1413 989 1413 1119.5 1352 c 128,-1,5
 1250 1291 1250 1291 1313.5 1178 c 128,-1,6
 1377 1065 1377 1065 1377 910 c 0,7,8
 1377 806 1377 806 1348 678 c 0,9,10
 1269 347 1269 347 1042.5 173.5 c 128,-1,11
 816 0 816 0 472 0 c 2,0,-1
479 186 m 2,12,13
 644 186 644 186 781 242.5 c 128,-1,14
 918 299 918 299 1014 418 c 128,-1,15
 1110 537 1110 537 1155 725 c 0,16,17
 1178 826 1178 826 1178 904 c 0,18,19
 1178 1075 1178 1075 1070.5 1151.5 c 128,-1,20
 963 1228 963 1228 753 1228 c 2,21,-1
 572 1228 l 1,22,-1
 331 186 l 1,23,-1
 479 186 l 2,12,13
EndSplineSet
Position2: "'cpsp' Capital Spacing lookup 0 per glyph data 0" dx=5 dy=0 dh=10 dv=0
EndChar

StartChar: E
Encoding: 69 69 40
Width: 1245
GlyphClass: 1
Flags: W
LayerCount: 2
Fore
SplineSet
1012 0 m 1,0,-1
 85 0 l 1,1,-1
 411 1413 l 1,2,-1
 1338 1413 l 1,3,-1
 1296 1231 l 1,4,-1
 572 1231 l 1,5,-1
 472 797 l 1,6,-1
 1120 797 l 1,7,-1
 1078 617 l 1,8,-1
 430 617 l 1,9,-1
 332 189 l 1,10,-1
 1055 189 l 1,11,-1
 1012 0 l 1,0,-1
EndSplineSet
Position2: "'cpsp' Capital Spacing lookup 0 per glyph data 0" dx=5 dy=0 dh=10 dv=0
EndChar

StartChar: F
Encoding: 70 70 41
Width: 1218
GlyphClass: 1
Flags: W
LayerCount: 2
Fore
SplineSet
288 0 m 1,0,-1
 85 0 l 1,1,-1
 411 1413 l 1,2,-1
 1362 1413 l 1,3,-1
 1320 1231 l 1,4,-1
 572 1231 l 1,5,-1
 472 797 l 1,6,-1
 1131 797 l 1,7,-1
 1089 617 l 1,8,-1
 430 617 l 1,9,-1
 288 0 l 1,0,-1
EndSplineSet
Position2: "'cpsp' Capital Spacing lookup 0 per glyph data 0" dx=5 dy=0 dh=10 dv=0
EndChar

StartChar: G
Encoding: 71 71 42
Width: 1521
GlyphClass: 1
Flags: W
LayerCount: 2
Fore
SplineSet
655 -20 m 0,0,1
 476 -20 476 -20 359.5 46.5 c 128,-1,2
 243 113 243 113 186 230 c 128,-1,3
 129 347 129 347 129 499 c 0,4,5
 129 637 129 637 175 791.5 c 128,-1,6
 221 946 221 946 311 1084 c 0,7,8
 418 1245 418 1245 585 1340.5 c 128,-1,9
 752 1436 752 1436 964 1436 c 0,10,11
 1109 1436 1109 1436 1214.5 1386.5 c 128,-1,12
 1320 1337 1320 1337 1385.5 1248 c 128,-1,13
 1451 1159 1451 1159 1477 1037 c 1,14,-1
 1284 977 l 1,15,16
 1259 1121 1259 1121 1169 1187 c 128,-1,17
 1079 1253 1079 1253 944 1253 c 0,18,19
 825 1253 825 1253 727.5 1209 c 128,-1,20
 630 1165 630 1165 555.5 1088.5 c 128,-1,21
 481 1012 481 1012 430 912.5 c 128,-1,22
 379 813 379 813 352 699 c 0,23,24
 329 601 329 601 329 515 c 0,25,26
 329 354 329 354 413 259.5 c 128,-1,27
 497 165 497 165 673 165 c 0,28,29
 842 165 842 165 991.5 275 c 128,-1,30
 1141 385 1141 385 1205 584 c 1,31,-1
 880 576 l 1,32,-1
 918 738 l 1,33,-1
 1434 738 l 1,34,-1
 1264 0 l 1,35,-1
 1100 0 l 1,36,-1
 1143 221 l 1,37,38
 1068 116 1068 116 941 48 c 128,-1,39
 814 -20 814 -20 655 -20 c 0,0,1
EndSplineSet
Position2: "'cpsp' Capital Spacing lookup 0 per glyph data 0" dx=5 dy=0 dh=10 dv=0
EndChar

StartChar: H
Encoding: 72 72 43
Width: 1475
GlyphClass: 1
Flags: W
LayerCount: 2
Fore
SplineSet
1161 0 m 1,0,-1
 957 0 l 1,1,-1
 1099 617 l 1,2,-1
 430 617 l 1,3,-1
 288 0 l 1,4,-1
 85 0 l 1,5,-1
 411 1413 l 1,6,-1
 614 1413 l 1,7,-1
 472 797 l 1,8,-1
 1141 797 l 1,9,-1
 1283 1413 l 1,10,-1
 1487 1413 l 1,11,-1
 1161 0 l 1,0,-1
EndSplineSet
Position2: "'cpsp' Capital Spacing lookup 0 per glyph data 0" dx=5 dy=0 dh=10 dv=0
EndChar

StartChar: I
Encoding: 73 73 44
Width: 603
GlyphClass: 1
Flags: W
LayerCount: 2
Fore
SplineSet
288 0 m 1,0,-1
 85 0 l 1,1,-1
 411 1413 l 1,2,-1
 614 1413 l 1,3,-1
 288 0 l 1,0,-1
EndSplineSet
Position2: "'cpsp' Capital Spacing lookup 0 per glyph data 0" dx=5 dy=0 dh=10 dv=0
EndChar

StartChar: J
Encoding: 74 74 45
Width: 1133
GlyphClass: 1
Flags: W
LayerCount: 2
Fore
SplineSet
398 -20 m 0,0,1
 276 -20 276 -20 194.5 28 c 128,-1,2
 113 76 113 76 72.5 157.5 c 128,-1,3
 32 239 32 239 32 341 c 0,4,5
 32 374 32 374 39 425 c 1,6,-1
 238 433 l 1,7,8
 232 396 232 396 232 361 c 0,9,10
 232 274 232 274 274.5 219.5 c 128,-1,11
 317 165 317 165 416 165 c 0,12,13
 516 165 516 165 582 205 c 128,-1,14
 648 245 648 245 690 320 c 0,15,16
 731 397 731 397 756 503 c 2,17,-1
 967 1413 l 1,18,-1
 1170 1413 l 1,19,-1
 958 497 l 2,20,21
 838 -20 838 -20 398 -20 c 0,0,1
EndSplineSet
Position2: "'cpsp' Capital Spacing lookup 0 per glyph data 0" dx=5 dy=0 dh=10 dv=0
EndChar

StartChar: K
Encoding: 75 75 46
Width: 1474
GlyphClass: 1
Flags: W
LayerCount: 2
Fore
SplineSet
1313 0 m 1,0,-1
 1073 0 l 1,1,-1
 778 713 l 1,2,-1
 377 379 l 1,3,-1
 288 0 l 1,4,-1
 85 0 l 1,5,-1
 411 1413 l 1,6,-1
 614 1413 l 1,7,-1
 431 627 l 1,8,-1
 1350 1413 l 1,9,-1
 1622 1413 l 1,10,-1
 940 846 l 1,11,-1
 1313 0 l 1,0,-1
EndSplineSet
Position2: "'cpsp' Capital Spacing lookup 0 per glyph data 0" dx=5 dy=0 dh=10 dv=0
EndChar

StartChar: L
Encoding: 76 76 47
Width: 1052
GlyphClass: 1
Flags: W
LayerCount: 2
Fore
SplineSet
893 0 m 1,0,-1
 85 0 l 1,1,-1
 411 1413 l 1,2,-1
 614 1413 l 1,3,-1
 332 189 l 1,4,-1
 936 189 l 1,5,-1
 893 0 l 1,0,-1
EndSplineSet
Position2: "'cpsp' Capital Spacing lookup 0 per glyph data 0" dx=5 dy=0 dh=10 dv=0
EndChar

StartChar: M
Encoding: 77 77 48
Width: 1782
GlyphClass: 1
Flags: W
LayerCount: 2
Fore
SplineSet
1468 0 m 1,0,-1
 1271 0 l 1,1,-1
 1543 1173 l 1,2,-1
 909 123 l 1,3,-1
 701 123 l 1,4,-1
 556 1173 l 1,5,-1
 283 0 l 1,6,-1
 85 0 l 1,7,-1
 411 1413 l 1,8,-1
 706 1413 l 1,9,-1
 849 339 l 1,10,-1
 1494 1413 l 1,11,-1
 1794 1413 l 1,12,-1
 1468 0 l 1,0,-1
EndSplineSet
Position2: "'cpsp' Capital Spacing lookup 0 per glyph data 0" dx=5 dy=0 dh=10 dv=0
EndChar

StartChar: N
Encoding: 78 78 49
Width: 1438
GlyphClass: 1
Flags: W
LayerCount: 2
Fore
SplineSet
1124 0 m 1,0,-1
 887 0 l 1,1,-1
 544 1118 l 1,2,-1
 283 0 l 1,3,-1
 85 0 l 1,4,-1
 411 1413 l 1,5,-1
 645 1413 l 1,6,-1
 992 297 l 1,7,-1
 1252 1413 l 1,8,-1
 1450 1413 l 1,9,-1
 1124 0 l 1,0,-1
EndSplineSet
Position2: "'cpsp' Capital Spacing lookup 0 per glyph data 0" dx=5 dy=0 dh=10 dv=0
EndChar

StartChar: O
Encoding: 79 79 50
Width: 1526
GlyphClass: 1
Flags: W
LayerCount: 2
Fore
SplineSet
655 -20 m 0,0,1
 476 -20 476 -20 360 47 c 128,-1,2
 244 114 244 114 188 231.5 c 128,-1,3
 132 349 132 349 132 500 c 0,4,5
 132 642 132 642 177.5 795 c 128,-1,6
 223 948 223 948 312 1082 c 0,7,8
 420 1243 420 1243 587 1338.5 c 128,-1,9
 754 1434 754 1434 966 1434 c 0,10,11
 1146 1434 1146 1434 1262.5 1367 c 128,-1,12
 1379 1300 1379 1300 1435 1182 c 128,-1,13
 1491 1064 1491 1064 1491 912 c 0,14,15
 1491 770 1491 770 1445 617.5 c 128,-1,16
 1399 465 1399 465 1310 332 c 0,17,18
 1202 171 1202 171 1034.5 75.5 c 128,-1,19
 867 -20 867 -20 655 -20 c 0,0,1
672 163 m 0,20,21
 831 163 831 163 953 240 c 0,22,23
 1078 321 1078 321 1154.5 447.5 c 128,-1,24
 1231 574 1231 574 1265 725 c 0,25,26
 1288 820 1288 820 1288 906 c 0,27,28
 1288 1063 1288 1063 1205.5 1156.5 c 128,-1,29
 1123 1250 1123 1250 947 1250 c 0,30,31
 790 1250 790 1250 670 1174 c 0,32,33
 545 1092 545 1092 468.5 965.5 c 128,-1,34
 392 839 392 839 358 688 c 0,35,36
 336 591 336 591 336 508 c 0,37,38
 336 351 336 351 417 257 c 128,-1,39
 498 163 498 163 672 163 c 0,20,21
EndSplineSet
Substitution2: "Single Substitution lookup 3 subtable" ordmasculine
Substitution2: "Single Substitution lookup 2 subtable" ordmasculine
Position2: "'cpsp' Capital Spacing lookup 0 per glyph data 0" dx=5 dy=0 dh=10 dv=0
EndChar

StartChar: P
Encoding: 80 80 51
Width: 1161
GlyphClass: 1
Flags: W
LayerCount: 2
Fore
SplineSet
287 0 m 1,0,-1
 85 0 l 1,1,-1
 411 1413 l 1,2,-1
 822 1413 l 2,3,4
 941 1413 941 1413 1030 1376.5 c 128,-1,5
 1119 1340 1119 1340 1168.5 1269.5 c 128,-1,6
 1218 1199 1218 1199 1218 1098 c 0,7,8
 1218 1045 1218 1045 1205 992 c 0,9,10
 1160 806 1160 806 1010.5 710 c 128,-1,11
 861 614 861 614 650 614 c 2,12,-1
 429 614 l 1,13,-1
 287 0 l 1,0,-1
681 800 m 2,14,15
 813 800 813 800 899 856 c 128,-1,16
 985 912 985 912 1012 1028 c 0,17,18
 1019 1061 1019 1061 1019 1081 c 0,19,20
 1019 1225 1019 1225 792 1227 c 2,21,-1
 570 1227 l 1,22,-1
 470 800 l 1,23,-1
 681 800 l 2,14,15
EndSplineSet
Position2: "'cpsp' Capital Spacing lookup 0 per glyph data 0" dx=5 dy=0 dh=10 dv=0
EndChar

StartChar: Q
Encoding: 81 81 52
Width: 1563
GlyphClass: 1
Flags: W
LayerCount: 2
Fore
SplineSet
1206 -107 m 1,0,-1
 1055 88 l 1,1,2
 884 -20 884 -20 655 -20 c 0,3,4
 476 -20 476 -20 360 47 c 128,-1,5
 244 114 244 114 188 231.5 c 128,-1,6
 132 349 132 349 132 500 c 0,7,8
 132 642 132 642 177.5 795 c 128,-1,9
 223 948 223 948 312 1082 c 0,10,11
 420 1243 420 1243 587 1338.5 c 128,-1,12
 754 1434 754 1434 966 1434 c 0,13,14
 1147 1434 1147 1434 1263 1366.5 c 128,-1,15
 1379 1299 1379 1299 1435 1181 c 128,-1,16
 1491 1063 1491 1063 1491 911 c 0,17,18
 1491 721 1491 721 1415 530.5 c 128,-1,19
 1339 340 1339 340 1205 204 c 1,20,-1
 1359 16 l 1,21,-1
 1206 -107 l 1,0,-1
674 169 m 0,22,23
 815 169 815 169 939 235 c 1,24,-1
 789 422 l 1,25,-1
 939 544 l 1,26,-1
 1093 362 l 1,27,28
 1218 508 1218 508 1269 725 c 0,29,30
 1290 815 1290 815 1290 899 c 0,31,32
 1290 1056 1290 1056 1207 1150 c 128,-1,33
 1124 1244 1124 1244 947 1244 c 0,34,35
 785 1244 785 1244 665 1168.5 c 128,-1,36
 545 1093 545 1093 467 967.5 c 128,-1,37
 389 842 389 842 354 688 c 0,38,39
 332 592 332 592 332 512 c 0,40,41
 332 355 332 355 415 262 c 128,-1,42
 498 169 498 169 674 169 c 0,22,23
EndSplineSet
Position2: "'cpsp' Capital Spacing lookup 0 per glyph data 0" dx=5 dy=0 dh=10 dv=0
EndChar

StartChar: R
Encoding: 82 82 53
Width: 1246
GlyphClass: 1
Flags: W
LayerCount: 2
Fore
SplineSet
1073 -2 m 1,0,-1
 854 -2 l 1,1,-1
 647 619 l 1,2,-1
 431 619 l 1,3,-1
 286 -2 l 1,4,-1
 83 -2 l 1,5,-1
 411 1412 l 1,6,-1
 833 1412 l 2,7,8
 942 1412 942 1412 1029.5 1375 c 128,-1,9
 1117 1338 1117 1338 1168.5 1266 c 128,-1,10
 1220 1194 1220 1194 1220 1089 c 0,11,12
 1220 1010 1220 1010 1186.5 924.5 c 128,-1,13
 1153 839 1153 839 1079 767 c 0,14,15
 979 673 979 673 840 639 c 1,16,-1
 1073 -2 l 1,0,-1
715 794 m 1,17,18
 824 799 824 799 906 858 c 128,-1,19
 988 917 988 917 1014 1025 c 0,20,21
 1020 1052 1020 1052 1020 1076 c 0,22,23
 1020 1152 1020 1152 963 1191.5 c 128,-1,24
 906 1231 906 1231 806 1231 c 2,25,-1
 573 1231 l 1,26,-1
 473 794 l 1,27,-1
 715 794 l 1,17,18
EndSplineSet
Position2: "'cpsp' Capital Spacing lookup 0 per glyph data 0" dx=5 dy=0 dh=10 dv=0
EndChar

StartChar: S
Encoding: 83 83 54
Width: 1124
GlyphClass: 1
Flags: W
LayerCount: 2
Fore
SplineSet
501 -16 m 0,0,1
 411 -16 411 -16 328 9 c 128,-1,2
 245 34 245 34 182 84 c 128,-1,3
 119 134 119 134 81.5 209 c 128,-1,4
 44 284 44 284 44 384 c 1,5,-1
 239 419 l 1,6,7
 239 353 239 353 259 304.5 c 128,-1,8
 279 256 279 256 315 224 c 128,-1,9
 351 192 351 192 402.5 176.5 c 128,-1,10
 454 161 454 161 517 161 c 0,11,12
 571 161 571 161 626 175 c 128,-1,13
 681 189 681 189 725.5 219.5 c 128,-1,14
 770 250 770 250 798 298 c 128,-1,15
 826 346 826 346 826 414 c 0,16,17
 826 480 826 480 793.5 524.5 c 128,-1,18
 761 569 761 569 712 602.5 c 128,-1,19
 663 636 663 636 604.5 663.5 c 128,-1,20
 546 691 546 691 494 721 c 0,21,22
 452 745 452 745 414.5 774 c 128,-1,23
 377 803 377 803 349 840 c 128,-1,24
 321 877 321 877 304.5 923.5 c 128,-1,25
 288 970 288 970 288 1029 c 0,26,27
 288 1117 288 1117 323 1189 c 128,-1,28
 358 1261 358 1261 416.5 1313.5 c 128,-1,29
 475 1366 475 1366 551.5 1396.5 c 128,-1,30
 628 1427 628 1427 711 1432 c 0,31,32
 723 1433 723 1433 735.5 1433.5 c 128,-1,33
 748 1434 748 1434 761 1434 c 0,34,35
 819 1432 819 1432 876.5 1418 c 128,-1,36
 934 1404 934 1404 983.5 1375 c 128,-1,37
 1033 1346 1033 1346 1072 1301.5 c 128,-1,38
 1111 1257 1111 1257 1134 1195 c 1,39,-1
 973 1115 l 1,40,41
 951 1183 951 1183 896 1222 c 128,-1,42
 841 1261 841 1261 772 1266 c 0,43,44
 763 1267 763 1267 753 1267 c 0,45,46
 715 1267 715 1267 677 1258 c 128,-1,47
 639 1249 639 1249 604 1230.5 c 128,-1,48
 569 1212 569 1212 542 1185 c 128,-1,49
 515 1158 515 1158 499 1123 c 128,-1,50
 483 1088 483 1088 483 1046 c 0,51,52
 483 1011 483 1011 494.5 983 c 128,-1,53
 506 955 506 955 526 932.5 c 128,-1,54
 546 910 546 910 572 891.5 c 128,-1,55
 598 873 598 873 628 858 c 2,56,-1
 711 816 l 2,57,58
 766 789 766 789 821 755.5 c 128,-1,59
 876 722 876 722 920.5 677 c 128,-1,60
 965 632 965 632 993 572.5 c 128,-1,61
 1021 513 1021 513 1021 433 c 0,62,63
 1021 326 1021 326 976 242.5 c 128,-1,64
 931 159 931 159 857.5 101.5 c 128,-1,65
 784 44 784 44 691 14 c 128,-1,66
 598 -16 598 -16 501 -16 c 0,0,1
EndSplineSet
Position2: "'cpsp' Capital Spacing lookup 0 per glyph data 0" dx=5 dy=0 dh=10 dv=0
EndChar

StartChar: T
Encoding: 84 84 55
Width: 1215
GlyphClass: 1
Flags: W
LayerCount: 2
Fore
SplineSet
595 0 m 1,0,-1
 391 0 l 1,1,-1
 675 1237 l 1,2,-1
 215 1237 l 1,3,-1
 256 1413 l 1,4,-1
 1381 1413 l 1,5,-1
 1340 1237 l 1,6,-1
 880 1237 l 1,7,-1
 595 0 l 1,0,-1
EndSplineSet
Position2: "'cpsp' Capital Spacing lookup 0 per glyph data 0" dx=5 dy=0 dh=10 dv=0
EndChar

StartChar: U
Encoding: 85 85 56
Width: 1367
GlyphClass: 1
Flags: W
LayerCount: 2
Fore
SplineSet
576 -20 m 0,0,1
 363 -20 363 -20 260 83.5 c 128,-1,2
 157 187 157 187 157 364 c 0,3,4
 157 445 157 445 179 542 c 2,5,-1
 380 1413 l 1,6,-1
 583 1413 l 1,7,-1
 387 562 l 2,8,9
 363 458 363 458 363 387 c 0,10,11
 363 278 363 278 420.5 226.5 c 128,-1,12
 478 175 478 175 596 175 c 0,13,14
 772 175 772 175 871 281 c 128,-1,15
 970 387 970 387 1014 579 c 2,16,-1
 1207 1413 l 1,17,-1
 1410 1413 l 1,18,-1
 1208 535 l 2,19,20
 1149 279 1149 279 991 129.5 c 128,-1,21
 833 -20 833 -20 576 -20 c 0,0,1
EndSplineSet
Position2: "'cpsp' Capital Spacing lookup 0 per glyph data 0" dx=5 dy=0 dh=10 dv=0
EndChar

StartChar: V
Encoding: 86 86 57
Width: 1338
GlyphClass: 1
Flags: W
LayerCount: 2
Fore
SplineSet
638 0 m 1,0,-1
 476 0 l 1,1,-1
 255 1413 l 1,2,-1
 470 1413 l 1,3,-1
 622 305 l 1,4,-1
 1289 1413 l 1,5,-1
 1509 1413 l 1,6,-1
 638 0 l 1,0,-1
EndSplineSet
Position2: "'cpsp' Capital Spacing lookup 0 per glyph data 0" dx=5 dy=0 dh=10 dv=0
EndChar

StartChar: W
Encoding: 87 87 58
Width: 1987
GlyphClass: 1
Flags: W
LayerCount: 2
Fore
SplineSet
1364 0 m 1,0,-1
 1156 0 l 1,1,-1
 1083 1089 l 1,2,-1
 505 0 l 1,3,-1
 298 0 l 1,4,-1
 214 1413 l 1,5,-1
 424 1413 l 1,6,-1
 481 278 l 1,7,-1
 1077 1413 l 1,8,-1
 1237 1413 l 1,9,-1
 1309 278 l 1,10,-1
 1889 1413 l 1,11,-1
 2100 1413 l 1,12,-1
 1364 0 l 1,0,-1
EndSplineSet
Position2: "'cpsp' Capital Spacing lookup 0 per glyph data 1" dx=5 dy=1 dh=10 dv=2
EndChar

StartChar: X
Encoding: 88 88 59
Width: 1304
GlyphClass: 1
Flags: W
LayerCount: 2
Fore
SplineSet
1134 0 m 1,0,-1
 899 0 l 1,1,-1
 669 557 l 1,2,-1
 182 0 l 1,3,-1
 -65 0 l 1,4,-1
 570 707 l 1,5,-1
 267 1413 l 1,6,-1
 506 1413 l 1,7,-1
 728 847 l 1,8,-1
 1218 1413 l 1,9,-1
 1463 1413 l 1,10,-1
 830 707 l 1,11,-1
 1134 0 l 1,0,-1
EndSplineSet
Position2: "'cpsp' Capital Spacing lookup 0 per glyph data 0" dx=5 dy=0 dh=10 dv=0
EndChar

StartChar: Y
Encoding: 89 89 60
Width: 1366
GlyphClass: 1
Flags: W
LayerCount: 2
Fore
SplineSet
670 0 m 1,0,-1
 469 0 l 1,1,-1
 598 552 l 1,2,-1
 241 1413 l 1,3,-1
 475 1413 l 1,4,-1
 735 743 l 1,5,-1
 1310 1413 l 1,6,-1
 1551 1413 l 1,7,-1
 799 552 l 1,8,-1
 670 0 l 1,0,-1
EndSplineSet
Position2: "'cpsp' Capital Spacing lookup 0 per glyph data 0" dx=5 dy=0 dh=10 dv=0
EndChar

StartChar: Z
Encoding: 90 90 61
Width: 1278
GlyphClass: 1
Flags: W
LayerCount: 2
Fore
SplineSet
1074 0 m 1,0,-1
 -38 0 l 1,1,-1
 -7 148 l 1,2,-1
 1083 1231 l 1,3,-1
 291 1231 l 1,4,-1
 333 1413 l 1,5,-1
 1399 1413 l 1,6,-1
 1365 1258 l 1,7,-1
 281 184 l 1,8,-1
 1117 184 l 1,9,-1
 1074 0 l 1,0,-1
EndSplineSet
Position2: "'cpsp' Capital Spacing lookup 0 per glyph data 0" dx=5 dy=0 dh=10 dv=0
EndChar

StartChar: bracketleft
Encoding: 91 91 62
Width: 641
GlyphClass: 1
Flags: W
LayerCount: 2
Fore
SplineSet
442 -126 m 1,0,-1
 48 -126 l 1,1,-1
 432 1536 l 1,2,-1
 826 1536 l 1,3,-1
 798 1412 l 1,4,-1
 563 1412 l 1,5,-1
 237 0 l 1,6,-1
 473 0 l 1,7,-1
 442 -126 l 1,0,-1
EndSplineSet
EndChar

StartChar: backslash
Encoding: 92 92 63
Width: 936
GlyphClass: 1
Flags: W
LayerCount: 2
Fore
SplineSet
728 -430 m 1,0,-1
 544 -430 l 1,1,-1
 228 1516 l 1,2,-1
 411 1516 l 1,3,-1
 728 -430 l 1,0,-1
EndSplineSet
EndChar

StartChar: bracketright
Encoding: 93 93 64
Width: 641
GlyphClass: 1
Flags: W
LayerCount: 2
Fore
SplineSet
303 -126 m 1,0,-1
 -91 -126 l 1,1,-1
 -61 0 l 1,2,-1
 174 0 l 1,3,-1
 500 1412 l 1,4,-1
 265 1412 l 1,5,-1
 293 1536 l 1,6,-1
 687 1536 l 1,7,-1
 303 -126 l 1,0,-1
EndSplineSet
EndChar

StartChar: asciicircum
Encoding: 94 94 65
Width: 983
GlyphClass: 1
Flags: W
LayerCount: 2
Fore
SplineSet
957 823 m 1,0,-1
 765 823 l 1,1,-1
 644 1142 l 1,2,-1
 373 823 l 1,3,-1
 170 823 l 1,4,-1
 708 1461 l 1,5,-1
 957 823 l 1,0,-1
EndSplineSet
EndChar

StartChar: underscore
Encoding: 95 95 66
Width: 1245
GlyphClass: 1
Flags: W
LayerCount: 2
Fore
SplineSet
880 -147 m 1,0,-1
 67 -147 l 1,1,-1
 101 0 l 1,2,-1
 914 0 l 1,3,-1
 880 -147 l 1,0,-1
EndSplineSet
EndChar

StartChar: a
Encoding: 97 97 68
Width: 1184
GlyphClass: 1
Flags: W
LayerCount: 2
Fore
SplineSet
403 -20 m 0,0,1
 291 -20 291 -20 217 30 c 128,-1,2
 143 80 143 80 106 166 c 128,-1,3
 69 252 69 252 69 363 c 0,4,5
 69 479 69 479 103.5 593 c 128,-1,6
 138 707 138 707 198 801 c 0,7,8
 270 916 270 916 378.5 988 c 128,-1,9
 487 1060 487 1060 622 1060 c 0,10,11
 728 1060 728 1060 799 1020.5 c 128,-1,12
 870 981 870 981 905 913 c 1,13,-1
 939 1039 l 1,14,-1
 1142 1039 l 1,15,-1
 903 0 l 1,16,-1
 712 0 l 1,17,-1
 732 113 l 1,18,19
 598 -20 598 -20 403 -20 c 0,0,1
465 158 m 0,20,21
 564 158 564 158 639.5 208.5 c 128,-1,22
 715 259 715 259 765.5 344.5 c 128,-1,23
 816 430 816 430 840 539 c 0,24,25
 855 602 855 602 855 666 c 0,26,27
 855 763 855 763 808.5 823 c 128,-1,28
 762 883 762 883 656 883 c 0,29,30
 558 883 558 883 481.5 831 c 128,-1,31
 405 779 405 779 354 693 c 128,-1,32
 303 607 303 607 280 501 c 0,33,34
 265 438 265 438 265 376 c 0,35,36
 265 312 265 312 285 263 c 128,-1,37
 305 214 305 214 349.5 186 c 128,-1,38
 394 158 394 158 465 158 c 0,20,21
EndSplineSet
Substitution2: "Single Substitution lookup 3 subtable" ordfeminine
Substitution2: "Single Substitution lookup 2 subtable" ordfeminine
EndChar

StartChar: b
Encoding: 98 98 69
Width: 1186
GlyphClass: 1
Flags: W
LayerCount: 2
Fore
SplineSet
568 -20 m 0,0,1
 463 -20 463 -20 392 19.5 c 128,-1,2
 321 59 321 59 286 127 c 1,3,-1
 253 0 l 1,4,-1
 48 0 l 1,5,-1
 386 1412 l 1,6,-1
 592 1412 l 1,7,-1
 461 926 l 1,8,9
 599 1061 599 1061 788 1061 c 0,10,11
 900 1061 900 1061 974.5 1011 c 128,-1,12
 1049 961 1049 961 1086 874.5 c 128,-1,13
 1123 788 1123 788 1123 677 c 0,14,15
 1123 573 1123 573 1091 457 c 128,-1,16
 1059 341 1059 341 994 239 c 0,17,18
 921 124 921 124 812.5 52 c 128,-1,19
 704 -20 704 -20 568 -20 c 0,0,1
536 155 m 0,20,21
 635 155 635 155 711.5 207 c 128,-1,22
 788 259 788 259 839.5 345.5 c 128,-1,23
 891 432 891 432 914 539 c 0,24,25
 929 605 929 605 929 662 c 0,26,27
 929 728 929 728 908.5 778.5 c 128,-1,28
 888 829 888 829 843.5 858 c 128,-1,29
 799 887 799 887 727 887 c 0,30,31
 629 887 629 887 553 834.5 c 128,-1,32
 477 782 477 782 425.5 695 c 128,-1,33
 374 608 374 608 350 501 c 0,34,35
 335 438 335 438 335 376 c 0,36,37
 335 311 335 311 355 261.5 c 128,-1,38
 375 212 375 212 420 183.5 c 128,-1,39
 465 155 465 155 536 155 c 0,20,21
EndSplineSet
EndChar

StartChar: c
Encoding: 99 99 70
Width: 1020
GlyphClass: 1
Flags: W
LayerCount: 2
Fore
SplineSet
441 -20 m 0,0,1
 313 -20 313 -20 229.5 32 c 128,-1,2
 146 84 146 84 105 173 c 128,-1,3
 64 262 64 262 64 375 c 0,4,5
 64 474 64 474 96 583 c 128,-1,6
 128 692 128 692 194 793 c 0,7,8
 244 869 244 869 313 928 c 128,-1,9
 382 987 382 987 469.5 1021.5 c 128,-1,10
 557 1056 557 1056 661 1056 c 0,11,12
 763 1056 763 1056 838.5 1018.5 c 128,-1,13
 914 981 914 981 960.5 916 c 128,-1,14
 1007 851 1007 851 1025 766 c 1,15,-1
 824 705 l 1,16,17
 821 794 821 794 770 837 c 128,-1,18
 719 880 719 880 641 880 c 0,19,20
 542 880 542 880 467.5 825.5 c 128,-1,21
 393 771 393 771 344 684 c 128,-1,22
 295 597 295 597 272 498 c 0,23,24
 257 432 257 432 257 373 c 0,25,26
 257 275 257 275 303 215 c 128,-1,27
 349 155 349 155 447 155 c 256,28,29
 545 155 545 155 621.5 209.5 c 128,-1,30
 698 264 698 264 740 349 c 1,31,-1
 903 257 l 1,32,33
 818 117 818 117 697.5 48.5 c 128,-1,34
 577 -20 577 -20 441 -20 c 0,0,1
EndSplineSet
EndChar

StartChar: d
Encoding: 100 100 71
Width: 1188
GlyphClass: 1
Flags: W
LayerCount: 2
Fore
SplineSet
403 -20 m 0,0,1
 291 -20 291 -20 217 30 c 128,-1,2
 143 80 143 80 106 166 c 128,-1,3
 69 252 69 252 69 363 c 0,4,5
 69 479 69 479 103.5 593 c 128,-1,6
 138 707 138 707 198 801 c 0,7,8
 270 916 270 916 378.5 988 c 128,-1,9
 487 1060 487 1060 622 1060 c 0,10,11
 728 1060 728 1060 799 1020.5 c 128,-1,12
 870 981 870 981 905 913 c 1,13,-1
 1038 1413 l 1,14,-1
 1242 1413 l 1,15,-1
 903 0 l 1,16,-1
 712 0 l 1,17,-1
 732 113 l 1,18,19
 598 -20 598 -20 403 -20 c 0,0,1
465 158 m 0,20,21
 564 158 564 158 639.5 208.5 c 128,-1,22
 715 259 715 259 765.5 344.5 c 128,-1,23
 816 430 816 430 840 539 c 0,24,25
 855 602 855 602 855 666 c 0,26,27
 855 763 855 763 808.5 823 c 128,-1,28
 762 883 762 883 656 883 c 0,29,30
 558 883 558 883 481.5 831 c 128,-1,31
 405 779 405 779 354 693 c 128,-1,32
 303 607 303 607 280 501 c 0,33,34
 265 438 265 438 265 376 c 0,35,36
 265 312 265 312 285 263 c 128,-1,37
 305 214 305 214 349.5 186 c 128,-1,38
 394 158 394 158 465 158 c 0,20,21
EndSplineSet
EndChar

StartChar: e
Encoding: 101 101 72
Width: 1073
GlyphClass: 1
Flags: W
LayerCount: 2
Fore
SplineSet
455 -12 m 0,0,1
 322 -12 322 -12 235 38 c 128,-1,2
 148 88 148 88 105 175 c 128,-1,3
 62 262 62 262 62 375 c 0,4,5
 62 490 62 490 101.5 609 c 128,-1,6
 141 728 141 728 217 828 c 128,-1,7
 293 928 293 928 402.5 990 c 128,-1,8
 512 1052 512 1052 651 1052 c 0,9,10
 845 1052 845 1052 932 953 c 128,-1,11
 1019 854 1019 854 1019 691 c 0,12,13
 1019 600 1019 600 995 494 c 0,14,15
 990 473 990 473 980 447 c 1,16,-1
 264 447 l 1,17,18
 257 409 257 409 256 371 c 0,19,20
 256 280 256 280 306.5 222.5 c 128,-1,21
 357 165 357 165 466 165 c 0,22,23
 565 165 565 165 637.5 192 c 128,-1,24
 710 219 710 219 775 277 c 1,25,-1
 893 144 l 1,26,27
 795 63 795 63 690 25.5 c 128,-1,28
 585 -12 585 -12 455 -12 c 0,0,1
834 594 m 1,29,30
 842 638 842 638 842 686 c 0,31,32
 842 789 842 789 790 837 c 128,-1,33
 738 885 738 885 627 885 c 256,34,35
 516 885 516 885 428.5 802.5 c 128,-1,36
 341 720 341 720 300 594 c 1,37,-1
 834 594 l 1,29,30
EndSplineSet
EndChar

StartChar: f
Encoding: 102 102 73
Width: 718
GlyphClass: 1
Flags: W
LayerCount: 2
Fore
SplineSet
305 0 m 1,0,-1
 100 0 l 1,1,-1
 301 878 l 1,2,-1
 110 878 l 1,3,-1
 149 1037 l 1,4,-1
 339 1037 l 1,5,-1
 381 1192 l 2,6,7
 416 1316 416 1316 511 1375 c 128,-1,8
 606 1434 606 1434 738 1434 c 0,9,10
 828 1434 828 1434 913 1391 c 1,11,-1
 822 1250 l 1,12,13
 776 1270 776 1270 726 1270 c 0,14,15
 675 1270 675 1270 635.5 1244.5 c 128,-1,16
 596 1219 596 1219 579 1165 c 2,17,-1
 543 1039 l 1,18,-1
 816 1039 l 1,19,-1
 778 878 l 1,20,-1
 505 878 l 1,21,-1
 305 0 l 1,0,-1
EndSplineSet
EndChar

StartChar: g
Encoding: 103 103 74
Width: 1187
GlyphClass: 1
Flags: W
LayerCount: 2
Fore
SplineSet
352 -436 m 0,0,1
 200 -436 200 -436 104 -379 c 128,-1,2
 8 -322 8 -322 -38 -223 c 1,3,-1
 131 -130 l 1,4,5
 154 -194 154 -194 212.5 -230.5 c 128,-1,6
 271 -267 271 -267 367 -267 c 0,7,8
 501 -267 501 -267 586 -191.5 c 128,-1,9
 671 -116 671 -116 701 8 c 2,10,-1
 732 125 l 1,11,12
 664 57 664 57 581 24 c 128,-1,13
 498 -9 498 -9 408 -9 c 0,14,15
 294 -9 294 -9 219 41 c 128,-1,16
 144 91 144 91 107 177 c 128,-1,17
 70 263 70 263 70 372 c 0,18,19
 70 477 70 477 102.5 590.5 c 128,-1,20
 135 704 135 704 197 803 c 0,21,22
 269 917 269 917 378 988.5 c 128,-1,23
 487 1060 487 1060 625 1060 c 0,24,25
 723 1060 723 1060 795.5 1021 c 128,-1,26
 868 982 868 982 904 913 c 1,27,-1
 938 1039 l 1,28,-1
 1140 1039 l 1,29,-1
 900 4 l 2,30,31
 869 -130 869 -130 796.5 -228.5 c 128,-1,32
 724 -327 724 -327 612.5 -381.5 c 128,-1,33
 501 -436 501 -436 352 -436 c 0,0,1
467 167 m 0,34,35
 565 167 565 167 640.5 218 c 128,-1,36
 716 269 716 269 766.5 354 c 128,-1,37
 817 439 817 439 841 545 c 0,38,39
 855 607 855 607 855 666 c 0,40,41
 855 731 855 731 835 780.5 c 128,-1,42
 815 830 815 830 771 858 c 128,-1,43
 727 886 727 886 656 886 c 0,44,45
 557 886 557 886 480.5 833.5 c 128,-1,46
 404 781 404 781 353.5 695.5 c 128,-1,47
 303 610 303 610 280 506 c 0,48,49
 265 439 265 439 265 385 c 0,50,51
 265 321 265 321 285.5 272 c 128,-1,52
 306 223 306 223 350.5 195 c 128,-1,53
 395 167 395 167 467 167 c 0,34,35
EndSplineSet
EndChar

StartChar: h
Encoding: 104 104 75
Width: 1177
GlyphClass: 1
Flags: W
LayerCount: 2
Fore
SplineSet
933 0 m 1,0,-1
 730 0 l 1,1,-1
 872 618 l 2,2,3
 887 682 887 682 887 735 c 0,4,5
 887 875 887 875 750 875 c 0,6,7
 663 875 663 875 584 829 c 128,-1,8
 505 783 505 783 450 712 c 128,-1,9
 395 641 395 641 378 564 c 2,10,-1
 249 0 l 1,11,-1
 47 0 l 1,12,-1
 385 1413 l 1,13,-1
 588 1413 l 1,14,-1
 452 905 l 1,15,16
 528 983 528 983 619 1019.5 c 128,-1,17
 710 1056 710 1056 795 1056 c 0,18,19
 943 1056 943 1056 1014.5 973.5 c 128,-1,20
 1086 891 1086 891 1086 758 c 0,21,22
 1086 697 1086 697 1070 624 c 2,23,-1
 933 0 l 1,0,-1
EndSplineSet
EndChar

StartChar: i
Encoding: 105 105 76
Width: 511
GlyphClass: 1
Flags: W
LayerCount: 2
Fore
SplineSet
498 1205 m 1,0,-1
 314 1205 l 1,1,-1
 362 1413 l 1,2,-1
 546 1413 l 1,3,-1
 498 1205 l 1,0,-1
232 0 m 1,4,-1
 48 0 l 1,5,-1
 278 1039 l 1,6,-1
 462 1039 l 1,7,-1
 232 0 l 1,4,-1
EndSplineSet
Substitution2: "'locl' Localized Forms in Latin lookup 5 subtable" i.loclTRK
Substitution2: "Single Substitution lookup 2 subtable" dotlessi
Substitution2: "'aalt' Access All Alternates lookup 0 subtable" i.loclTRK
EndChar

StartChar: j
Encoding: 106 106 77
Width: 552
GlyphClass: 1
Flags: W
LayerCount: 2
Fore
SplineSet
533 1198 m 1,0,-1
 329 1198 l 1,1,-1
 382 1416 l 1,2,-1
 586 1416 l 1,3,-1
 533 1198 l 1,0,-1
-128 -438 m 0,4,5
 -208 -438 -208 -438 -292 -403 c 1,6,-1
 -220 -244 l 1,7,8
 -171 -257 -171 -257 -116 -257 c 0,9,10
 -10 -257 -10 -257 16 -130 c 2,11,-1
 287 1039 l 1,12,-1
 491 1039 l 1,13,-1
 216 -134 l 2,14,15
 195 -224 195 -224 151.5 -292 c 128,-1,16
 108 -360 108 -360 38.5 -399 c 128,-1,17
 -31 -438 -31 -438 -128 -438 c 0,4,5
EndSplineSet
Substitution2: "Single Substitution lookup 2 subtable" uni0237
EndChar

StartChar: k
Encoding: 107 107 78
Width: 1126
GlyphClass: 1
Flags: W
LayerCount: 2
Fore
SplineSet
987 0 m 1,0,-1
 753 0 l 1,1,-1
 563 517 l 1,2,-1
 318 303 l 1,3,-1
 246 0 l 1,4,-1
 46 0 l 1,5,-1
 373 1413 l 1,6,-1
 576 1413 l 1,7,-1
 369 547 l 1,8,-1
 913 1039 l 1,9,-1
 1175 1039 l 1,10,-1
 721 648 l 1,11,-1
 987 0 l 1,0,-1
EndSplineSet
EndChar

StartChar: l
Encoding: 108 108 79
Width: 558
GlyphClass: 1
Flags: W
LayerCount: 2
Fore
SplineSet
240 -20 m 0,0,1
 159 -20 159 -20 118.5 13.5 c 128,-1,2
 78 47 78 47 78 120 c 0,3,4
 78 160 78 160 90 209 c 2,5,-1
 373 1413 l 1,6,-1
 574 1413 l 1,7,8
 281 198 281 198 281 188 c 0,9,10
 281 149 281 149 333 149 c 0,11,12
 354 149 354 149 419 162 c 1,13,-1
 393 -2 l 1,14,15
 313 -20 313 -20 240 -20 c 0,0,1
EndSplineSet
EndChar

StartChar: m
Encoding: 109 109 80
Width: 1776
GlyphClass: 1
Flags: W
LayerCount: 2
Fore
SplineSet
1531 0 m 1,0,-1
 1329 0 l 1,1,-1
 1470 618 l 2,2,3
 1485 682 1485 682 1485 736 c 0,4,5
 1485 884 1485 884 1346 884 c 0,6,7
 1267 884 1267 884 1199.5 840 c 128,-1,8
 1132 796 1132 796 1085.5 727 c 128,-1,9
 1039 658 1039 658 1021 578 c 2,10,-1
 890 0 l 1,11,-1
 685 0 l 1,12,-1
 828 622 l 2,13,14
 843 686 843 686 843 739 c 0,15,16
 843 808 843 808 811 846 c 128,-1,17
 779 884 779 884 705 884 c 0,18,19
 625 884 625 884 558 840 c 128,-1,20
 491 796 491 796 444.5 727 c 128,-1,21
 398 658 398 658 380 578 c 2,22,-1
 249 0 l 1,23,-1
 46 0 l 1,24,-1
 284 1039 l 1,25,-1
 487 1039 l 1,26,-1
 453 907 l 1,27,28
 514 984 514 984 593 1021 c 128,-1,29
 672 1058 672 1058 750 1058 c 0,30,31
 865 1058 865 1058 933.5 1009.5 c 128,-1,32
 1002 961 1002 961 1021 878 c 1,33,34
 1173 1056 1173 1056 1387 1056 c 0,35,36
 1538 1056 1538 1056 1611 972 c 128,-1,37
 1684 888 1684 888 1684 752 c 0,38,39
 1684 691 1684 691 1668 618 c 2,40,-1
 1531 0 l 1,0,-1
EndSplineSet
EndChar

StartChar: n
Encoding: 110 110 81
Width: 1177
GlyphClass: 1
Flags: W
LayerCount: 2
Fore
SplineSet
931 0 m 1,0,-1
 729 0 l 1,1,-1
 870 618 l 2,2,3
 885 682 885 682 885 734 c 0,4,5
 885 803 885 803 852.5 838.5 c 128,-1,6
 820 874 820 874 747 874 c 0,7,8
 663 874 663 874 584.5 830 c 128,-1,9
 506 786 506 786 452 718.5 c 128,-1,10
 398 651 398 651 381 576 c 2,11,-1
 249 0 l 1,12,-1
 46 0 l 1,13,-1
 284 1039 l 1,14,-1
 488 1039 l 1,15,-1
 453 908 l 1,16,17
 528 984 528 984 617 1020 c 128,-1,18
 706 1056 706 1056 789 1056 c 0,19,20
 940 1056 940 1056 1012 973.5 c 128,-1,21
 1084 891 1084 891 1084 756 c 0,22,23
 1084 694 1084 694 1068 618 c 2,24,-1
 931 0 l 1,0,-1
EndSplineSet
EndChar

StartChar: o
Encoding: 111 111 82
Width: 1151
GlyphClass: 1
Flags: W
LayerCount: 2
Fore
SplineSet
467 -20 m 0,0,1
 337 -20 337 -20 246.5 34 c 128,-1,2
 156 88 156 88 108 181.5 c 128,-1,3
 60 275 60 275 60 393 c 0,4,5
 60 519 60 519 106 633 c 128,-1,6
 152 747 152 747 231.5 836.5 c 128,-1,7
 311 926 311 926 415 983 c 0,8,9
 542 1052 542 1052 685 1052 c 0,10,11
 815 1052 815 1052 906 997.5 c 128,-1,12
 997 943 997 943 1044 849.5 c 128,-1,13
 1091 756 1091 756 1091 639 c 0,14,15
 1091 512 1091 512 1045 398 c 128,-1,16
 999 284 999 284 920 195 c 128,-1,17
 841 106 841 106 738 50 c 0,18,19
 610 -20 610 -20 467 -20 c 0,0,1
481 149 m 0,20,21
 588 149 588 149 667.5 201.5 c 128,-1,22
 747 254 747 254 799 341 c 128,-1,23
 851 428 851 428 876 535 c 0,24,25
 890 597 890 597 890 657 c 0,26,27
 890 761 890 761 837.5 822 c 128,-1,28
 785 883 785 883 671 883 c 0,29,30
 565 883 565 883 485.5 830 c 128,-1,31
 406 777 406 777 353.5 690 c 128,-1,32
 301 603 301 603 277 496 c 0,33,34
 262 430 262 430 262 374 c 0,35,36
 262 271 262 271 315 210 c 128,-1,37
 368 149 368 149 481 149 c 0,20,21
EndSplineSet
Substitution2: "Single Substitution lookup 3 subtable" ordmasculine
Substitution2: "Single Substitution lookup 2 subtable" ordmasculine
EndChar

StartChar: p
Encoding: 112 112 83
Width: 1188
GlyphClass: 1
Flags: W
LayerCount: 2
Fore
SplineSet
145 -438 m 1,0,-1
 -59 -438 l 1,1,-1
 286 1039 l 1,2,-1
 486 1039 l 1,3,-1
 460 927 l 1,4,5
 593 1060 593 1060 787 1060 c 0,6,7
 898 1060 898 1060 972.5 1010.5 c 128,-1,8
 1047 961 1047 961 1084.5 874.5 c 128,-1,9
 1122 788 1122 788 1122 677 c 0,10,11
 1122 571 1122 571 1089 456 c 128,-1,12
 1056 341 1056 341 992 239 c 0,13,14
 920 124 920 124 811.5 52 c 128,-1,15
 703 -20 703 -20 566 -20 c 0,16,17
 461 -20 461 -20 390 20 c 128,-1,18
 319 60 319 60 285 127 c 1,19,-1
 145 -438 l 1,0,-1
531 155 m 0,20,21
 631 155 631 155 707.5 206.5 c 128,-1,22
 784 258 784 258 835.5 344.5 c 128,-1,23
 887 431 887 431 911 539 c 0,24,25
 927 605 927 605 927 665 c 0,26,27
 927 730 927 730 906 780 c 128,-1,28
 885 830 885 830 841 858.5 c 128,-1,29
 797 887 797 887 724 887 c 0,30,31
 627 887 627 887 551 834.5 c 128,-1,32
 475 782 475 782 423.5 695 c 128,-1,33
 372 608 372 608 348 501 c 0,34,35
 333 438 333 438 333 375 c 0,36,37
 333 310 333 310 353 260.5 c 128,-1,38
 373 211 373 211 416.5 183 c 128,-1,39
 460 155 460 155 531 155 c 0,20,21
EndSplineSet
EndChar

StartChar: q
Encoding: 113 113 84
Width: 1183
GlyphClass: 1
Flags: W
LayerCount: 2
Fore
SplineSet
796 -438 m 1,0,-1
 592 -438 l 1,1,-1
 730 113 l 1,2,3
 592 -20 592 -20 402 -20 c 0,4,5
 290 -20 290 -20 216 30 c 128,-1,6
 142 80 142 80 105 166 c 128,-1,7
 68 252 68 252 68 363 c 0,8,9
 68 466 68 466 99.5 581.5 c 128,-1,10
 131 697 131 697 197 801 c 0,11,12
 269 916 269 916 377.5 988 c 128,-1,13
 486 1060 486 1060 622 1060 c 0,14,15
 726 1060 726 1060 797 1021 c 128,-1,16
 868 982 868 982 904 913 c 1,17,-1
 942 1039 l 1,18,-1
 1140 1039 l 1,19,-1
 796 -438 l 1,0,-1
463 155 m 0,20,21
 562 155 562 155 637.5 206 c 128,-1,22
 713 257 713 257 764 343.5 c 128,-1,23
 815 430 815 430 839 539 c 0,24,25
 854 602 854 602 854 667 c 256,26,27
 854 732 854 732 834 781 c 128,-1,28
 814 830 814 830 770 858 c 128,-1,29
 726 886 726 886 656 886 c 0,30,31
 556 886 556 886 479.5 833 c 128,-1,32
 403 780 403 780 352.5 693 c 128,-1,33
 302 606 302 606 279 501 c 0,34,35
 264 438 264 438 264 375 c 0,36,37
 264 310 264 310 284 260.5 c 128,-1,38
 304 211 304 211 348 183 c 128,-1,39
 392 155 392 155 463 155 c 0,20,21
EndSplineSet
EndChar

StartChar: r
Encoding: 114 114 85
Width: 842
GlyphClass: 1
Flags: W
LayerCount: 2
Fore
SplineSet
243 0 m 1,0,-1
 46 0 l 1,1,-1
 284 1039 l 1,2,-1
 480 1039 l 1,3,-1
 442 865 l 1,4,5
 498 963 498 963 585.5 1008.5 c 128,-1,6
 673 1054 673 1054 736 1054 c 256,7,8
 799 1054 799 1054 852 1038 c 128,-1,9
 905 1022 905 1022 939 993 c 1,10,-1
 830 842 l 1,11,12
 778 881 778 881 708 881 c 0,13,14
 582 881 582 881 487 763.5 c 128,-1,15
 392 646 392 646 347 455 c 2,16,-1
 243 0 l 1,0,-1
EndSplineSet
EndChar

StartChar: s
Encoding: 115 115 86
Width: 910
GlyphClass: 1
Flags: W
LayerCount: 2
Fore
SplineSet
376 -20 m 0,0,1
 314 -20 314 -20 250 -2.5 c 128,-1,2
 186 15 186 15 133.5 49.5 c 128,-1,3
 81 84 81 84 45 136 c 128,-1,4
 9 188 9 188 1 257 c 1,5,-1
 175 318 l 1,6,7
 180 275 180 275 199 242.5 c 128,-1,8
 218 210 218 210 246 188.5 c 128,-1,9
 274 167 274 167 310 156.5 c 128,-1,10
 346 146 346 146 386 146 c 0,11,12
 423 146 423 146 461 157.5 c 128,-1,13
 499 169 499 169 530 191 c 128,-1,14
 561 213 561 213 580.5 246 c 128,-1,15
 600 279 600 279 600 322 c 0,16,17
 600 360 600 360 582 383 c 128,-1,18
 564 406 564 406 534 422 c 128,-1,19
 504 438 504 438 465.5 449 c 128,-1,20
 427 460 427 460 386 472 c 0,21,22
 344 486 344 486 303 504.5 c 128,-1,23
 262 523 262 523 230 552 c 128,-1,24
 198 581 198 581 178 624 c 128,-1,25
 158 667 158 667 158 730 c 0,26,27
 158 812 158 812 190 872.5 c 128,-1,28
 222 933 222 933 275 973 c 128,-1,29
 328 1013 328 1013 396.5 1033.5 c 128,-1,30
 465 1054 465 1054 536 1054 c 0,31,32
 592 1054 592 1054 646.5 1042 c 128,-1,33
 701 1030 701 1030 748 1004 c 128,-1,34
 795 978 795 978 831.5 937.5 c 128,-1,35
 868 897 868 897 888 841 c 1,36,-1
 723 770 l 1,37,38
 713 805 713 805 693.5 830 c 128,-1,39
 674 855 674 855 647.5 870 c 128,-1,40
 621 885 621 885 590.5 892.5 c 128,-1,41
 560 900 560 900 527 900 c 256,42,43
 494 900 494 900 461.5 892.5 c 128,-1,44
 429 885 429 885 403 868.5 c 128,-1,45
 377 852 377 852 361 825 c 128,-1,46
 345 798 345 798 345 759 c 0,47,48
 345 727 345 727 360.5 705 c 128,-1,49
 376 683 376 683 402 667.5 c 128,-1,50
 428 652 428 652 462 641 c 128,-1,51
 496 630 496 630 533 618 c 0,52,53
 579 603 579 603 625 583 c 128,-1,54
 671 563 671 563 708 532.5 c 128,-1,55
 745 502 745 502 768.5 455.5 c 128,-1,56
 792 409 792 409 792 341 c 0,57,58
 792 256 792 256 755 189 c 128,-1,59
 718 122 718 122 659 75.5 c 128,-1,60
 600 29 600 29 526 4.5 c 128,-1,61
 452 -20 452 -20 376 -20 c 0,0,1
EndSplineSet
Substitution2: "'hist' Historical Forms lookup 18 subtable" longs
Substitution2: "'aalt' Access All Alternates lookup 0 subtable" longs
EndChar

StartChar: t
Encoding: 116 116 87
Width: 733
GlyphClass: 1
Flags: W
LayerCount: 2
Fore
SplineSet
375 -20 m 0,0,1
 253 -20 253 -20 195.5 40 c 128,-1,2
 138 100 138 100 138 197 c 0,3,4
 138 246 138 246 149 293 c 2,5,-1
 278 878 l 1,6,-1
 119 878 l 1,7,-1
 156 1039 l 1,8,-1
 317 1039 l 1,9,-1
 372 1251 l 1,10,-1
 604 1391 l 1,11,-1
 511 1039 l 1,12,-1
 780 1039 l 1,13,-1
 741 878 l 1,14,-1
 473 878 l 1,15,-1
 339 289 l 2,16,17
 332 259 332 259 331 235 c 0,18,19
 331 146 331 146 424 146 c 0,20,21
 485 146 485 146 562 182 c 1,22,-1
 532 2 l 1,23,24
 506 -7 506 -7 463 -13.5 c 128,-1,25
 420 -20 420 -20 375 -20 c 0,0,1
EndSplineSet
EndChar

StartChar: u
Encoding: 117 117 88
Width: 1175
GlyphClass: 1
Flags: W
LayerCount: 2
Fore
SplineSet
391 -23 m 0,0,1
 242 -23 242 -23 170.5 62.5 c 128,-1,2
 99 148 99 148 99 289 c 0,3,4
 99 359 99 359 116 435 c 2,5,-1
 250 1039 l 1,6,-1
 451 1039 l 1,7,-1
 309 415 l 2,8,9
 293 347 293 347 293 304 c 0,10,11
 293 154 293 154 440 154 c 0,12,13
 514 154 514 154 589 190.5 c 128,-1,14
 664 227 664 227 722.5 303 c 128,-1,15
 781 379 781 379 809 494 c 2,16,-1
 932 1039 l 1,17,-1
 1135 1039 l 1,18,-1
 897 0 l 1,19,-1
 698 0 l 1,20,-1
 731 137 l 1,21,22
 670 68 670 68 580.5 22.5 c 128,-1,23
 491 -23 491 -23 391 -23 c 0,0,1
EndSplineSet
EndChar

StartChar: v
Encoding: 118 118 89
Width: 1006
GlyphClass: 1
Flags: W
LayerCount: 2
Fore
SplineSet
467 0 m 1,0,-1
 298 0 l 1,1,-1
 139 1039 l 1,2,-1
 347 1039 l 1,3,-1
 436 261 l 1,4,-1
 890 1039 l 1,5,-1
 1111 1039 l 1,6,-1
 467 0 l 1,0,-1
EndSplineSet
EndChar

StartChar: w
Encoding: 119 119 90
Width: 1492
GlyphClass: 1
Flags: W
LayerCount: 2
Fore
SplineSet
398 -2 m 1,0,-1
 217 -2 l 1,1,-1
 156 1039 l 1,2,-1
 360 1039 l 1,3,-1
 381 291 l 1,4,-1
 773 1039 l 1,5,-1
 952 1039 l 1,6,-1
 995 293 l 1,7,-1
 1366 1039 l 1,8,-1
 1583 1039 l 1,9,-1
 1038 0 l 1,10,-1
 850 0 l 1,11,-1
 805 768 l 1,12,-1
 398 -2 l 1,0,-1
EndSplineSet
EndChar

StartChar: x
Encoding: 120 120 91
Width: 1020
GlyphClass: 1
Flags: W
LayerCount: 2
Fore
SplineSet
859 0 m 1,0,-1
 621 0 l 1,1,-1
 478 373 l 1,2,-1
 161 0 l 1,3,-1
 -90 0 l 1,4,-1
 386 524 l 1,5,-1
 155 1039 l 1,6,-1
 395 1039 l 1,7,-1
 539 674 l 1,8,-1
 855 1039 l 1,9,-1
 1104 1039 l 1,10,-1
 630 524 l 1,11,-1
 859 0 l 1,0,-1
EndSplineSet
EndChar

StartChar: y
Encoding: 121 121 92
Width: 1042
GlyphClass: 1
Flags: W
LayerCount: 2
Fore
SplineSet
228 -430 m 1,0,-1
 11 -430 l 1,1,-1
 300 27 l 1,2,-1
 140 1039 l 1,3,-1
 350 1039 l 1,4,-1
 450 259 l 1,5,-1
 917 1039 l 1,6,-1
 1141 1039 l 1,7,-1
 228 -430 l 1,0,-1
EndSplineSet
EndChar

StartChar: z
Encoding: 122 122 93
Width: 1010
GlyphClass: 1
Flags: W
LayerCount: 2
Fore
SplineSet
808 0 m 1,0,-1
 -55 0 l 1,1,-1
 -25 136 l 1,2,-1
 754 878 l 1,3,-1
 176 878 l 1,4,-1
 213 1039 l 1,5,-1
 1047 1039 l 1,6,-1
 1015 892 l 1,7,-1
 256 164 l 1,8,-1
 848 164 l 1,9,-1
 808 0 l 1,0,-1
EndSplineSet
EndChar

StartChar: braceleft
Encoding: 123 123 94
Width: 611
GlyphClass: 1
Flags: W
LayerCount: 2
Fore
SplineSet
338 -136 m 1,0,-1
 266 -136 l 2,1,2
 156 -136 156 -136 122 -29 c 1,3,4
 104 -8 104 -8 104 37 c 0,5,6
 104 75 104 75 116 124 c 0,7,8
 202 497 202 497 202 506 c 0,9,10
 202 537 202 537 177.5 556.5 c 128,-1,11
 153 576 153 576 100 597 c 1,12,-1
 120 733 l 1,13,14
 269 775 269 775 292 886 c 2,15,-1
 391 1313 l 2,16,17
 417 1432 417 1432 482.5 1485.5 c 128,-1,18
 548 1539 548 1539 662 1539 c 0,19,20
 758 1539 758 1539 779 1537 c 1,21,-1
 763 1414 l 1,22,23
 726 1422 726 1422 689 1422 c 0,24,25
 635 1422 635 1422 606 1406 c 128,-1,26
 577 1390 577 1390 571 1364 c 2,27,-1
 455 856 l 1,28,29
 430 721 430 721 245 648 c 1,30,31
 301 626 301 626 335 589.5 c 128,-1,32
 369 553 369 553 369 505 c 0,33,34
 369 488 369 488 282 113 c 0,35,36
 275 84 275 84 275 58 c 0,37,38
 275 -18 275 -18 358 -18 c 0,39,40
 386 -18 386 -18 423 -7 c 1,41,-1
 406 -134 l 1,42,-1
 338 -136 l 1,0,-1
EndSplineSet
EndChar

StartChar: bar
Encoding: 124 124 95
Width: 625
GlyphClass: 1
Flags: W
LayerCount: 2
Fore
SplineSet
151 -512 m 1,0,-1
 8 -512 l 1,1,-1
 481 1534 l 1,2,-1
 624 1534 l 1,3,-1
 151 -512 l 1,0,-1
EndSplineSet
EndChar

StartChar: braceright
Encoding: 125 125 96
Width: 611
GlyphClass: 1
Flags: W
LayerCount: 2
Fore
SplineSet
63 -136 m 2,0,-1
 -9 -136 l 1,1,-1
 -75 -134 l 1,2,-1
 -59 -12 l 1,3,4
 -36 -18 -36 -18 -10 -18 c 0,5,6
 57 -18 57 -18 98 23.5 c 128,-1,7
 139 65 139 65 154 130 c 2,8,-1
 237 492 l 2,9,10
 258 597 258 597 437 663 c 1,11,12
 318 720 318 720 318 823 c 0,13,14
 318 846 318 846 324 873 c 0,15,16
 442 1381 442 1381 444 1395 c 0,17,18
 444 1411 444 1411 428 1416.5 c 128,-1,19
 412 1422 412 1422 373 1422 c 0,20,21
 337 1422 337 1422 282 1411 c 1,22,-1
 298 1537 l 1,23,24
 320 1539 320 1539 414 1539 c 0,25,26
 602 1539 602 1539 602 1378 c 0,27,28
 602 1339 602 1339 592 1296 c 2,29,-1
 493 869 l 2,30,31
 488 850 488 850 488 828 c 0,32,33
 488 754 488 754 585 727 c 1,34,-1
 566 591 l 1,35,36
 501 569 501 569 455.5 541 c 128,-1,37
 410 513 410 513 401 471 c 2,38,-1
 317 107 l 2,39,40
 293 -5 293 -5 251 -60 c 1,41,42
 209 -98 209 -98 164.5 -117 c 128,-1,43
 120 -136 120 -136 63 -136 c 2,0,-1
EndSplineSet
EndChar

StartChar: asciitilde
Encoding: 126 126 97
Width: 1162
GlyphClass: 1
Flags: W
LayerCount: 2
Fore
SplineSet
739 379 m 0,0,1
 672 379 672 379 625.5 401.5 c 128,-1,2
 579 424 579 424 523 464 c 0,3,4
 484 493 484 493 459 506 c 128,-1,5
 434 519 434 519 405 519 c 0,6,7
 359 519 359 519 342.5 491.5 c 128,-1,8
 326 464 326 464 326 414 c 2,9,-1
 326 406 l 1,10,-1
 194 406 l 1,11,12
 194 522 194 522 248.5 586.5 c 128,-1,13
 303 651 303 651 403 651 c 0,14,15
 459 651 459 651 502 638.5 c 128,-1,16
 545 626 545 626 574.5 608.5 c 128,-1,17
 604 591 604 591 639 565.5 c 128,-1,18
 674 540 674 540 696 528 c 128,-1,19
 718 516 718 516 745 516 c 0,20,21
 795 516 795 516 812 547 c 128,-1,22
 829 578 829 578 829 645 c 1,23,-1
 969 645 l 1,24,25
 969 515 969 515 910.5 447 c 128,-1,26
 852 379 852 379 739 379 c 0,0,1
EndSplineSet
EndChar

StartChar: exclamdown
Encoding: 161 161 99
Width: 635
GlyphClass: 1
Flags: W
LayerCount: 2
Fore
SplineSet
495 773 m 1,0,-1
 266 773 l 1,1,-1
 317 999 l 1,2,-1
 546 999 l 1,3,-1
 495 773 l 1,0,-1
203 -435 m 1,4,-1
 -1 -435 l 1,5,-1
 266 597 l 1,6,-1
 413 597 l 1,7,-1
 203 -435 l 1,4,-1
EndSplineSet
EndChar

StartChar: cent
Encoding: 162 162 100
Width: 1131
GlyphClass: 1
Flags: W
LayerCount: 2
Fore
SplineSet
504 -205 m 1,0,-1
 359 -205 l 1,1,-1
 411 -17 l 1,2,3
 313 -1 313 -1 250 50.5 c 128,-1,4
 187 102 187 102 157.5 180.5 c 128,-1,5
 128 259 128 259 128 353 c 0,6,7
 128 445 128 445 156 548 c 128,-1,8
 184 651 184 651 242 746 c 0,9,10
 304 849 304 849 403.5 921.5 c 128,-1,11
 503 994 503 994 636 1015 c 1,12,-1
 685 1200 l 1,13,-1
 828 1200 l 1,14,-1
 779 1013 l 1,15,16
 899 993 899 993 967.5 919 c 128,-1,17
 1036 845 1036 845 1060 731 c 1,18,-1
 871 676 l 1,19,20
 864 851 864 851 690 851 c 0,21,22
 594 851 594 851 521 798.5 c 128,-1,23
 448 746 448 746 400 661.5 c 128,-1,24
 352 577 352 577 329 479 c 0,25,26
 314 409 314 409 314 355 c 0,27,28
 314 260 314 260 359 202 c 128,-1,29
 404 144 404 144 503 144 c 0,30,31
 599 144 599 144 672.5 197 c 128,-1,32
 746 250 746 250 789 336 c 1,33,-1
 941 251 l 1,34,35
 802 16 802 16 551 -20 c 1,36,-1
 504 -205 l 1,0,-1
EndSplineSet
EndChar

StartChar: sterling
Encoding: 163 163 101
Width: 1224
GlyphClass: 1
Flags: W
LayerCount: 2
Fore
SplineSet
1064 0 m 1,0,-1
 36 0 l 1,1,-1
 71 151 l 1,2,3
 305 282 305 282 368 433 c 0,4,5
 405 516 405 516 405 627 c 1,6,-1
 182 627 l 1,7,-1
 221 785 l 1,8,-1
 405 785 l 1,9,10
 396 841 396 841 396 896 c 0,11,12
 396 1035 396 1035 455 1160 c 128,-1,13
 514 1285 514 1285 631 1365 c 0,14,15
 742 1439 742 1439 885 1439 c 0,16,17
 984 1439 984 1439 1058 1396.5 c 128,-1,18
 1132 1354 1132 1354 1177 1285 c 128,-1,19
 1222 1216 1222 1216 1234 1133 c 1,20,-1
 1072 1093 l 1,21,22
 1058 1180 1058 1180 1002 1226 c 128,-1,23
 946 1272 946 1272 871 1272 c 0,24,25
 771 1272 771 1272 700.5 1217 c 128,-1,26
 630 1162 630 1162 593 1073.5 c 128,-1,27
 556 985 556 985 556 884 c 0,28,29
 556 835 556 835 565 785 c 1,30,-1
 1044 785 l 1,31,-1
 1005 627 l 1,32,-1
 565 627 l 1,33,34
 565 478 565 478 511 355 c 128,-1,35
 457 232 457 232 336 162 c 1,36,-1
 1102 167 l 1,37,-1
 1064 0 l 1,0,-1
EndSplineSet
EndChar

StartChar: currency
Encoding: 164 164 102
Width: 1152
GlyphClass: 1
Flags: W
LayerCount: 2
Fore
SplineSet
870 149 m 1,0,-1
 787 251 l 1,1,2
 656 170 656 170 517 170 c 0,3,4
 446 170 446 170 380.5 192.5 c 128,-1,5
 315 215 315 215 263 261 c 1,6,-1
 128 149 l 1,7,-1
 41 264 l 1,8,-1
 176 374 l 1,9,10
 138 452 138 452 138 542 c 0,11,12
 138 633 138 633 177 726.5 c 128,-1,13
 216 820 216 820 293 900 c 1,14,-1
 213 995 l 1,15,-1
 345 1111 l 1,16,-1
 425 1009 l 1,17,18
 556 1091 556 1091 697 1091 c 0,19,20
 768 1091 768 1091 833 1068.5 c 128,-1,21
 898 1046 898 1046 950 1000 c 1,22,-1
 1082 1109 l 1,23,-1
 1171 999 l 1,24,-1
 1039 889 l 1,25,26
 1076 814 1076 814 1076 721 c 0,27,28
 1076 630 1076 630 1037.5 535.5 c 128,-1,29
 999 441 999 441 922 359 c 1,30,-1
 1003 264 l 1,31,-1
 870 149 l 1,0,-1
525 328 m 0,32,33
 650 328 650 328 782 430 c 0,34,35
 853 488 853 488 890.5 563.5 c 128,-1,36
 928 639 928 639 928 711 c 0,37,38
 928 781 928 781 897 830.5 c 128,-1,39
 866 880 866 880 814 906.5 c 128,-1,40
 762 933 762 933 698 933 c 0,41,42
 605 933 605 933 499 872 c 128,-1,43
 393 811 393 811 333 701 c 0,44,45
 294 624 294 624 294 548 c 0,46,47
 294 445 294 445 360.5 386.5 c 128,-1,48
 427 328 427 328 525 328 c 0,32,33
EndSplineSet
EndChar

StartChar: yen
Encoding: 165 165 103
Width: 1317
GlyphClass: 1
Flags: W
LayerCount: 2
Fore
SplineSet
631 0 m 1,0,-1
 457 0 l 1,1,-1
 514 249 l 1,2,-1
 215 249 l 1,3,-1
 248 397 l 1,4,-1
 547 397 l 1,5,-1
 576 515 l 1,6,-1
 277 515 l 1,7,-1
 311 664 l 1,8,-1
 543 664 l 1,9,-1
 241 1413 l 1,10,-1
 443 1413 l 1,11,-1
 707 727 l 1,12,-1
 1292 1413 l 1,13,-1
 1502 1413 l 1,14,-1
 856 663 l 1,15,-1
 1083 663 l 1,16,-1
 1050 515 l 1,17,-1
 750 515 l 1,18,-1
 721 397 l 1,19,-1
 1021 397 l 1,20,-1
 988 249 l 1,21,-1
 688 249 l 1,22,-1
 631 0 l 1,0,-1
EndSplineSet
EndChar

StartChar: brokenbar
Encoding: 166 166 104
Width: 633
GlyphClass: 1
Flags: W
LayerCount: 2
Fore
SplineSet
446 731 m 1,0,-1
 294 731 l 1,1,-1
 466 1475 l 1,2,-1
 618 1475 l 1,3,-1
 446 731 l 1,0,-1
206 -307 m 1,4,-1
 55 -307 l 1,5,-1
 223 420 l 1,6,-1
 374 420 l 1,7,-1
 206 -307 l 1,4,-1
EndSplineSet
EndChar

StartChar: section
Encoding: 167 167 105
Width: 1119
GlyphClass: 1
Flags: W
LayerCount: 2
Fore
SplineSet
459 -18 m 256,0,1
 360 -18 360 -18 277 13.5 c 128,-1,2
 194 45 194 45 144.5 111 c 128,-1,3
 95 177 95 177 93 279 c 1,4,-1
 284 319 l 1,5,6
 284 227 284 227 331.5 185 c 128,-1,7
 379 143 379 143 481 143 c 0,8,9
 579 143 579 143 652.5 181.5 c 128,-1,10
 726 220 726 220 744 302 c 0,11,12
 747 314 747 314 747 325 c 0,13,14
 747 361 747 361 720 383.5 c 128,-1,15
 693 406 693 406 652.5 418.5 c 128,-1,16
 612 431 612 431 540 447 c 0,17,18
 440 470 440 470 380 493.5 c 128,-1,19
 320 517 320 517 282 558 c 0,20,21
 239 602 239 602 239 676 c 0,22,23
 239 739 239 739 274 811.5 c 128,-1,24
 309 884 309 884 391 952 c 1,25,26
 337 1005 337 1005 337 1087 c 0,27,28
 337 1161 337 1161 370 1222.5 c 128,-1,29
 403 1284 403 1284 458.5 1329.5 c 128,-1,30
 514 1375 514 1375 583 1401 c 0,31,32
 672 1434 672 1434 765 1434 c 0,33,34
 905 1434 905 1434 989.5 1369.5 c 128,-1,35
 1074 1305 1074 1305 1096 1204 c 1,36,-1
 921 1144 l 1,37,38
 911 1277 911 1277 747 1277 c 0,39,40
 658 1277 658 1277 588.5 1231.5 c 128,-1,41
 519 1186 519 1186 500 1110 c 0,42,43
 498 1103 498 1103 498 1089 c 0,44,45
 498 1056 498 1056 524 1035.5 c 128,-1,46
 550 1015 550 1015 588 1004 c 128,-1,47
 626 993 626 993 696 978 c 0,48,49
 796 957 796 957 858 933.5 c 128,-1,50
 920 910 920 910 962 867 c 0,51,52
 1006 821 1006 821 1006 743 c 0,53,54
 1006 711 1006 711 997 670 c 0,55,56
 968 552 968 552 860 466 c 1,57,58
 911 419 911 419 911 335 c 0,59,60
 911 253 911 253 876 188 c 128,-1,61
 841 123 841 123 782 78.5 c 128,-1,62
 723 34 723 34 651 11 c 0,63,64
 558 -18 558 -18 459 -18 c 256,0,1
692 552 m 1,65,66
 815 598 815 598 838 706 c 0,67,68
 841 720 841 720 841 731 c 0,69,70
 841 773 841 773 810.5 798 c 128,-1,71
 780 823 780 823 737.5 835.5 c 128,-1,72
 695 848 695 848 623 863 c 2,73,-1
 558 877 l 1,74,75
 497 853 497 853 459 809 c 128,-1,76
 421 765 421 765 408 714 c 0,77,78
 406 707 406 707 406 693 c 0,79,80
 406 624 406 624 512 594 c 0,81,82
 532 588 532 588 692 552 c 1,65,66
EndSplineSet
EndChar

StartChar: copyright
Encoding: 169 169 107
Width: 1790
GlyphClass: 1
Flags: W
LayerCount: 2
Fore
SplineSet
943 -50 m 0,0,1
 797 -50 797 -50 670 -1.5 c 128,-1,2
 543 47 543 47 443 131.5 c 128,-1,3
 343 216 343 216 277 328 c 0,4,5
 174 501 174 501 174 707 c 0,6,7
 174 850 174 850 223 974.5 c 128,-1,8
 272 1099 272 1099 357.5 1197 c 128,-1,9
 443 1295 443 1295 557 1361 c 0,10,11
 734 1463 734 1463 943 1463 c 0,12,13
 1089 1463 1089 1463 1215.5 1414.5 c 128,-1,14
 1342 1366 1342 1366 1441.5 1281.5 c 128,-1,15
 1541 1197 1541 1197 1608 1086 c 0,16,17
 1711 912 1711 912 1711 707 c 0,18,19
 1711 563 1711 563 1662 438.5 c 128,-1,20
 1613 314 1613 314 1527 215.5 c 128,-1,21
 1441 117 1441 117 1328 52 c 0,22,23
 1152 -50 1152 -50 943 -50 c 0,0,1
943 102 m 0,24,25
 1115 102 1115 102 1254 186.5 c 128,-1,26
 1393 271 1393 271 1476 407 c 0,27,28
 1560 546 1560 546 1560 707 c 0,29,30
 1560 819 1560 819 1520 918.5 c 128,-1,31
 1480 1018 1480 1018 1410 1096.5 c 128,-1,32
 1340 1175 1340 1175 1249 1229 c 0,33,34
 1107 1311 1107 1311 943 1311 c 0,35,36
 828 1311 828 1311 726.5 1272 c 128,-1,37
 625 1233 625 1233 544.5 1164.5 c 128,-1,38
 464 1096 464 1096 410 1007 c 0,39,40
 326 868 326 868 326 707 c 0,41,42
 326 538 326 538 412 401.5 c 128,-1,43
 498 265 498 265 636 185 c 0,44,45
 778 102 778 102 943 102 c 0,24,25
960 283 m 0,46,47
 837 283 837 283 755 340.5 c 128,-1,48
 673 398 673 398 631.5 494 c 128,-1,49
 590 590 590 590 590 705 c 0,50,51
 590 815 590 815 629.5 911 c 128,-1,52
 669 1007 669 1007 751 1066.5 c 128,-1,53
 833 1126 833 1126 960 1126 c 0,54,55
 1077 1126 1077 1126 1159.5 1069.5 c 128,-1,56
 1242 1013 1242 1013 1289 911 c 1,57,-1
 1149 852 l 1,58,59
 1089 974 1089 974 960 974 c 0,60,61
 850 974 850 974 794.5 898 c 128,-1,62
 739 822 739 822 739 705 c 256,63,64
 739 588 739 588 793.5 513 c 128,-1,65
 848 438 848 438 958 438 c 0,66,67
 1089 438 1089 438 1147 560 c 1,68,-1
 1289 500 l 1,69,70
 1237 390 1237 390 1153.5 336.5 c 128,-1,71
 1070 283 1070 283 960 283 c 0,46,47
EndSplineSet
EndChar

StartChar: ordfeminine
Encoding: 170 170 108
Width: 899
GlyphClass: 2
Flags: W
LayerCount: 2
Fore
SplineSet
426 709 m 0,0,1
 342 709 342 709 282 756 c 128,-1,2
 222 803 222 803 222 888 c 0,3,4
 222 909 222 909 229 942 c 0,5,6
 255 1046 255 1046 338 1091.5 c 128,-1,7
 421 1137 421 1137 538 1137 c 1,8,-1
 749 1146 l 1,9,10
 757 1186 757 1186 757 1213 c 0,11,12
 757 1318 757 1318 644 1318 c 0,13,14
 522 1318 522 1318 424 1206 c 1,15,-1
 330 1290 l 1,16,17
 403 1365 403 1365 476.5 1399.5 c 128,-1,18
 550 1434 550 1434 643 1434 c 0,19,20
 763 1434 763 1434 823 1374 c 128,-1,21
 883 1314 883 1314 883 1221 c 0,22,23
 883 1189 883 1189 873 1142 c 2,24,-1
 776 723 l 1,25,-1
 662 723 l 1,26,-1
 683 817 l 1,27,28
 628 762 628 762 566.5 735.5 c 128,-1,29
 505 709 505 709 426 709 c 0,0,1
455 827 m 0,30,31
 518 827 518 827 574 858.5 c 128,-1,32
 630 890 630 890 669 937 c 128,-1,33
 708 984 708 984 723 1032 c 1,34,-1
 533 1023 l 2,35,36
 474 1023 474 1023 425 992.5 c 128,-1,37
 376 962 376 962 362 905 c 1,38,-1
 361 893 l 2,39,40
 361 863 361 863 390 845 c 128,-1,41
 419 827 419 827 455 827 c 0,30,31
EndSplineSet
EndChar

StartChar: guillemotleft
Encoding: 171 171 109
Width: 964
GlyphClass: 1
Flags: W
LayerCount: 2
Fore
SplineSet
367 171 m 1,0,-1
 47 511 l 1,1,-1
 520 851 l 1,2,-1
 481 666 l 1,3,-1
 257 511 l 1,4,-1
 406 356 l 1,5,-1
 367 171 l 1,0,-1
731 171 m 1,6,-1
 410 511 l 1,7,-1
 884 851 l 1,8,-1
 845 666 l 1,9,-1
 619 511 l 1,10,-1
 770 356 l 1,11,-1
 731 171 l 1,6,-1
EndSplineSet
EndChar

StartChar: logicalnot
Encoding: 172 172 110
Width: 1296
GlyphClass: 1
Flags: W
LayerCount: 2
Fore
SplineSet
1058 291 m 1,0,-1
 874 291 l 1,1,-1
 874 624 l 1,2,-1
 147 624 l 1,3,-1
 147 797 l 1,4,-1
 1058 797 l 1,5,-1
 1058 291 l 1,0,-1
EndSplineSet
EndChar

StartChar: uni00AD
Encoding: 173 173 111
Width: 995
GlyphClass: 1
Flags: W
LayerCount: 2
Fore
SplineSet
853 545 m 1,0,-1
 163 545 l 1,1,-1
 198 692 l 1,2,-1
 887 692 l 1,3,-1
 853 545 l 1,0,-1
EndSplineSet
EndChar

StartChar: registered
Encoding: 174 174 112
Width: 1790
GlyphClass: 1
Flags: W
LayerCount: 2
Fore
SplineSet
944 -48 m 0,0,1
 798 -48 798 -48 671 0.5 c 128,-1,2
 544 49 544 49 444 133.5 c 128,-1,3
 344 218 344 218 278 330 c 0,4,5
 175 503 175 503 175 709 c 0,6,7
 175 852 175 852 224 976.5 c 128,-1,8
 273 1101 273 1101 358.5 1199 c 128,-1,9
 444 1297 444 1297 558 1363 c 0,10,11
 735 1465 735 1465 944 1465 c 0,12,13
 1090 1465 1090 1465 1216.5 1416.5 c 128,-1,14
 1343 1368 1343 1368 1442.5 1283.5 c 128,-1,15
 1542 1199 1542 1199 1609 1088 c 0,16,17
 1712 914 1712 914 1712 709 c 0,18,19
 1712 565 1712 565 1663 440.5 c 128,-1,20
 1614 316 1614 316 1528 217.5 c 128,-1,21
 1442 119 1442 119 1329 54 c 0,22,23
 1153 -48 1153 -48 944 -48 c 0,0,1
944 96 m 0,24,25
 1119 96 1119 96 1260 181 c 128,-1,26
 1401 266 1401 266 1484 403 c 0,27,28
 1569 544 1569 544 1569 709 c 0,29,30
 1569 824 1569 824 1528.5 924.5 c 128,-1,31
 1488 1025 1488 1025 1417.5 1105 c 128,-1,32
 1347 1185 1347 1185 1255 1239 c 0,33,34
 1111 1322 1111 1322 944 1322 c 0,35,36
 827 1322 827 1322 724 1282.5 c 128,-1,37
 621 1243 621 1243 539.5 1173.5 c 128,-1,38
 458 1104 458 1104 403 1014 c 0,39,40
 318 873 318 873 318 709 c 0,41,42
 318 594 318 594 358.5 493 c 128,-1,43
 399 392 399 392 469.5 312 c 128,-1,44
 540 232 540 232 632 179 c 0,45,46
 776 96 776 96 944 96 c 0,24,25
1316 297 m 1,47,-1
 1141 297 l 1,48,-1
 967 622 l 1,49,-1
 837 622 l 1,50,-1
 837 297 l 1,51,-1
 686 297 l 1,52,-1
 686 1106 l 1,53,-1
 997 1106 l 2,54,55
 1137 1106 1137 1106 1203.5 1040 c 128,-1,56
 1270 974 1270 974 1270 864 c 0,57,58
 1270 769 1270 769 1226 714.5 c 128,-1,59
 1182 660 1182 660 1115 640 c 1,60,-1
 1316 297 l 1,47,-1
997 762 m 2,61,62
 1129 762 1129 762 1129 857 c 2,63,-1
 1129 864 l 2,64,65
 1129 920 1129 920 1098 942.5 c 128,-1,66
 1067 965 1067 965 997 965 c 2,67,-1
 827 965 l 1,68,-1
 827 762 l 1,69,-1
 997 762 l 2,61,62
EndSplineSet
EndChar

StartChar: degree
Encoding: 176 176 114
Width: 891
GlyphClass: 1
Flags: W
LayerCount: 2
Fore
SplineSet
445 848 m 0,0,1
 360 848 360 848 294 889 c 128,-1,2
 228 930 228 930 190 997 c 128,-1,3
 152 1064 152 1064 152 1141 c 0,4,5
 152 1227 152 1227 193.5 1293 c 128,-1,6
 235 1359 235 1359 302 1396.5 c 128,-1,7
 369 1434 369 1434 445 1434 c 0,8,9
 529 1434 529 1434 595 1393 c 128,-1,10
 661 1352 661 1352 699 1285.5 c 128,-1,11
 737 1219 737 1219 737 1141 c 0,12,13
 737 1056 737 1056 696 990 c 128,-1,14
 655 924 655 924 588.5 886 c 128,-1,15
 522 848 522 848 445 848 c 0,0,1
445 974 m 256,16,17
 514 974 514 974 563 1023 c 128,-1,18
 612 1072 612 1072 612 1141 c 0,19,20
 612 1213 612 1213 561 1260 c 128,-1,21
 510 1307 510 1307 445 1307 c 0,22,23
 373 1307 373 1307 325.5 1256.5 c 128,-1,24
 278 1206 278 1206 278 1141 c 0,25,26
 278 1072 278 1072 327 1023 c 128,-1,27
 376 974 376 974 445 974 c 256,16,17
EndSplineSet
EndChar

StartChar: plusminus
Encoding: 177 177 115
Width: 1329
GlyphClass: 1
Flags: W
LayerCount: 2
Fore
SplineSet
738 106 m 1,0,-1
 591 106 l 1,1,-1
 591 552 l 1,2,-1
 134 552 l 1,3,-1
 134 699 l 1,4,-1
 591 699 l 1,5,-1
 591 1143 l 1,6,-1
 738 1143 l 1,7,-1
 738 699 l 1,8,-1
 1194 699 l 1,9,-1
 1194 552 l 1,10,-1
 738 552 l 1,11,-1
 738 106 l 1,0,-1
1193 -147 m 1,12,-1
 135 -147 l 1,13,-1
 135 0 l 1,14,-1
 1193 0 l 1,15,-1
 1193 -147 l 1,12,-1
EndSplineSet
EndChar

StartChar: twosuperior
Encoding: 178 178 116
Width: 809
GlyphClass: 2
Flags: W
LayerCount: 2
Fore
SplineSet
660 486 m 1,0,-1
 -24 486 l 1,1,-1
 0 618 l 1,2,3
 223 735 223 735 389 870 c 1,4,5
 596 1020 596 1020 631 1164 c 0,6,7
 636 1184 636 1184 636 1208 c 0,8,9
 636 1253 636 1253 608 1278.5 c 128,-1,10
 580 1304 580 1304 524 1304 c 0,11,12
 463 1304 463 1304 416 1275.5 c 128,-1,13
 369 1247 369 1247 336.5 1199.5 c 128,-1,14
 304 1152 304 1152 287 1092 c 1,15,-1
 159 1112 l 1,16,17
 182 1207 182 1207 235.5 1281 c 128,-1,18
 289 1355 289 1355 367.5 1398 c 128,-1,19
 446 1441 446 1441 544 1441 c 0,20,21
 662 1441 662 1441 726 1382 c 128,-1,22
 790 1323 790 1323 790 1231 c 0,23,24
 790 1117 790 1117 705 1006 c 128,-1,25
 620 895 620 895 467 775 c 1,26,27
 338 680 338 680 214 617 c 1,28,-1
 690 621 l 1,29,-1
 660 486 l 1,0,-1
EndSplineSet
EndChar

StartChar: threesuperior
Encoding: 179 179 117
Width: 831
GlyphClass: 2
Flags: W
LayerCount: 2
Fore
SplineSet
330 464 m 0,0,1
 248 464 248 464 181.5 489.5 c 128,-1,2
 115 515 115 515 75.5 566.5 c 128,-1,3
 36 618 36 618 36 696 c 0,4,5
 36 734 36 734 45 772 c 1,6,-1
 188 770 l 1,7,8
 182 746 182 746 182 729 c 0,9,10
 182 665 182 665 228.5 633.5 c 128,-1,11
 275 602 275 602 344 602 c 0,12,13
 431 602 431 602 504 647.5 c 128,-1,14
 577 693 577 693 599 774 c 0,15,16
 604 792 604 792 604 811 c 0,17,18
 604 867 604 867 559.5 892.5 c 128,-1,19
 515 918 515 918 446 918 c 2,20,-1
 362 918 l 1,21,-1
 390 1054 l 1,22,-1
 467 1054 l 2,23,24
 532 1054 532 1054 581.5 1089.5 c 128,-1,25
 631 1125 631 1125 650 1190 c 0,26,27
 654 1206 654 1206 654 1220 c 0,28,29
 654 1265 654 1265 618.5 1287.5 c 128,-1,30
 583 1310 583 1310 529 1310 c 0,31,32
 453 1310 453 1310 396.5 1268.5 c 128,-1,33
 340 1227 340 1227 322 1164 c 1,34,-1
 202 1184 l 1,35,36
 235 1314 235 1314 333.5 1382 c 128,-1,37
 432 1450 432 1450 551 1450 c 0,38,39
 660 1450 660 1450 729.5 1395 c 128,-1,40
 799 1340 799 1340 799 1246 c 0,41,42
 799 1170 799 1170 754.5 1102 c 128,-1,43
 710 1034 710 1034 631 991 c 1,44,45
 688 966 688 966 716 920.5 c 128,-1,46
 744 875 744 875 744 815 c 0,47,48
 744 738 744 738 712.5 674.5 c 128,-1,49
 681 611 681 611 628 565.5 c 128,-1,50
 575 520 575 520 510 496 c 0,51,52
 425 464 425 464 330 464 c 0,0,1
EndSplineSet
EndChar

StartChar: uni00B5
Encoding: 181 181 119
Width: 1345
GlyphClass: 1
Flags: W
LayerCount: 2
Fore
SplineSet
241 -266 m 1,0,-1
 67 -266 l 1,1,-1
 369 1039 l 1,2,-1
 567 1039 l 1,3,-1
 424 413 l 2,4,5
 408 350 408 350 408 293 c 0,6,7
 408 151 408 151 547 151 c 0,8,9
 632 151 632 151 711.5 196 c 128,-1,10
 791 241 791 241 847.5 310.5 c 128,-1,11
 904 380 904 380 922 457 c 2,12,-1
 1055 1039 l 1,13,-1
 1252 1039 l 1,14,-1
 1014 0 l 1,15,-1
 816 0 l 1,16,-1
 850 128 l 1,17,18
 792 66 792 66 702.5 21.5 c 128,-1,19
 613 -23 613 -23 514 -23 c 0,20,21
 414 -23 414 -23 337 23 c 1,22,-1
 241 -266 l 1,0,-1
EndSplineSet
EndChar

StartChar: paragraph
Encoding: 182 182 120
Width: 1313
GlyphClass: 1
Flags: W
LayerCount: 2
Fore
SplineSet
529 -246 m 1,0,-1
 377 -246 l 1,1,-1
 584 623 l 1,2,3
 485 623 485 623 399.5 660 c 128,-1,4
 314 697 314 697 262 768 c 128,-1,5
 210 839 210 839 210 942 c 0,6,7
 210 1043 210 1043 252 1126.5 c 128,-1,8
 294 1210 294 1210 364.5 1271.5 c 128,-1,9
 435 1333 435 1333 523 1368 c 0,10,11
 635 1413 635 1413 754 1413 c 2,12,-1
 912 1413 l 1,13,-1
 529 -246 l 1,0,-1
890 -246 m 1,14,-1
 737 -246 l 1,15,-1
 1120 1413 l 1,16,-1
 1273 1413 l 1,17,-1
 890 -246 l 1,14,-1
EndSplineSet
EndChar

StartChar: periodcentered
Encoding: 183 183 121
Width: 635
GlyphClass: 1
Flags: W
LayerCount: 2
Fore
SplineSet
369 677 m 0,0,1
 316 677 316 677 285 710.5 c 128,-1,2
 254 744 254 744 254 794 c 0,3,4
 254 862 254 862 300.5 905 c 128,-1,5
 347 948 347 948 408 948 c 0,6,7
 461 948 461 948 493 915 c 128,-1,8
 525 882 525 882 525 832 c 0,9,10
 525 764 525 764 477.5 720.5 c 128,-1,11
 430 677 430 677 369 677 c 0,0,1
EndSplineSet
EndChar

StartChar: cedilla
Encoding: 184 184 122
Width: 557
GlyphClass: 4
Flags: W
AnchorPoint: "Anchor-3" 37 -500 basemark 0
LayerCount: 2
Fore
SplineSet
35 -513 m 0,0,1
 -34 -513 -34 -513 -78.5 -473.5 c 128,-1,2
 -123 -434 -123 -434 -134 -378 c 1,3,-1
 -11 -341 l 1,4,5
 -6 -393 -6 -393 45 -393 c 0,6,7
 91 -393 91 -393 125 -362 c 0,8,9
 166 -325 166 -325 173 -271 c 1,10,11
 173 -236 173 -236 137.5 -211.5 c 128,-1,12
 102 -187 102 -187 28 -187 c 2,13,-1
 -34 -187 l 1,14,-1
 112 -1 l 1,15,-1
 247 -1 l 1,16,-1
 141 -110 l 1,17,18
 219 -118 219 -118 257 -159.5 c 128,-1,19
 295 -201 295 -201 295 -262 c 0,20,21
 295 -325 295 -325 261 -382.5 c 128,-1,22
 227 -440 227 -440 168 -476.5 c 128,-1,23
 109 -513 109 -513 35 -513 c 0,0,1
EndSplineSet
EndChar

StartChar: onesuperior
Encoding: 185 185 123
Width: 842
GlyphClass: 2
Flags: W
LayerCount: 2
Fore
SplineSet
462 486 m 1,0,-1
 310 486 l 1,1,-1
 493 1179 l 1,2,-1
 255 1179 l 1,3,-1
 301 1300 l 1,4,-1
 412 1300 l 2,5,6
 465 1300 465 1300 502.5 1330 c 128,-1,7
 540 1360 540 1360 552 1406 c 2,8,-1
 558 1428 l 1,9,-1
 710 1428 l 1,10,-1
 462 486 l 1,0,-1
EndSplineSet
EndChar

StartChar: ordmasculine
Encoding: 186 186 124
Width: 900
GlyphClass: 2
Flags: W
LayerCount: 2
Fore
SplineSet
511 711 m 0,0,1
 420 711 420 711 356.5 748.5 c 128,-1,2
 293 786 293 786 260 850.5 c 128,-1,3
 227 915 227 915 227 996 c 0,4,5
 227 1084 227 1084 259.5 1160 c 128,-1,6
 292 1236 292 1236 346.5 1294 c 128,-1,7
 401 1352 401 1352 469 1388 c 0,8,9
 556 1434 556 1434 654 1434 c 0,10,11
 745 1434 745 1434 808 1396.5 c 128,-1,12
 871 1359 871 1359 904 1294.5 c 128,-1,13
 937 1230 937 1230 937 1151 c 0,14,15
 937 1085 937 1085 913.5 1014.5 c 128,-1,16
 890 944 890 944 843 882 c 0,17,18
 784 805 784 805 699 758 c 128,-1,19
 614 711 614 711 511 711 c 0,0,1
517 837 m 0,20,21
 622 837 622 837 690.5 908.5 c 128,-1,22
 759 980 759 980 785 1091 c 0,23,24
 795 1136 795 1136 795 1168 c 0,25,26
 795 1231 795 1231 761 1270 c 128,-1,27
 727 1309 727 1309 650 1309 c 0,28,29
 543 1309 543 1309 474 1238 c 0,30,31
 425 1186 425 1186 397 1116 c 128,-1,32
 369 1046 369 1046 369 979 c 0,33,34
 369 837 369 837 517 837 c 0,20,21
EndSplineSet
EndChar

StartChar: guillemotright
Encoding: 187 187 125
Width: 965
GlyphClass: 1
Flags: W
LayerCount: 2
Fore
SplineSet
82 171 m 1,0,-1
 121 356 l 1,1,-1
 346 511 l 1,2,-1
 197 666 l 1,3,-1
 235 851 l 1,4,-1
 555 511 l 1,5,-1
 82 171 l 1,0,-1
445 171 m 1,6,-1
 484 356 l 1,7,-1
 708 511 l 1,8,-1
 560 666 l 1,9,-1
 598 851 l 1,10,-1
 919 511 l 1,11,-1
 445 171 l 1,6,-1
EndSplineSet
EndChar

StartChar: questiondown
Encoding: 191 191 126
Width: 1012
GlyphClass: 1
Flags: W
LayerCount: 2
Fore
SplineSet
690 773 m 1,0,-1
 461 773 l 1,1,-1
 512 999 l 1,2,-1
 741 999 l 1,3,-1
 690 773 l 1,0,-1
319 -434 m 0,4,5
 216 -434 216 -434 133.5 -400 c 128,-1,6
 51 -366 51 -366 2.5 -299.5 c 128,-1,7
 -46 -233 -46 -233 -46 -134 c 0,8,9
 -46 -70 -46 -70 -24.5 -0.5 c 128,-1,10
 -3 69 -3 69 33 119 c 0,11,12
 75 176 75 176 127 212 c 128,-1,13
 179 248 179 248 255 284 c 0,14,15
 326 318 326 318 364 347.5 c 128,-1,16
 402 377 402 377 413 422 c 2,17,-1
 454 601 l 1,18,-1
 624 601 l 1,19,-1
 578 403 l 2,20,21
 545 266 545 266 450 205 c 0,22,23
 403 174 403 174 339 142 c 0,24,25
 284 114 284 114 246 90 c 0,26,27
 161 37 161 37 134 -76 c 0,28,29
 127 -104 127 -104 127 -130 c 0,30,31
 127 -203 127 -203 182 -236 c 128,-1,32
 237 -269 237 -269 324 -269 c 0,33,34
 433 -269 433 -269 521.5 -207.5 c 128,-1,35
 610 -146 610 -146 641 -33 c 1,36,-1
 815 -50 l 1,37,38
 767 -236 767 -236 626.5 -335 c 128,-1,39
 486 -434 486 -434 319 -434 c 0,4,5
EndSplineSet
EndChar

StartChar: Aring
Encoding: 197 197 132
Width: 1329
GlyphClass: 1
Flags: W
LayerCount: 2
Fore
SplineSet
1170 0 m 1,0,-1
 963 0 l 1,1,-1
 925 307 l 1,2,-1
 329 307 l 1,3,-1
 150 0 l 1,4,-1
 -75 0 l 1,5,-1
 754 1336 l 1,6,7
 682 1387 682 1387 682 1482 c 0,8,9
 682 1555 682 1555 720.5 1612 c 128,-1,10
 759 1669 759 1669 817 1701.5 c 128,-1,11
 875 1734 875 1734 935 1734 c 0,12,13
 1017 1734 1017 1734 1068.5 1682 c 128,-1,14
 1120 1630 1120 1630 1120 1554 c 0,15,16
 1120 1533 1120 1533 1113 1500 c 0,17,18
 1079 1382 1079 1382 969 1328 c 1,19,-1
 1170 0 l 1,0,-1
876 1411 m 0,20,21
 932 1411 932 1411 970 1453 c 128,-1,22
 1008 1495 1008 1495 1008 1543 c 0,23,24
 1008 1578 1008 1578 986 1601 c 128,-1,25
 964 1624 964 1624 922 1624 c 0,26,27
 881 1624 881 1624 852 1603.5 c 128,-1,28
 823 1583 823 1583 807.5 1552.5 c 128,-1,29
 792 1522 792 1522 792 1492 c 0,30,31
 792 1455 792 1455 815.5 1433 c 128,-1,32
 839 1411 839 1411 876 1411 c 0,20,21
898 486 m 1,33,-1
 819 1126 l 1,34,-1
 440 486 l 1,35,-1
 898 486 l 1,33,-1
EndSplineSet
Position2: "'cpsp' Capital Spacing lookup 0 per glyph data 0" dx=5 dy=0 dh=10 dv=0
EndChar

StartChar: AE
Encoding: 198 198 133
Width: 1840
GlyphClass: 1
Flags: W
LayerCount: 2
Fore
SplineSet
1618 0 m 1,0,-1
 679 0 l 1,1,-1
 749 307 l 1,2,-1
 317 307 l 1,3,-1
 136 0 l 1,4,-1
 -75 0 l 1,5,-1
 792 1413 l 1,6,-1
 1944 1413 l 1,7,-1
 1905 1245 l 1,8,-1
 1158 1245 l 1,9,-1
 1053 792 l 1,10,-1
 1712 792 l 1,11,-1
 1672 621 l 1,12,-1
 1013 621 l 1,13,-1
 910 175 l 1,14,-1
 1658 175 l 1,15,-1
 1618 0 l 1,0,-1
788 474 m 1,16,-1
 966 1245 l 1,17,-1
 886 1245 l 1,18,-1
 418 474 l 1,19,-1
 788 474 l 1,16,-1
EndSplineSet
Position2: "'cpsp' Capital Spacing lookup 0 per glyph data 0" dx=5 dy=0 dh=10 dv=0
EndChar

StartChar: Ccedilla
Encoding: 199 199 134
Width: 1431
GlyphClass: 1
Flags: W
LayerCount: 2
Fore
SplineSet
534 -513 m 0,0,1
 465 -513 465 -513 420.5 -473.5 c 128,-1,2
 376 -434 376 -434 365 -378 c 1,3,-1
 488 -341 l 1,4,5
 493 -393 493 -393 544 -393 c 0,6,7
 590 -393 590 -393 624 -362 c 0,8,9
 665 -325 665 -325 672 -271 c 1,10,11
 672 -236 672 -236 636.5 -211.5 c 128,-1,12
 601 -187 601 -187 527 -187 c 2,13,-1
 465 -187 l 1,14,-1
 598 -18 l 1,15,16
 438 -5 438 -5 335 63.5 c 128,-1,17
 232 132 232 132 182 244 c 128,-1,18
 132 356 132 356 132 498 c 0,19,20
 132 638 132 638 178 793 c 128,-1,21
 224 948 224 948 313 1084 c 0,22,23
 420 1245 420 1245 587 1340.5 c 128,-1,24
 754 1436 754 1436 967 1436 c 0,25,26
 1100 1436 1100 1436 1211.5 1392 c 128,-1,27
 1323 1348 1323 1348 1396 1255 c 0,28,29
 1464 1165 1464 1165 1481 1037 c 1,30,-1
 1282 978 l 1,31,32
 1272 1122 1272 1122 1182.5 1189 c 128,-1,33
 1093 1256 1093 1256 946 1256 c 0,34,35
 787 1256 787 1256 667 1180 c 128,-1,36
 547 1104 547 1104 468.5 978 c 128,-1,37
 390 852 390 852 355 699 c 0,38,39
 332 601 332 601 332 515 c 0,40,41
 332 356 332 356 416 263.5 c 128,-1,42
 500 171 500 171 677 171 c 0,43,44
 835 171 835 171 954 243.5 c 128,-1,45
 1073 316 1073 316 1160 459 c 1,46,-1
 1331 363 l 1,47,48
 1211 184 1211 184 1057 91 c 128,-1,49
 903 -2 903 -2 731 -17 c 1,50,-1
 640 -110 l 1,51,52
 718 -118 718 -118 756 -159.5 c 128,-1,53
 794 -201 794 -201 794 -262 c 0,54,55
 794 -325 794 -325 760 -382.5 c 128,-1,56
 726 -440 726 -440 667 -476.5 c 128,-1,57
 608 -513 608 -513 534 -513 c 0,0,1
EndSplineSet
Position2: "'cpsp' Capital Spacing lookup 0 per glyph data 0" dx=5 dy=0 dh=10 dv=0
EndChar

StartChar: Eth
Encoding: 208 208 143
Width: 1430
GlyphClass: 1
Flags: W
LayerCount: 2
Fore
SplineSet
489 0 m 2,0,-1
 105 0 l 1,1,-1
 252 639 l 1,2,-1
 139 639 l 1,3,-1
 173 787 l 1,4,-1
 286 787 l 1,5,-1
 431 1413 l 1,6,-1
 805 1413 l 2,7,8
 1091 1413 1091 1413 1244 1283 c 128,-1,9
 1397 1153 1397 1153 1397 907 c 0,10,11
 1397 805 1397 805 1368 678 c 0,12,13
 1289 347 1289 347 1060 173.5 c 128,-1,14
 831 0 831 0 489 0 c 2,0,-1
494 181 m 2,15,16
 662 181 662 181 802.5 240.5 c 128,-1,17
 943 300 943 300 1040.5 420.5 c 128,-1,18
 1138 541 1138 541 1181 725 c 0,19,20
 1203 824 1203 824 1203 898 c 0,21,22
 1203 1073 1203 1073 1092.5 1153.5 c 128,-1,23
 982 1234 982 1234 772 1234 c 2,24,-1
 584 1234 l 1,25,-1
 481 787 l 1,26,-1
 862 787 l 1,27,-1
 828 639 l 1,28,-1
 447 639 l 1,29,-1
 341 181 l 1,30,-1
 494 181 l 2,15,16
EndSplineSet
Position2: "'cpsp' Capital Spacing lookup 0 per glyph data 0" dx=5 dy=0 dh=10 dv=0
EndChar

StartChar: multiply
Encoding: 215 215 150
Width: 1102
GlyphClass: 1
Flags: W
LayerCount: 2
Fore
SplineSet
228 198 m 1,0,-1
 124 301 l 1,1,-1
 447 625 l 1,2,-1
 133 939 l 1,3,-1
 237 1044 l 1,4,-1
 552 729 l 1,5,-1
 874 1051 l 1,6,-1
 978 948 l 1,7,-1
 656 625 l 1,8,-1
 970 311 l 1,9,-1
 866 206 l 1,10,-1
 552 521 l 1,11,-1
 228 198 l 1,0,-1
EndSplineSet
EndChar

StartChar: Oslash
Encoding: 216 216 151
Width: 1526
GlyphClass: 1
Flags: W
LayerCount: 2
Fore
SplineSet
655 -20 m 0,0,1
 477 -20 477 -20 354 51 c 1,2,-1
 312 0 l 1,3,-1
 153 0 l 1,4,-1
 258 128 l 1,5,6
 193 199 193 199 162.5 294.5 c 128,-1,7
 132 390 132 390 132 500 c 0,8,9
 132 642 132 642 177.5 795 c 128,-1,10
 223 948 223 948 312 1082 c 0,11,12
 420 1243 420 1243 587 1338.5 c 128,-1,13
 754 1434 754 1434 966 1434 c 0,14,15
 1146 1434 1146 1434 1267 1364 c 1,16,-1
 1307 1413 l 1,17,-1
 1465 1413 l 1,18,-1
 1363 1288 l 1,19,20
 1491 1148 1491 1148 1491 912 c 0,21,22
 1491 770 1491 770 1445 617.5 c 128,-1,23
 1399 465 1399 465 1310 332 c 0,24,25
 1202 171 1202 171 1034.5 75.5 c 128,-1,26
 867 -20 867 -20 655 -20 c 0,0,1
391 291 m 1,27,-1
 1139 1207 l 1,28,29
 1064 1250 1064 1250 947 1250 c 0,30,31
 790 1250 790 1250 670 1174 c 0,32,33
 545 1092 545 1092 468.5 965.5 c 128,-1,34
 392 839 392 839 358 688 c 0,35,36
 336 591 336 591 336 509 c 0,37,38
 336 376 336 376 391 291 c 1,27,-1
672 163 m 0,39,40
 831 163 831 163 953 240 c 0,41,42
 1078 321 1078 321 1154.5 447.5 c 128,-1,43
 1231 574 1231 574 1265 725 c 0,44,45
 1288 822 1288 822 1288 906 c 0,46,47
 1288 1039 1288 1039 1230 1125 c 1,48,-1
 481 207 l 1,49,50
 558 163 558 163 672 163 c 0,39,40
EndSplineSet
Position2: "'cpsp' Capital Spacing lookup 0 per glyph data 0" dx=5 dy=0 dh=10 dv=0
EndChar

StartChar: Thorn
Encoding: 222 222 157
Width: 1152
GlyphClass: 1
Flags: W
LayerCount: 2
Fore
SplineSet
278 0 m 1,0,-1
 85 0 l 1,1,-1
 411 1413 l 1,2,-1
 604 1413 l 1,3,-1
 558 1216 l 1,4,-1
 805 1216 l 2,5,6
 925 1216 925 1216 1005.5 1178 c 128,-1,7
 1086 1140 1086 1140 1126.5 1072.5 c 128,-1,8
 1167 1005 1167 1005 1167 914 c 0,9,10
 1167 835 1167 835 1137 747 c 128,-1,11
 1107 659 1107 659 1047 590 c 0,12,13
 964 499 964 499 849 457.5 c 128,-1,14
 734 416 734 416 601 416 c 2,15,-1
 373 416 l 1,16,-1
 278 0 l 1,0,-1
628 593 m 2,17,18
 761 593 761 593 849 652.5 c 128,-1,19
 937 712 937 712 967 832 c 0,20,21
 974 860 974 860 974 889 c 0,22,23
 974 1039 974 1039 745 1041 c 2,24,-1
 518 1041 l 1,25,-1
 414 593 l 1,26,-1
 628 593 l 2,17,18
EndSplineSet
Position2: "'cpsp' Capital Spacing lookup 0 per glyph data 0" dx=5 dy=0 dh=10 dv=0
EndChar

StartChar: germandbls
Encoding: 223 223 158
Width: 1208
GlyphClass: 1
Flags: W
LayerCount: 2
Fore
SplineSet
636 -18 m 0,0,1
 576 -18 576 -18 520 -4 c 128,-1,2
 464 10 464 10 401 37 c 1,3,-1
 506 202 l 1,4,5
 573 164 573 164 653 164 c 0,6,7
 707 164 707 164 758 190.5 c 128,-1,8
 809 217 809 217 842.5 261 c 128,-1,9
 876 305 876 305 876 358 c 0,10,11
 876 399 876 399 852 435 c 128,-1,12
 828 471 828 471 779 519 c 0,13,14
 724 574 724 574 694 620.5 c 128,-1,15
 664 667 664 667 664 729 c 0,16,17
 664 842 664 842 754 908 c 0,18,19
 782 929 782 929 825 954 c 0,20,21
 888 991 888 991 924.5 1025.5 c 128,-1,22
 961 1060 961 1060 972 1113 c 0,23,24
 976 1133 976 1133 976 1143 c 0,25,26
 976 1193 976 1193 933.5 1228 c 128,-1,27
 891 1263 891 1263 799 1263 c 0,28,29
 685 1263 685 1263 598 1188 c 128,-1,30
 511 1113 511 1113 471 951 c 2,31,-1
 248 0 l 1,32,-1
 48 0 l 1,33,-1
 276 969 l 2,34,35
 315 1129 315 1129 394 1232 c 128,-1,36
 473 1335 473 1335 579 1384.5 c 128,-1,37
 685 1434 685 1434 803 1434 c 0,38,39
 898 1434 898 1434 980 1398 c 128,-1,40
 1062 1362 1062 1362 1113 1295.5 c 128,-1,41
 1164 1229 1164 1229 1164 1138 c 0,42,43
 1164 1092 1164 1092 1151 1048 c 128,-1,44
 1138 1004 1138 1004 1112 968.5 c 128,-1,45
 1086 933 1086 933 1052 907.5 c 128,-1,46
 1018 882 1018 882 967 854 c 0,47,48
 911 823 911 823 883.5 798.5 c 128,-1,49
 856 774 856 774 849 742 c 2,50,-1
 847 728 l 2,51,52
 847 704 847 704 866 681 c 128,-1,53
 885 658 885 658 926 622 c 0,54,55
 993 565 993 565 1032 509 c 128,-1,56
 1071 453 1071 453 1071 372 c 0,57,58
 1071 314 1071 314 1048 251.5 c 128,-1,59
 1025 189 1025 189 977 134 c 0,60,61
 914 63 914 63 825.5 22.5 c 128,-1,62
 737 -18 737 -18 636 -18 c 0,0,1
EndSplineSet
EndChar

StartChar: ae
Encoding: 230 230 165
Width: 1725
GlyphClass: 1
Flags: W
LayerCount: 2
Fore
SplineSet
301 -20 m 0,0,1
 220 -20 220 -20 153.5 10 c 128,-1,2
 87 40 87 40 47.5 97 c 128,-1,3
 8 154 8 154 8 235 c 0,4,5
 8 271 8 271 18 312 c 0,6,7
 53 466 53 466 170.5 533.5 c 128,-1,8
 288 601 288 601 472 603 c 2,9,-1
 780 603 l 1,10,11
 794 671 794 671 794 724 c 0,12,13
 794 813 794 813 748 854 c 128,-1,14
 702 895 702 895 608 895 c 0,15,16
 518 895 518 895 439 849 c 128,-1,17
 360 803 360 803 305 738 c 1,18,-1
 177 861 l 1,19,20
 282 964 282 964 391.5 1010 c 128,-1,21
 501 1056 501 1056 630 1056 c 0,22,23
 760 1056 760 1056 836 1006 c 128,-1,24
 912 956 912 956 937 877 c 1,25,26
 1086 1052 1086 1052 1309 1052 c 0,27,28
 1499 1052 1499 1052 1584 952.5 c 128,-1,29
 1669 853 1669 853 1669 692 c 0,30,31
 1669 635 1669 635 1657.5 558.5 c 128,-1,32
 1646 482 1646 482 1629 456 c 1,33,-1
 914 456 l 1,34,35
 907 409 907 409 907 379 c 0,36,37
 907 283 907 283 956.5 224 c 128,-1,38
 1006 165 1006 165 1117 165 c 0,39,40
 1217 165 1217 165 1289 192 c 128,-1,41
 1361 219 1361 219 1427 277 c 1,42,-1
 1543 144 l 1,43,44
 1444 63 1444 63 1338 25.5 c 128,-1,45
 1232 -12 1232 -12 1101 -12 c 0,46,47
 999 -12 999 -12 930 17.5 c 128,-1,48
 861 47 861 47 820.5 98.5 c 128,-1,49
 780 150 780 150 766 218 c 1,50,51
 584 -20 584 -20 301 -20 c 0,0,1
1485 603 m 1,52,53
 1492 647 1492 647 1492 688 c 0,54,55
 1492 884 1492 884 1288 884 c 0,56,57
 1204 884 1204 884 1137 845 c 128,-1,58
 1070 806 1070 806 1022.5 742.5 c 128,-1,59
 975 679 975 679 950 603 c 1,60,-1
 1485 603 l 1,52,53
350 142 m 0,61,62
 440 142 440 142 523.5 190.5 c 128,-1,63
 607 239 607 239 665.5 310.5 c 128,-1,64
 724 382 724 382 744 456 c 1,65,-1
 460 456 l 2,66,67
 366 454 366 454 294.5 407 c 128,-1,68
 223 360 223 360 200 273 c 0,69,70
 197 260 197 260 197 250 c 0,71,72
 197 199 197 199 242.5 170.5 c 128,-1,73
 288 142 288 142 350 142 c 0,61,62
EndSplineSet
EndChar

StartChar: ccedilla
Encoding: 231 231 166
Width: 1015
GlyphClass: 1
Flags: W
LayerCount: 2
Fore
SplineSet
282 -513 m 0,0,1
 212 -513 212 -513 167 -473.5 c 128,-1,2
 122 -434 122 -434 110 -378 c 1,3,-1
 233 -339 l 1,4,5
 238 -393 238 -393 291 -393 c 0,6,7
 339 -393 339 -393 374 -361 c 0,8,9
 416 -323 416 -323 424 -267 c 1,10,11
 424 -231 424 -231 387.5 -205.5 c 128,-1,12
 351 -180 351 -180 274 -180 c 2,13,-1
 210 -180 l 1,14,-1
 350 -1 l 1,15,16
 202 28 202 28 133 133.5 c 128,-1,17
 64 239 64 239 64 382 c 0,18,19
 64 480 64 480 96 588.5 c 128,-1,20
 128 697 128 697 194 796 c 0,21,22
 243 871 243 871 312 929.5 c 128,-1,23
 381 988 381 988 467.5 1022 c 128,-1,24
 554 1056 554 1056 658 1056 c 0,25,26
 760 1056 760 1056 834.5 1019 c 128,-1,27
 909 982 909 982 956 917 c 128,-1,28
 1003 852 1003 852 1020 768 c 1,29,-1
 819 710 l 1,30,31
 816 797 816 797 765.5 838.5 c 128,-1,32
 715 880 715 880 638 880 c 0,33,34
 540 880 540 880 466 827 c 128,-1,35
 392 774 392 774 343.5 689 c 128,-1,36
 295 604 295 604 272 507 c 0,37,38
 258 443 258 443 257 385 c 0,39,40
 257 289 257 289 302.5 231 c 128,-1,41
 348 173 348 173 448 173 c 0,42,43
 542 173 542 173 618 226 c 128,-1,44
 694 279 694 279 735 362 c 1,45,-1
 898 272 l 1,46,47
 747 21 747 21 482 -6 c 1,48,-1
 391 -101 l 1,49,50
 470 -109 470 -109 508 -151.5 c 128,-1,51
 546 -194 546 -194 546 -256 c 0,52,53
 546 -320 546 -320 511.5 -379 c 128,-1,54
 477 -438 477 -438 417 -475.5 c 128,-1,55
 357 -513 357 -513 282 -513 c 0,0,1
EndSplineSet
EndChar

StartChar: eth
Encoding: 240 240 175
Width: 1194
GlyphClass: 1
Flags: W
LayerCount: 2
Fore
SplineSet
483 -16 m 0,0,1
 347 -16 347 -16 253.5 38.5 c 128,-1,2
 160 93 160 93 114 188 c 128,-1,3
 68 283 68 283 68 403 c 0,4,5
 68 483 68 483 85 555 c 0,6,7
 117 696 117 696 200.5 811 c 128,-1,8
 284 926 284 926 406.5 993 c 128,-1,9
 529 1060 529 1060 672 1060 c 0,10,11
 768 1060 768 1060 837 1030.5 c 128,-1,12
 906 1001 906 1001 941 955 c 1,13,14
 941 1151 941 1151 743 1276 c 1,15,-1
 620 1156 l 1,16,-1
 530 1213 l 1,17,-1
 645 1326 l 1,18,19
 592 1350 592 1350 502 1381 c 1,20,-1
 623 1514 l 1,21,22
 708 1482 708 1482 772 1450 c 1,23,-1
 865 1541 l 1,24,-1
 956 1487 l 1,25,-1
 866 1396 l 1,26,27
 1004 1295 1004 1295 1072 1158 c 128,-1,28
 1140 1021 1140 1021 1140 837 c 0,29,30
 1140 700 1140 700 1101 531 c 0,31,32
 1063 369 1063 369 976.5 245 c 128,-1,33
 890 121 890 121 763.5 52.5 c 128,-1,34
 637 -16 637 -16 483 -16 c 0,0,1
493 165 m 0,35,36
 599 165 599 165 682 220 c 128,-1,37
 765 275 765 275 820.5 363.5 c 128,-1,38
 876 452 876 452 900 556 c 0,39,40
 913 614 913 614 913 666 c 0,41,42
 913 736 913 736 889.5 790.5 c 128,-1,43
 866 845 866 845 816 876 c 128,-1,44
 766 907 766 907 687 907 c 0,45,46
 581 907 581 907 497.5 852 c 128,-1,47
 414 797 414 797 358.5 709 c 128,-1,48
 303 621 303 621 279 517 c 0,49,50
 267 462 267 462 267 401 c 256,51,52
 267 340 267 340 290 284.5 c 128,-1,53
 313 229 313 229 363 197 c 128,-1,54
 413 165 413 165 493 165 c 0,35,36
EndSplineSet
EndChar

StartChar: divide
Encoding: 247 247 182
Width: 1107
GlyphClass: 1
Flags: W
LayerCount: 2
Fore
SplineSet
666 870 m 1,0,-1
 437 870 l 1,1,-1
 437 1097 l 1,2,-1
 666 1097 l 1,3,-1
 666 870 l 1,0,-1
995 555 m 1,4,-1
 108 555 l 1,5,-1
 108 702 l 1,6,-1
 995 702 l 1,7,-1
 995 555 l 1,4,-1
666 142 m 1,8,-1
 437 142 l 1,9,-1
 437 369 l 1,10,-1
 666 369 l 1,11,-1
 666 142 l 1,8,-1
EndSplineSet
EndChar

StartChar: oslash
Encoding: 248 248 183
Width: 1151
GlyphClass: 1
Flags: W
LayerCount: 2
Fore
SplineSet
464 -20 m 0,0,1
 335 -20 335 -20 240 33 c 1,2,-1
 213 0 l 1,3,-1
 100 0 l 1,4,-1
 170 86 l 1,5,6
 115 144 115 144 87.5 222 c 128,-1,7
 60 300 60 300 60 391 c 0,8,9
 60 517 60 517 106.5 631 c 128,-1,10
 153 745 153 745 233 835.5 c 128,-1,11
 313 926 313 926 416 983 c 0,12,13
 544 1052 544 1052 688 1052 c 0,14,15
 815 1052 815 1052 909 1000 c 1,16,-1
 941 1039 l 1,17,-1
 1053 1039 l 1,18,-1
 979 948 l 1,19,20
 1035 891 1035 891 1063.5 812 c 128,-1,21
 1092 733 1092 733 1092 641 c 0,22,23
 1092 514 1092 514 1045.5 400 c 128,-1,24
 999 286 999 286 919 196 c 128,-1,25
 839 106 839 106 736 50 c 0,26,27
 608 -20 608 -20 464 -20 c 0,0,1
294 240 m 1,28,-1
 790 858 l 1,29,30
 743 883 743 883 671 883 c 0,31,32
 565 883 565 883 485.5 830 c 128,-1,33
 406 777 406 777 353.5 690 c 128,-1,34
 301 603 301 603 277 496 c 0,35,36
 261 425 261 425 261 374 c 0,37,38
 262 295 262 295 294 240 c 1,28,-1
481 149 m 0,39,40
 588 149 588 149 667.5 201.5 c 128,-1,41
 747 254 747 254 799 341 c 128,-1,42
 851 428 851 428 876 535 c 0,43,44
 891 601 891 601 891 658 c 0,45,46
 891 744 891 744 857 796 c 1,47,-1
 359 175 l 1,48,49
 408 149 408 149 481 149 c 0,39,40
EndSplineSet
EndChar

StartChar: thorn
Encoding: 254 254 189
Width: 1188
GlyphClass: 1
Flags: W
LayerCount: 2
Fore
SplineSet
138 -438 m 1,0,-1
 -54 -438 l 1,1,-1
 391 1413 l 1,2,-1
 583 1413 l 1,3,-1
 454 928 l 1,4,5
 589 1060 589 1060 785 1060 c 0,6,7
 897 1060 897 1060 971 1010.5 c 128,-1,8
 1045 961 1045 961 1081.5 875.5 c 128,-1,9
 1118 790 1118 790 1118 680 c 0,10,11
 1118 575 1118 575 1085 459 c 128,-1,12
 1052 343 1052 343 987 239 c 0,13,14
 915 124 915 124 807 52 c 128,-1,15
 699 -20 699 -20 563 -20 c 0,16,17
 455 -20 455 -20 384.5 20.5 c 128,-1,18
 314 61 314 61 279 126 c 1,19,-1
 138 -438 l 1,0,-1
538 144 m 0,20,21
 637 144 637 144 714 197 c 128,-1,22
 791 250 791 250 843.5 338.5 c 128,-1,23
 896 427 896 427 922 538 c 0,24,25
 938 607 938 607 938 667 c 0,26,27
 938 734 938 734 917 785 c 128,-1,28
 896 836 896 836 851 865 c 128,-1,29
 806 894 806 894 732 894 c 0,30,31
 631 894 631 894 553 841 c 128,-1,32
 475 788 475 788 422 699.5 c 128,-1,33
 369 611 369 611 344 501 c 0,34,35
 329 437 329 437 329 373 c 0,36,37
 329 306 329 306 350 254.5 c 128,-1,38
 371 203 371 203 417.5 173.5 c 128,-1,39
 464 144 464 144 538 144 c 0,20,21
EndSplineSet
EndChar

StartChar: Aogonek
Encoding: 260 260 195
Width: 1323
GlyphClass: 1
Flags: W
LayerCount: 2
Fore
SplineSet
947 -451 m 0,0,1
 863 -451 863 -451 814 -405 c 128,-1,2
 765 -359 765 -359 765 -283 c 0,3,4
 765 -191 765 -191 829 -118 c 0,5,6
 908 -33 908 -33 1000 0 c 1,7,-1
 952 0 l 1,8,-1
 914 307 l 1,9,-1
 327 307 l 1,10,-1
 147 0 l 1,11,-1
 -77 0 l 1,12,-1
 795 1413 l 1,13,-1
 949 1413 l 1,14,-1
 1167 0 l 1,15,-1
 1106 0 l 1,16,-1
 1170 -2 l 1,17,18
 1105 -26 1105 -26 1011 -86 c 128,-1,19
 917 -146 917 -146 895 -240 c 0,20,21
 891 -255 891 -255 891 -269 c 0,22,23
 891 -320 891 -320 945 -320 c 0,24,25
 1019 -320 1019 -320 1081 -253 c 1,26,-1
 1176 -341 l 1,27,28
 1081 -451 1081 -451 947 -451 c 0,0,1
887 486 m 1,29,-1
 810 1114 l 1,30,-1
 437 486 l 1,31,-1
 887 486 l 1,29,-1
EndSplineSet
Position2: "'cpsp' Capital Spacing lookup 0 per glyph data 0" dx=5 dy=0 dh=10 dv=0
EndChar

StartChar: dcaron
Encoding: 271 271 206
Width: 1373
GlyphClass: 1
Flags: W
LayerCount: 2
Fore
SplineSet
403 -20 m 0,0,1
 291 -20 291 -20 217 30 c 128,-1,2
 143 80 143 80 106 166 c 128,-1,3
 69 252 69 252 69 363 c 0,4,5
 69 479 69 479 103.5 593 c 128,-1,6
 138 707 138 707 198 801 c 0,7,8
 270 916 270 916 378.5 988 c 128,-1,9
 487 1060 487 1060 622 1060 c 0,10,11
 728 1060 728 1060 799 1020.5 c 128,-1,12
 870 981 870 981 905 913 c 1,13,-1
 1038 1413 l 1,14,-1
 1242 1413 l 1,15,-1
 903 0 l 1,16,-1
 700 0 l 1,17,-1
 731 113 l 1,18,19
 593 -20 593 -20 403 -20 c 0,0,1
1387 1030 m 1,20,-1
 1254 1030 l 1,21,-1
 1468 1413 l 1,22,-1
 1714 1413 l 1,23,-1
 1387 1030 l 1,20,-1
465 158 m 0,24,25
 564 158 564 158 639.5 208.5 c 128,-1,26
 715 259 715 259 765.5 344.5 c 128,-1,27
 816 430 816 430 840 539 c 0,28,29
 855 602 855 602 855 666 c 0,30,31
 855 763 855 763 808.5 823 c 128,-1,32
 762 883 762 883 656 883 c 0,33,34
 558 883 558 883 481.5 831 c 128,-1,35
 405 779 405 779 354 693 c 128,-1,36
 303 607 303 607 280 501 c 0,37,38
 265 438 265 438 265 376 c 0,39,40
 265 312 265 312 285 263 c 128,-1,41
 305 214 305 214 349.5 186 c 128,-1,42
 394 158 394 158 465 158 c 0,24,25
EndSplineSet
EndChar

StartChar: dcroat
Encoding: 273 273 208
Width: 1193
GlyphClass: 1
Flags: W
LayerCount: 2
Fore
SplineSet
403 -20 m 0,0,1
 291 -20 291 -20 217 30 c 128,-1,2
 143 80 143 80 106 166 c 128,-1,3
 69 252 69 252 69 363 c 0,4,5
 69 479 69 479 103.5 593 c 128,-1,6
 138 707 138 707 198 801 c 0,7,8
 270 916 270 916 378.5 988 c 128,-1,9
 487 1060 487 1060 622 1060 c 0,10,11
 728 1060 728 1060 799 1020.5 c 128,-1,12
 870 981 870 981 905 913 c 1,13,-1
 973 1169 l 1,14,-1
 687 1169 l 1,15,-1
 720 1308 l 1,16,-1
 1007 1308 l 1,17,-1
 1038 1413 l 1,18,-1
 1242 1413 l 1,19,-1
 1212 1308 l 1,20,-1
 1381 1308 l 1,21,-1
 1347 1169 l 1,22,-1
 1179 1169 l 1,23,-1
 903 0 l 1,24,-1
 712 0 l 1,25,-1
 732 113 l 1,26,27
 598 -20 598 -20 403 -20 c 0,0,1
465 158 m 0,28,29
 564 158 564 158 639.5 208.5 c 128,-1,30
 715 259 715 259 765.5 344.5 c 128,-1,31
 816 430 816 430 840 539 c 0,32,33
 855 602 855 602 855 666 c 0,34,35
 855 763 855 763 808.5 823 c 128,-1,36
 762 883 762 883 656 883 c 0,37,38
 558 883 558 883 481.5 831 c 128,-1,39
 405 779 405 779 354 693 c 128,-1,40
 303 607 303 607 280 501 c 0,41,42
 265 438 265 438 265 376 c 0,43,44
 265 312 265 312 285 263 c 128,-1,45
 305 214 305 214 349.5 186 c 128,-1,46
 394 158 394 158 465 158 c 0,28,29
EndSplineSet
EndChar

StartChar: Eogonek
Encoding: 280 280 215
Width: 1245
GlyphClass: 1
Flags: W
LayerCount: 2
Fore
SplineSet
789 -451 m 0,0,1
 705 -451 705 -451 656 -405 c 128,-1,2
 607 -359 607 -359 607 -283 c 0,3,4
 607 -191 607 -191 671 -118 c 0,5,6
 750 -33 750 -33 842 0 c 1,7,-1
 85 0 l 1,8,-1
 411 1413 l 1,9,-1
 1338 1413 l 1,10,-1
 1296 1231 l 1,11,-1
 572 1231 l 1,12,-1
 472 797 l 1,13,-1
 1120 797 l 1,14,-1
 1078 617 l 1,15,-1
 430 617 l 1,16,-1
 332 189 l 1,17,-1
 1055 189 l 1,18,-1
 1012 0 l 1,19,-1
 948 0 l 1,20,-1
 1012 -2 l 1,21,22
 947 -26 947 -26 853 -86 c 128,-1,23
 759 -146 759 -146 737 -240 c 0,24,25
 733 -255 733 -255 733 -269 c 0,26,27
 733 -320 733 -320 787 -320 c 0,28,29
 861 -320 861 -320 923 -253 c 1,30,-1
 1018 -341 l 1,31,32
 923 -451 923 -451 789 -451 c 0,0,1
EndSplineSet
Position2: "'cpsp' Capital Spacing lookup 0 per glyph data 0" dx=5 dy=0 dh=10 dv=0
EndChar

StartChar: eogonek
Encoding: 281 281 216
Width: 1068
GlyphClass: 1
Flags: W
LayerCount: 2
Fore
SplineSet
486 -405 m 0,0,1
 400 -405 400 -405 349.5 -359 c 128,-1,2
 299 -313 299 -313 299 -237 c 0,3,4
 299 -108 299 -108 428 -12 c 1,5,6
 303 -8 303 -8 222.5 42 c 128,-1,7
 142 92 142 92 102 178 c 128,-1,8
 62 264 62 264 62 375 c 0,9,10
 62 475 62 475 93.5 582.5 c 128,-1,11
 125 690 125 690 189 789 c 0,12,13
 238 865 238 865 306.5 924 c 128,-1,14
 375 983 375 983 460.5 1017.5 c 128,-1,15
 546 1052 546 1052 648 1052 c 0,16,17
 841 1052 841 1052 927.5 953 c 128,-1,18
 1014 854 1014 854 1014 691 c 0,19,20
 1014 600 1014 600 990 494 c 0,21,22
 985 473 985 473 975 447 c 1,23,-1
 264 447 l 1,24,25
 257 409 257 409 256 371 c 0,26,27
 256 280 256 280 306 222.5 c 128,-1,28
 356 165 356 165 464 165 c 0,29,30
 562 165 562 165 633.5 192 c 128,-1,31
 705 219 705 219 770 277 c 1,32,-1
 888 144 l 1,33,34
 769 47 769 47 639 12 c 1,35,36
 456 -80 456 -80 429 -194 c 0,37,38
 425 -209 425 -209 425 -223 c 0,39,40
 425 -274 425 -274 481 -274 c 0,41,42
 558 -274 558 -274 623 -207 c 1,43,-1
 721 -295 l 1,44,45
 624 -405 624 -405 486 -405 c 0,0,1
829 594 m 1,46,47
 837 638 837 638 837 686 c 0,48,49
 837 789 837 789 785.5 837 c 128,-1,50
 734 885 734 885 635 885 c 0,51,52
 514 885 514 885 427 802.5 c 128,-1,53
 340 720 340 720 300 594 c 1,54,-1
 829 594 l 1,46,47
EndSplineSet
EndChar

StartChar: uni0123
Encoding: 291 291 226
Width: 1056
GlyphClass: 1
Flags: W
LayerCount: 2
Fore
SplineSet
769 1151 m 1,0,-1
 524 1151 l 1,1,-1
 853 1428 l 1,2,-1
 985 1428 l 1,3,-1
 769 1151 l 1,0,-1
352 -436 m 0,4,5
 200 -436 200 -436 104 -379 c 128,-1,6
 8 -322 8 -322 -38 -223 c 1,7,-1
 131 -130 l 1,8,9
 154 -194 154 -194 212.5 -230.5 c 128,-1,10
 271 -267 271 -267 367 -267 c 0,11,12
 501 -267 501 -267 586 -191.5 c 128,-1,13
 671 -116 671 -116 701 8 c 2,14,-1
 732 125 l 1,15,16
 664 57 664 57 581 24 c 128,-1,17
 498 -9 498 -9 408 -9 c 0,18,19
 294 -9 294 -9 219 41 c 128,-1,20
 144 91 144 91 107 177 c 128,-1,21
 70 263 70 263 70 372 c 0,22,23
 70 477 70 477 102.5 590.5 c 128,-1,24
 135 704 135 704 197 803 c 0,25,26
 269 917 269 917 378 988.5 c 128,-1,27
 487 1060 487 1060 625 1060 c 0,28,29
 723 1060 723 1060 795.5 1021 c 128,-1,30
 868 982 868 982 904 913 c 1,31,-1
 938 1039 l 1,32,-1
 1140 1039 l 1,33,-1
 900 4 l 2,34,35
 869 -130 869 -130 796.5 -228.5 c 128,-1,36
 724 -327 724 -327 612.5 -381.5 c 128,-1,37
 501 -436 501 -436 352 -436 c 0,4,5
467 167 m 0,38,39
 565 167 565 167 640.5 218 c 128,-1,40
 716 269 716 269 766.5 354 c 128,-1,41
 817 439 817 439 841 545 c 0,42,43
 855 607 855 607 855 666 c 0,44,45
 855 731 855 731 835 780.5 c 128,-1,46
 815 830 815 830 771 858 c 128,-1,47
 727 886 727 886 656 886 c 0,48,49
 557 886 557 886 480.5 833.5 c 128,-1,50
 404 781 404 781 353.5 695.5 c 128,-1,51
 303 610 303 610 280 506 c 0,52,53
 265 439 265 439 265 385 c 0,54,55
 265 321 265 321 285.5 272 c 128,-1,56
 306 223 306 223 350.5 195 c 128,-1,57
 395 167 395 167 467 167 c 0,38,39
EndSplineSet
EndChar

StartChar: Hbar
Encoding: 294 294 229
Width: 1475
GlyphClass: 1
Flags: W
LayerCount: 2
Fore
SplineSet
1161 0 m 1,0,-1
 957 0 l 1,1,-1
 1099 617 l 1,2,-1
 430 617 l 1,3,-1
 288 0 l 1,4,-1
 85 0 l 1,5,-1
 329 1057 l 1,6,-1
 219 1057 l 1,7,-1
 245 1172 l 1,8,-1
 355 1172 l 1,9,-1
 411 1413 l 1,10,-1
 614 1413 l 1,11,-1
 558 1172 l 1,12,-1
 1227 1172 l 1,13,-1
 1283 1413 l 1,14,-1
 1487 1413 l 1,15,-1
 1431 1172 l 1,16,-1
 1538 1172 l 1,17,-1
 1512 1057 l 1,18,-1
 1405 1057 l 1,19,-1
 1161 0 l 1,0,-1
1141 797 m 1,20,-1
 1201 1057 l 1,21,-1
 532 1057 l 1,22,-1
 472 797 l 1,23,-1
 1141 797 l 1,20,-1
EndSplineSet
Position2: "'cpsp' Capital Spacing lookup 0 per glyph data 0" dx=5 dy=0 dh=10 dv=0
EndChar

StartChar: hbar
Encoding: 295 295 230
Width: 1177
GlyphClass: 1
Flags: W
LayerCount: 2
Fore
SplineSet
933 0 m 1,0,-1
 730 0 l 1,1,-1
 872 618 l 2,2,3
 887 682 887 682 887 735 c 0,4,5
 887 875 887 875 750 875 c 0,6,7
 663 875 663 875 584 829 c 128,-1,8
 505 783 505 783 450 712 c 128,-1,9
 395 641 395 641 378 564 c 2,10,-1
 249 0 l 1,11,-1
 47 0 l 1,12,-1
 314 1142 l 1,13,-1
 144 1142 l 1,14,-1
 177 1281 l 1,15,-1
 347 1281 l 1,16,-1
 385 1413 l 1,17,-1
 588 1413 l 1,18,-1
 549 1281 l 1,19,-1
 837 1281 l 1,20,-1
 804 1142 l 1,21,-1
 515 1142 l 1,22,-1
 452 905 l 1,23,24
 528 983 528 983 619 1019.5 c 128,-1,25
 710 1056 710 1056 795 1056 c 0,26,27
 943 1056 943 1056 1014.5 973.5 c 128,-1,28
 1086 891 1086 891 1086 758 c 0,29,30
 1086 697 1086 697 1070 624 c 2,31,-1
 933 0 l 1,0,-1
EndSplineSet
EndChar

StartChar: Iogonek
Encoding: 302 302 237
Width: 603
GlyphClass: 1
Flags: W
LayerCount: 2
Fore
SplineSet
65 -451 m 0,0,1
 -19 -451 -19 -451 -68 -405 c 128,-1,2
 -117 -359 -117 -359 -117 -283 c 0,3,4
 -117 -191 -117 -191 -53 -118 c 0,5,6
 26 -33 26 -33 118 0 c 1,7,-1
 85 0 l 1,8,-1
 411 1413 l 1,9,-1
 614 1413 l 1,10,-1
 288 0 l 1,11,-1
 224 0 l 1,12,-1
 288 -2 l 1,13,14
 223 -26 223 -26 129 -86 c 128,-1,15
 35 -146 35 -146 13 -240 c 0,16,17
 9 -255 9 -255 9 -269 c 0,18,19
 9 -320 9 -320 63 -320 c 0,20,21
 137 -320 137 -320 199 -253 c 1,22,-1
 294 -341 l 1,23,24
 199 -451 199 -451 65 -451 c 0,0,1
EndSplineSet
Position2: "'cpsp' Capital Spacing lookup 0 per glyph data 0" dx=5 dy=0 dh=10 dv=0
EndChar

StartChar: iogonek
Encoding: 303 303 238
Width: 534
GlyphClass: 1
Flags: W
LayerCount: 2
Fore
SplineSet
544 1205 m 1,0,-1
 324 1205 l 1,1,-1
 373 1413 l 1,2,-1
 594 1413 l 1,3,-1
 544 1205 l 1,0,-1
12 -451 m 0,4,5
 -74 -451 -74 -451 -124.5 -405 c 128,-1,6
 -175 -359 -175 -359 -175 -283 c 0,7,8
 -175 -191 -175 -191 -110 -118 c 0,9,10
 -30 -33 -30 -33 64 0 c 1,11,-1
 50 0 l 1,12,-1
 289 999 l 1,13,-1
 480 999 l 1,14,-1
 241 0 l 1,15,-1
 175 0 l 1,16,-1
 241 -2 l 1,17,18
 173 -26 173 -26 75.5 -86 c 128,-1,19
 -22 -146 -22 -146 -45 -240 c 0,20,21
 -49 -255 -49 -255 -49 -269 c 0,22,23
 -49 -320 -49 -320 7 -320 c 0,24,25
 84 -320 84 -320 149 -253 c 1,26,-1
 248 -341 l 1,27,28
 150 -451 150 -451 12 -451 c 0,4,5
EndSplineSet
EndChar

StartChar: dotlessi
Encoding: 305 305 240
Width: 510
GlyphClass: 2
Flags: W
LayerCount: 2
Fore
SplineSet
232 0 m 1,0,-1
 48 0 l 1,1,-1
 278 1039 l 1,2,-1
 462 1039 l 1,3,-1
 232 0 l 1,0,-1
EndSplineSet
EndChar

StartChar: kgreenlandic
Encoding: 312 312 247
Width: 1123
GlyphClass: 1
Flags: W
LayerCount: 2
Fore
SplineSet
987 0 m 1,0,-1
 753 0 l 1,1,-1
 563 517 l 1,2,-1
 318 303 l 1,3,-1
 246 0 l 1,4,-1
 46 0 l 1,5,-1
 284 1039 l 1,6,-1
 485 1039 l 1,7,-1
 369 547 l 1,8,-1
 913 1039 l 1,9,-1
 1175 1039 l 1,10,-1
 721 648 l 1,11,-1
 987 0 l 1,0,-1
EndSplineSet
EndChar

StartChar: Lcaron
Encoding: 317 317 252
Width: 1049
GlyphClass: 1
Flags: W
LayerCount: 2
Fore
SplineSet
891 0 m 1,0,-1
 83 0 l 1,1,-1
 409 1413 l 1,2,-1
 612 1413 l 1,3,-1
 330 189 l 1,4,-1
 934 189 l 1,5,-1
 891 0 l 1,0,-1
873 990 m 1,6,-1
 745 990 l 1,7,-1
 951 1413 l 1,8,-1
 1187 1413 l 1,9,-1
 873 990 l 1,6,-1
EndSplineSet
Position2: "'cpsp' Capital Spacing lookup 0 per glyph data 0" dx=5 dy=0 dh=10 dv=0
EndChar

StartChar: lcaron
Encoding: 318 318 253
Width: 726
GlyphClass: 1
Flags: W
LayerCount: 2
Fore
SplineSet
238 -20 m 0,0,1
 158 -20 158 -20 117.5 13.5 c 128,-1,2
 77 47 77 47 77 119 c 0,3,4
 77 158 77 158 89 209 c 2,5,-1
 370 1413 l 1,6,-1
 572 1413 l 1,7,8
 281 201 281 201 281 193 c 0,9,10
 281 152 281 152 327 152 c 0,11,12
 367 152 367 152 418 162 c 1,13,-1
 391 -2 l 1,14,15
 312 -20 312 -20 238 -20 c 0,0,1
740 990 m 1,16,-1
 606 990 l 1,17,-1
 821 1413 l 1,18,-1
 1066 1413 l 1,19,-1
 740 990 l 1,16,-1
EndSplineSet
EndChar

StartChar: Lslash
Encoding: 321 321 256
Width: 1074
GlyphClass: 1
Flags: W
LayerCount: 2
Fore
SplineSet
918 0 m 1,0,-1
 110 0 l 1,1,-1
 214 450 l 1,2,-1
 3 313 l 1,3,-1
 59 520 l 1,4,-1
 261 654 l 1,5,-1
 436 1413 l 1,6,-1
 639 1413 l 1,7,-1
 501 813 l 1,8,-1
 833 1033 l 1,9,-1
 775 815 l 1,10,-1
 453 606 l 1,11,-1
 357 189 l 1,12,-1
 961 189 l 1,13,-1
 918 0 l 1,0,-1
EndSplineSet
Position2: "'cpsp' Capital Spacing lookup 0 per glyph data 0" dx=5 dy=0 dh=10 dv=0
EndChar

StartChar: lslash
Encoding: 322 322 257
Width: 563
GlyphClass: 1
Flags: W
LayerCount: 2
Fore
SplineSet
240 -20 m 0,0,1
 159 -20 159 -20 118.5 13.5 c 128,-1,2
 78 47 78 47 78 120 c 0,3,4
 78 160 78 160 90 209 c 2,5,-1
 145 447 l 1,6,-1
 4 333 l 1,7,-1
 53 538 l 1,8,-1
 193 653 l 1,9,-1
 373 1413 l 1,10,-1
 574 1413 l 1,11,-1
 439 852 l 1,12,-1
 638 1010 l 1,13,-1
 589 805 l 1,14,-1
 389 646 l 1,15,16
 281 198 281 198 281 188 c 0,17,18
 281 149 281 149 333 149 c 0,19,20
 354 149 354 149 419 162 c 1,21,-1
 393 -2 l 1,22,23
 313 -20 313 -20 240 -20 c 0,0,1
EndSplineSet
EndChar

StartChar: Eng
Encoding: 330 330 265
Width: 1436
GlyphClass: 1
Flags: W
LayerCount: 2
Fore
SplineSet
739 -369 m 2,0,-1
 634 -369 l 1,1,-1
 660 -230 l 1,2,3
 739 -230 739 -230 790 -212 c 0,4,5
 847 -191 847 -191 879 -154 c 128,-1,6
 911 -117 911 -117 911 -74 c 0,7,8
 911 -59 911 -59 909 -51 c 2,9,-1
 542 1120 l 1,10,-1
 282 0 l 1,11,-1
 83 0 l 1,12,-1
 409 1412 l 1,13,-1
 643 1412 l 1,14,-1
 989 293 l 1,15,-1
 1250 1412 l 1,16,-1
 1447 1412 l 1,17,-1
 1118 -8 l 2,18,19
 1084 -156 1084 -156 1001 -262.5 c 128,-1,20
 918 -369 918 -369 739 -369 c 2,0,-1
EndSplineSet
Position2: "'cpsp' Capital Spacing lookup 0 per glyph data 0" dx=5 dy=0 dh=10 dv=0
EndChar

StartChar: eng
Encoding: 331 331 266
Width: 1172
GlyphClass: 1
Flags: W
LayerCount: 2
Fore
SplineSet
542 -369 m 2,0,-1
 431 -369 l 1,1,-1
 470 -206 l 1,2,-1
 531 -206 l 2,3,4
 681 -206 681 -206 721 -16 c 2,5,-1
 868 622 l 2,6,7
 884 692 884 692 884 739 c 0,8,9
 884 805 884 805 852.5 841 c 128,-1,10
 821 877 821 877 747 877 c 0,11,12
 662 877 662 877 583 833.5 c 128,-1,13
 504 790 504 790 449.5 722.5 c 128,-1,14
 395 655 395 655 376 580 c 2,15,-1
 244 8 l 1,16,-1
 46 8 l 1,17,-1
 284 1039 l 1,18,-1
 484 1039 l 1,19,-1
 447 903 l 1,20,21
 522 981 522 981 612.5 1018.5 c 128,-1,22
 703 1056 703 1056 787 1056 c 0,23,24
 936 1056 936 1056 1006.5 974.5 c 128,-1,25
 1077 893 1077 893 1077 762 c 0,26,27
 1077 691 1077 691 1061 624 c 2,28,-1
 899 -76 l 2,29,30
 884 -145 884 -145 853.5 -207 c 128,-1,31
 823 -269 823 -269 748 -319 c 128,-1,32
 673 -369 673 -369 542 -369 c 2,0,-1
EndSplineSet
EndChar

StartChar: OE
Encoding: 338 338 273
Width: 2253
GlyphClass: 1
Flags: W
LayerCount: 2
Fore
SplineSet
657 -20 m 0,0,1
 477 -20 477 -20 360.5 47 c 128,-1,2
 244 114 244 114 188 231.5 c 128,-1,3
 132 349 132 349 132 500 c 0,4,5
 132 642 132 642 177.5 795 c 128,-1,6
 223 948 223 948 312 1082 c 0,7,8
 420 1243 420 1243 587 1338.5 c 128,-1,9
 754 1434 754 1434 968 1434 c 0,10,11
 1134 1434 1134 1434 1234 1371.5 c 128,-1,12
 1334 1309 1334 1309 1374 1201 c 1,13,-1
 1427 1413 l 1,14,-1
 2346 1413 l 1,15,-1
 2304 1231 l 1,16,-1
 1589 1231 l 1,17,-1
 1488 797 l 1,18,-1
 2137 797 l 1,19,-1
 2095 617 l 1,20,-1
 1446 617 l 1,21,-1
 1348 189 l 1,22,-1
 2063 189 l 1,23,-1
 2020 0 l 1,24,-1
 1102 0 l 1,25,-1
 1151 198 l 1,26,27
 963 -20 963 -20 657 -20 c 0,0,1
675 169 m 0,28,29
 835 169 835 169 955.5 244 c 128,-1,30
 1076 319 1076 319 1154.5 444.5 c 128,-1,31
 1233 570 1233 570 1269 725 c 0,32,33
 1290 815 1290 815 1290 899 c 0,34,35
 1290 1056 1290 1056 1206.5 1150 c 128,-1,36
 1123 1244 1123 1244 948 1244 c 0,37,38
 787 1244 787 1244 666 1169 c 128,-1,39
 545 1094 545 1094 467 969 c 128,-1,40
 389 844 389 844 354 688 c 0,41,42
 332 592 332 592 332 512 c 0,43,44
 332 355 332 355 415 262 c 128,-1,45
 498 169 498 169 675 169 c 0,28,29
EndSplineSet
Position2: "'cpsp' Capital Spacing lookup 0 per glyph data 0" dx=5 dy=0 dh=10 dv=0
EndChar

StartChar: oe
Encoding: 339 339 274
Width: 1859
GlyphClass: 1
Flags: W
LayerCount: 2
Fore
SplineSet
468 -20 m 0,0,1
 336 -20 336 -20 245 34.5 c 128,-1,2
 154 89 154 89 107 182.5 c 128,-1,3
 60 276 60 276 60 392 c 0,4,5
 60 577 60 577 158 735.5 c 128,-1,6
 256 894 256 894 415 982 c 0,7,8
 543 1052 543 1052 689 1052 c 0,9,10
 822 1052 822 1052 908 997.5 c 128,-1,11
 994 943 994 943 1033 858 c 1,12,13
 1202 1052 1202 1052 1436 1052 c 0,14,15
 1565 1052 1565 1052 1646 1002 c 128,-1,16
 1727 952 1727 952 1765.5 866.5 c 128,-1,17
 1804 781 1804 781 1804 673 c 0,18,19
 1804 560 1804 560 1766 446 c 1,20,-1
 1053 446 l 1,21,22
 1047 410 1047 410 1047 378 c 0,23,24
 1047 285 1047 285 1097.5 226 c 128,-1,25
 1148 167 1148 167 1260 167 c 0,26,27
 1353 167 1353 167 1427 196 c 128,-1,28
 1501 225 1501 225 1572 289 c 1,29,-1
 1691 151 l 1,30,31
 1589 68 1589 68 1481 28 c 128,-1,32
 1373 -12 1373 -12 1244 -12 c 0,33,34
 1103 -12 1103 -12 1017 41 c 128,-1,35
 931 94 931 94 896 177 c 1,36,37
 812 84 812 84 704.5 32 c 128,-1,38
 597 -20 597 -20 468 -20 c 0,0,1
1619 594 m 1,39,40
 1626 638 1626 638 1626 681 c 0,41,42
 1626 785 1626 785 1575.5 834 c 128,-1,43
 1525 883 1525 883 1425 883 c 0,44,45
 1303 883 1303 883 1215.5 800.5 c 128,-1,46
 1128 718 1128 718 1089 594 c 1,47,-1
 1619 594 l 1,39,40
477 150 m 0,48,49
 633 150 633 150 733.5 258 c 128,-1,50
 834 366 834 366 872 535 c 0,51,52
 887 598 887 598 887 661 c 0,53,54
 887 761 887 761 836.5 821 c 128,-1,55
 786 881 786 881 671 881 c 0,56,57
 565 881 565 881 485.5 829 c 128,-1,58
 406 777 406 777 353.5 690.5 c 128,-1,59
 301 604 301 604 276 495 c 0,60,61
 260 430 260 430 260 370 c 0,62,63
 260 272 260 272 311 211 c 128,-1,64
 362 150 362 150 477 150 c 0,48,49
EndSplineSet
EndChar

StartChar: Scedilla
Encoding: 350 350 285
Width: 1126
GlyphClass: 1
Flags: W
LayerCount: 2
Fore
SplineSet
302 -513 m 0,0,1
 233 -513 233 -513 188.5 -473.5 c 128,-1,2
 144 -434 144 -434 133 -378 c 1,3,-1
 256 -341 l 1,4,5
 261 -393 261 -393 312 -393 c 0,6,7
 358 -393 358 -393 392 -362 c 0,8,9
 433 -325 433 -325 440 -271 c 1,10,11
 440 -236 440 -236 404.5 -211.5 c 128,-1,12
 369 -187 369 -187 295 -187 c 2,13,-1
 233 -187 l 1,14,-1
 377 -3 l 1,15,16
 282 16 282 16 206.5 66 c 128,-1,17
 131 116 131 116 86 196.5 c 128,-1,18
 41 277 41 277 41 388 c 1,19,-1
 246 424 l 1,20,21
 246 296 246 296 322 233 c 128,-1,22
 398 170 398 170 522 170 c 0,23,24
 661 170 661 170 741.5 240 c 128,-1,25
 822 310 822 310 822 416 c 0,26,27
 822 484 822 484 789 532 c 128,-1,28
 756 580 756 580 707 611.5 c 128,-1,29
 658 643 658 643 574 685 c 0,30,31
 478 733 478 733 419.5 774 c 128,-1,32
 361 815 361 815 324 875 c 0,33,34
 283 938 283 938 283 1031 c 0,35,36
 283 1151 283 1151 346.5 1242 c 128,-1,37
 410 1333 410 1333 515 1383.5 c 128,-1,38
 620 1434 620 1434 744 1434 c 0,39,40
 879 1434 879 1434 987 1373 c 128,-1,41
 1095 1312 1095 1312 1139 1192 c 1,42,-1
 968 1109 l 1,43,44
 945 1183 945 1183 882 1222 c 128,-1,45
 819 1261 819 1261 741 1261 c 0,46,47
 676 1261 676 1261 618.5 1234.5 c 128,-1,48
 561 1208 561 1208 525 1160 c 128,-1,49
 489 1112 489 1112 489 1048 c 0,50,51
 489 991 489 991 519.5 949.5 c 128,-1,52
 550 908 550 908 594.5 879.5 c 128,-1,53
 639 851 639 851 719 809 c 0,54,55
 821 757 821 757 882.5 712 c 128,-1,56
 944 667 944 667 985 603 c 0,57,58
 1028 533 1028 533 1028 433 c 0,59,60
 1028 296 1028 296 954.5 195 c 128,-1,61
 881 94 881 94 760.5 39 c 128,-1,62
 640 -16 640 -16 499 -16 c 1,63,-1
 408 -110 l 1,64,65
 486 -118 486 -118 524 -159.5 c 128,-1,66
 562 -201 562 -201 562 -262 c 0,67,68
 562 -325 562 -325 528 -382.5 c 128,-1,69
 494 -440 494 -440 435 -476.5 c 128,-1,70
 376 -513 376 -513 302 -513 c 0,0,1
EndSplineSet
Substitution2: "'locl' Localized Forms in Latin lookup 7 subtable" uni0218
Substitution2: "'locl' Localized Forms in Latin lookup 6 subtable" uni0218
Substitution2: "'aalt' Access All Alternates lookup 0 subtable" uni0218
Position2: "'cpsp' Capital Spacing lookup 0 per glyph data 0" dx=5 dy=0 dh=10 dv=0
EndChar

StartChar: scedilla
Encoding: 351 351 286
Width: 905
GlyphClass: 1
Flags: W
LayerCount: 2
Fore
SplineSet
231 -513 m 0,0,1
 161 -513 161 -513 116 -473.5 c 128,-1,2
 71 -434 71 -434 60 -378 c 1,3,-1
 187 -339 l 1,4,5
 192 -393 192 -393 243 -393 c 0,6,7
 289 -393 289 -393 324 -361 c 0,8,9
 365 -323 365 -323 372 -267 c 1,10,11
 372 -231 372 -231 336.5 -205.5 c 128,-1,12
 301 -180 301 -180 226 -180 c 2,13,-1
 164 -180 l 1,14,-1
 300 -2 l 1,15,16
 164 23 164 23 88 100 c 128,-1,17
 12 177 12 177 1 272 c 1,18,-1
 175 331 l 1,19,20
 183 261 183 261 236 212 c 128,-1,21
 289 163 289 163 384 163 c 0,22,23
 449 163 449 163 496 188 c 128,-1,24
 543 213 543 213 569 252.5 c 128,-1,25
 595 292 595 292 595 336 c 0,26,27
 595 378 595 378 571 404.5 c 128,-1,28
 547 431 547 431 511.5 446 c 128,-1,29
 476 461 476 461 414 479 c 0,30,31
 330 504 330 504 279 530.5 c 128,-1,32
 228 557 228 557 194 603 c 0,33,34
 158 652 158 652 158 736 c 0,35,36
 158 838 158 838 209.5 908.5 c 128,-1,37
 261 979 261 979 346.5 1016.5 c 128,-1,38
 432 1054 432 1054 534 1054 c 0,39,40
 669 1054 669 1054 759.5 994.5 c 128,-1,41
 850 935 850 935 883 842 c 1,42,-1
 718 773 l 1,43,44
 701 830 701 830 652 865 c 128,-1,45
 603 900 603 900 524 900 c 0,46,47
 448 900 448 900 396.5 864.5 c 128,-1,48
 345 829 345 829 345 761 c 0,49,50
 345 721 345 721 368.5 695 c 128,-1,51
 392 669 392 669 426 654 c 128,-1,52
 460 639 460 639 523 618 c 0,53,54
 609 591 609 591 662 562.5 c 128,-1,55
 715 534 715 534 750 486 c 0,56,57
 787 433 787 433 787 348 c 0,58,59
 787 255 787 255 738.5 179 c 128,-1,60
 690 103 690 103 610 54.5 c 128,-1,61
 530 6 530 6 431 -5 c 1,62,-1
 339 -101 l 1,63,64
 418 -109 418 -109 456 -151.5 c 128,-1,65
 494 -194 494 -194 494 -256 c 0,66,67
 494 -320 494 -320 459.5 -379 c 128,-1,68
 425 -438 425 -438 365.5 -475.5 c 128,-1,69
 306 -513 306 -513 231 -513 c 0,0,1
EndSplineSet
Substitution2: "'locl' Localized Forms in Latin lookup 7 subtable" uni0219
Substitution2: "'locl' Localized Forms in Latin lookup 6 subtable" uni0219
Substitution2: "'aalt' Access All Alternates lookup 0 subtable" uni0219
EndChar

StartChar: uni0163
Encoding: 355 355 290
Width: 730
GlyphClass: 1
Flags: W
LayerCount: 2
Fore
SplineSet
217 -513 m 0,0,1
 147 -513 147 -513 102 -473.5 c 128,-1,2
 57 -434 57 -434 46 -378 c 1,3,-1
 172 -341 l 1,4,5
 177 -393 177 -393 229 -393 c 0,6,7
 275 -393 275 -393 309 -362 c 0,8,9
 350 -325 350 -325 357 -271 c 1,10,11
 357 -236 357 -236 321.5 -211.5 c 128,-1,12
 286 -187 286 -187 212 -187 c 2,13,-1
 149 -187 l 1,14,-1
 287 -11 l 1,15,16
 210 10 210 10 174 64.5 c 128,-1,17
 138 119 138 119 138 197 c 0,18,19
 138 240 138 240 149 293 c 2,20,-1
 278 878 l 1,21,-1
 119 878 l 1,22,-1
 156 1039 l 1,23,-1
 317 1039 l 1,24,-1
 371 1251 l 1,25,-1
 599 1391 l 1,26,-1
 506 1039 l 1,27,-1
 775 1039 l 1,28,-1
 736 878 l 1,29,-1
 468 878 l 1,30,-1
 338 289 l 2,31,32
 331 259 331 259 331 235 c 0,33,34
 331 146 331 146 422 146 c 0,35,36
 482 146 482 146 557 180 c 1,37,-1
 527 2 l 1,38,39
 485 -13 485 -13 414 -18 c 1,40,-1
 324 -110 l 1,41,42
 403 -118 403 -118 441 -159.5 c 128,-1,43
 479 -201 479 -201 479 -262 c 0,44,45
 479 -325 479 -325 445 -382.5 c 128,-1,46
 411 -440 411 -440 351.5 -476.5 c 128,-1,47
 292 -513 292 -513 217 -513 c 0,0,1
EndSplineSet
EndChar

StartChar: tcaron
Encoding: 357 357 292
Width: 746
GlyphClass: 1
Flags: W
LayerCount: 2
Fore
SplineSet
789 1154 m 1,0,-1
 664 1154 l 1,1,-1
 895 1534 l 1,2,-1
 1132 1534 l 1,3,-1
 789 1154 l 1,0,-1
365 -20 m 0,4,5
 244 -20 244 -20 190.5 38.5 c 128,-1,6
 137 97 137 97 137 193 c 0,7,8
 137 240 137 240 149 293 c 2,9,-1
 276 869 l 1,10,-1
 116 869 l 1,11,-1
 156 1039 l 1,12,-1
 317 1039 l 1,13,-1
 372 1257 l 1,14,-1
 604 1402 l 1,15,-1
 511 1039 l 1,16,-1
 780 1039 l 1,17,-1
 739 869 l 1,18,-1
 471 869 l 1,19,20
 329 238 329 238 328 215 c 0,21,22
 328 180 328 180 346.5 165 c 128,-1,23
 365 150 365 150 400 150 c 0,24,25
 470 150 470 150 516.5 166 c 128,-1,26
 563 182 563 182 563 183 c 1,27,-1
 530 14 l 2,28,29
 530 12 530 12 484 -4 c 128,-1,30
 438 -20 438 -20 365 -20 c 0,4,5
EndSplineSet
EndChar

StartChar: Tbar
Encoding: 358 358 293
Width: 1215
GlyphClass: 1
Flags: W
LayerCount: 2
Fore
SplineSet
595 0 m 1,0,-1
 391 0 l 1,1,-1
 537 637 l 1,2,-1
 324 637 l 1,3,-1
 356 776 l 1,4,-1
 569 776 l 1,5,-1
 675 1237 l 1,6,-1
 215 1237 l 1,7,-1
 256 1413 l 1,8,-1
 1381 1413 l 1,9,-1
 1340 1237 l 1,10,-1
 880 1237 l 1,11,-1
 774 776 l 1,12,-1
 991 776 l 1,13,-1
 959 637 l 1,14,-1
 742 637 l 1,15,-1
 595 0 l 1,0,-1
EndSplineSet
Position2: "'cpsp' Capital Spacing lookup 0 per glyph data 0" dx=5 dy=0 dh=10 dv=0
EndChar

StartChar: tbar
Encoding: 359 359 294
Width: 737
GlyphClass: 1
Flags: W
LayerCount: 2
Fore
SplineSet
375 -20 m 0,0,1
 253 -20 253 -20 195.5 40 c 128,-1,2
 138 100 138 100 138 196 c 0,3,4
 138 245 138 245 149 293 c 2,5,-1
 184 451 l 1,6,-1
 6 451 l 1,7,-1
 40 590 l 1,8,-1
 216 590 l 1,9,-1
 278 878 l 1,10,-1
 119 878 l 1,11,-1
 156 1039 l 1,12,-1
 317 1039 l 1,13,-1
 372 1251 l 1,14,-1
 604 1391 l 1,15,-1
 511 1039 l 1,16,-1
 780 1039 l 1,17,-1
 741 878 l 1,18,-1
 473 878 l 1,19,-1
 408 590 l 1,20,-1
 692 590 l 1,21,-1
 659 451 l 1,22,-1
 375 451 l 1,23,-1
 339 291 l 2,24,25
 332 261 332 261 331 236 c 0,26,27
 331 146 331 146 424 146 c 0,28,29
 485 146 485 146 562 182 c 1,30,-1
 532 2 l 1,31,32
 506 -7 506 -7 463 -13.5 c 128,-1,33
 420 -20 420 -20 375 -20 c 0,0,1
EndSplineSet
EndChar

StartChar: Uogonek
Encoding: 370 370 305
Width: 1367
GlyphClass: 1
Flags: W
LayerCount: 2
Fore
SplineSet
611 -416 m 0,0,1
 527 -416 527 -416 478 -370 c 128,-1,2
 429 -324 429 -324 429 -248 c 0,3,4
 429 -118 429 -118 562 -20 c 1,5,6
 356 -16 356 -16 256.5 87 c 128,-1,7
 157 190 157 190 157 365 c 0,8,9
 157 445 157 445 179 542 c 2,10,-1
 380 1413 l 1,11,-1
 583 1413 l 1,12,-1
 387 562 l 2,13,14
 363 458 363 458 363 387 c 0,15,16
 363 278 363 278 420.5 226.5 c 128,-1,17
 478 175 478 175 596 175 c 0,18,19
 772 175 772 175 871 281 c 128,-1,20
 970 387 970 387 1014 579 c 2,21,-1
 1207 1413 l 1,22,-1
 1410 1413 l 1,23,-1
 1208 535 l 2,24,25
 1164 340 1164 340 1057.5 201.5 c 128,-1,26
 951 63 951 63 775 8 c 1,27,28
 586 -85 586 -85 559 -205 c 0,29,30
 555 -220 555 -220 555 -234 c 0,31,32
 555 -285 555 -285 609 -285 c 0,33,34
 683 -285 683 -285 745 -218 c 1,35,-1
 840 -306 l 1,36,37
 745 -416 745 -416 611 -416 c 0,0,1
EndSplineSet
Position2: "'cpsp' Capital Spacing lookup 0 per glyph data 0" dx=5 dy=0 dh=10 dv=0
EndChar

StartChar: uogonek
Encoding: 371 371 306
Width: 1170
GlyphClass: 1
Flags: W
LayerCount: 2
Fore
SplineSet
663 -451 m 0,0,1
 577 -451 577 -451 526.5 -405 c 128,-1,2
 476 -359 476 -359 476 -283 c 0,3,4
 476 -191 476 -191 541 -118 c 0,5,6
 621 -33 621 -33 715 0 c 1,7,-1
 693 0 l 1,8,-1
 726 137 l 1,9,10
 666 68 666 68 576.5 22.5 c 128,-1,11
 487 -23 487 -23 388 -23 c 0,12,13
 240 -23 240 -23 169.5 62.5 c 128,-1,14
 99 148 99 148 99 289 c 0,15,16
 99 359 99 359 116 435 c 2,17,-1
 250 1039 l 1,18,-1
 451 1039 l 1,19,-1
 309 415 l 2,20,21
 293 347 293 347 293 304 c 0,22,23
 293 154 293 154 439 154 c 0,24,25
 512 154 512 154 586.5 190.5 c 128,-1,26
 661 227 661 227 719 303 c 128,-1,27
 777 379 777 379 805 494 c 2,28,-1
 927 1039 l 1,29,-1
 1130 1039 l 1,30,-1
 892 0 l 1,31,-1
 825 0 l 1,32,-1
 892 -2 l 1,33,34
 824 -26 824 -26 726.5 -86 c 128,-1,35
 629 -146 629 -146 606 -240 c 0,36,37
 602 -255 602 -255 602 -269 c 0,38,39
 602 -320 602 -320 658 -320 c 0,40,41
 735 -320 735 -320 799 -253 c 1,42,-1
 898 -341 l 1,43,44
 801 -451 801 -451 663 -451 c 0,0,1
EndSplineSet
EndChar

StartChar: longs
Encoding: 383 383 318
Width: 718
GlyphClass: 2
Flags: W
LayerCount: 2
Fore
SplineSet
305 0 m 1,0,-1
 100 0 l 1,1,-1
 301 878 l 1,2,-1
 110 878 l 1,3,-1
 149 1037 l 1,4,-1
 339 1037 l 1,5,-1
 381 1192 l 2,6,7
 416 1316 416 1316 511 1375 c 128,-1,8
 606 1434 606 1434 738 1434 c 0,9,10
 828 1434 828 1434 913 1391 c 1,11,-1
 822 1250 l 1,12,13
 776 1270 776 1270 726 1270 c 0,14,15
 675 1270 675 1270 635.5 1240 c 128,-1,16
 596 1210 596 1210 579 1147 c 2,17,-1
 305 0 l 1,0,-1
EndSplineSet
EndChar

StartChar: florin
Encoding: 402 402 319
Width: 1092
GlyphClass: 1
Flags: W
LayerCount: 2
Fore
SplineSet
-127 -457 m 1,0,-1
 -99 -289 l 1,1,2
 35 -289 35 -289 119.5 -255.5 c 128,-1,3
 204 -222 204 -222 254 -154 c 0,4,5
 306 -85 306 -85 333 31 c 2,6,-1
 527 874 l 1,7,-1
 342 874 l 1,8,-1
 383 1039 l 1,9,-1
 568 1039 l 1,10,-1
 605 1178 l 2,11,12
 642 1306 642 1306 743 1377.5 c 128,-1,13
 844 1449 844 1449 958 1449 c 0,14,15
 1084 1449 1084 1449 1174 1354 c 1,16,-1
 1041 1244 l 1,17,18
 1000 1281 1000 1281 942 1281 c 0,19,20
 890 1281 890 1281 842.5 1249 c 128,-1,21
 795 1217 795 1217 775 1156 c 2,22,-1
 742 1039 l 1,23,-1
 1059 1039 l 1,24,-1
 1019 874 l 1,25,-1
 702 874 l 1,26,-1
 502 17 l 2,27,28
 464 -146 464 -146 376.5 -251 c 128,-1,29
 289 -356 289 -356 161 -406.5 c 128,-1,30
 33 -457 33 -457 -127 -457 c 1,0,-1
EndSplineSet
EndChar

StartChar: uni01C3
Encoding: 451 451 324
Width: 590
GlyphClass: 1
Flags: W
LayerCount: 2
Fore
SplineSet
345 402 m 1,0,-1
 199 402 l 1,1,-1
 409 1434 l 1,2,-1
 613 1434 l 1,3,-1
 345 402 l 1,0,-1
294 0 m 1,4,-1
 66 0 l 1,5,-1
 117 226 l 1,6,-1
 345 226 l 1,7,-1
 294 0 l 1,4,-1
EndSplineSet
EndChar

StartChar: uni01DD
Encoding: 477 477 350
Width: 1067
GlyphClass: 1
Flags: W
LayerCount: 2
Fore
SplineSet
422 -12 m 0,0,1
 228 -12 228 -12 141.5 85 c 128,-1,2
 55 182 55 182 55 346 c 0,3,4
 55 432 55 432 80 547 c 0,5,6
 87 575 87 575 95 592 c 1,7,-1
 810 592 l 1,8,9
 816 633 816 633 817 666 c 0,10,11
 817 762 817 762 766 819 c 128,-1,12
 715 876 715 876 607 876 c 0,13,14
 509 876 509 876 436 848 c 128,-1,15
 363 820 363 820 297 761 c 1,16,-1
 181 895 l 1,17,18
 279 977 279 977 383.5 1014.5 c 128,-1,19
 488 1052 488 1052 617 1052 c 0,20,21
 751 1052 751 1052 838.5 1001.5 c 128,-1,22
 926 951 926 951 969.5 863 c 128,-1,23
 1013 775 1013 775 1013 662 c 0,24,25
 1013 561 1013 561 980 454.5 c 128,-1,26
 947 348 947 348 886 251 c 0,27,28
 837 175 837 175 768 116 c 128,-1,29
 699 57 699 57 612 22.5 c 128,-1,30
 525 -12 525 -12 422 -12 c 0,0,1
434 154 m 0,31,32
 558 154 558 154 646 236.5 c 128,-1,33
 734 319 734 319 773 444 c 1,34,-1
 240 427 l 1,35,36
 232 379 232 379 232 344 c 0,37,38
 232 256 232 256 280.5 205 c 128,-1,39
 329 154 329 154 434 154 c 0,31,32
EndSplineSet
EndChar

StartChar: uni01E3
Encoding: 483 483 352
Width: 1743
GlyphClass: 1
Flags: W
LayerCount: 2
Fore
SplineSet
1322 1173 m 1,0,-1
 755 1173 l 1,1,-1
 785 1302 l 1,2,-1
 1352 1302 l 1,3,-1
 1322 1173 l 1,0,-1
329 -20 m 0,4,5
 188 -20 188 -20 108 51.5 c 128,-1,6
 28 123 28 123 28 235 c 0,7,8
 28 272 28 272 37 313 c 0,9,10
 71 468 71 468 191 536 c 128,-1,11
 311 604 311 604 489 604 c 2,12,-1
 799 606 l 1,13,14
 814 673 814 673 814 722 c 0,15,16
 814 894 814 894 636 895 c 0,17,18
 459 895 459 895 322 738 c 1,19,-1
 195 860 l 1,20,21
 291 958 291 958 401.5 1007 c 128,-1,22
 512 1056 512 1056 644 1056 c 0,23,24
 777 1056 777 1056 853.5 1007.5 c 128,-1,25
 930 959 930 959 955 877 c 1,26,27
 1107 1052 1107 1052 1336 1052 c 0,28,29
 1528 1052 1528 1052 1605.5 954.5 c 128,-1,30
 1683 857 1683 857 1683 698 c 0,31,32
 1683 607 1683 607 1662 491 c 0,33,34
 1661 479 1661 479 1648 453 c 1,35,-1
 931 453 l 1,36,37
 926 421 926 421 925 380 c 0,38,39
 925 268 925 268 983 216 c 128,-1,40
 1041 164 1041 164 1142 164 c 0,41,42
 1235 164 1235 164 1308 192.5 c 128,-1,43
 1381 221 1381 221 1445 279 c 1,44,-1
 1562 145 l 1,45,46
 1376 -12 1376 -12 1126 -12 c 0,47,48
 836 -12 836 -12 785 217 c 1,49,50
 697 105 697 105 581.5 42.5 c 128,-1,51
 466 -20 466 -20 329 -20 c 0,4,5
970 601 m 1,52,-1
 1505 606 l 1,53,54
 1512 655 1512 655 1512 685 c 0,55,56
 1512 778 1512 778 1463.5 831 c 128,-1,57
 1415 884 1415 884 1311 884 c 0,58,59
 1182 884 1182 884 1095 802.5 c 128,-1,60
 1008 721 1008 721 970 601 c 1,52,-1
361 142 m 0,61,62
 456 142 456 142 539.5 189 c 128,-1,63
 623 236 623 236 682 308 c 128,-1,64
 741 380 741 380 764 458 c 1,65,-1
 478 456 l 2,66,67
 378 456 378 456 307 402.5 c 128,-1,68
 236 349 236 349 219 274 c 0,69,70
 217 267 217 267 217 252 c 0,71,72
 217 200 217 200 260.5 171 c 128,-1,73
 304 142 304 142 361 142 c 0,61,62
EndSplineSet
EndChar

StartChar: uni01EB
Encoding: 491 491 354
Width: 1149
GlyphClass: 1
Flags: W
LayerCount: 2
Fore
SplineSet
369 -451 m 0,0,1
 283 -451 283 -451 232.5 -404 c 128,-1,2
 182 -357 182 -357 182 -279 c 0,3,4
 182 -230 182 -230 202 -181.5 c 128,-1,5
 222 -133 222 -133 265 -91 c 0,6,7
 322 -37 322 -37 385 -5 c 1,8,9
 225 22 225 22 142.5 132.5 c 128,-1,10
 60 243 60 243 60 399 c 0,11,12
 60 584 60 584 158 741 c 128,-1,13
 256 898 256 898 414 984 c 0,14,15
 541 1052 541 1052 684 1052 c 0,16,17
 814 1052 814 1052 905 998 c 128,-1,18
 996 944 996 944 1043 851.5 c 128,-1,19
 1090 759 1090 759 1090 643 c 0,20,21
 1090 481 1090 481 1012.5 337 c 128,-1,22
 935 193 935 193 804 100 c 0,23,24
 702 28 702 28 583 3 c 1,25,26
 345 -94 345 -94 312 -237 c 0,27,28
 308 -253 308 -253 308 -267 c 0,29,30
 308 -320 308 -320 364 -320 c 0,31,32
 441 -320 441 -320 506 -251 c 1,33,-1
 605 -341 l 1,34,35
 507 -451 507 -451 369 -451 c 0,0,1
480 165 m 0,36,37
 587 165 587 165 666.5 216.5 c 128,-1,38
 746 268 746 268 797.5 353 c 128,-1,39
 849 438 849 438 874 543 c 0,40,41
 889 607 889 607 889 662 c 0,42,43
 889 763 889 763 836.5 823 c 128,-1,44
 784 883 784 883 670 883 c 0,45,46
 564 883 564 883 484.5 831.5 c 128,-1,47
 405 780 405 780 353 694.5 c 128,-1,48
 301 609 301 609 277 504 c 0,49,50
 262 440 262 440 262 385 c 0,51,52
 262 285 262 285 314.5 225 c 128,-1,53
 367 165 367 165 480 165 c 0,36,37
EndSplineSet
EndChar

StartChar: uni0237
Encoding: 567 567 368
Width: 547
GlyphClass: 2
Flags: W
LayerCount: 2
Fore
SplineSet
-128 -438 m 0,0,1
 -208 -438 -208 -438 -292 -403 c 1,2,-1
 -220 -244 l 1,3,4
 -171 -257 -171 -257 -116 -257 c 0,5,6
 -10 -257 -10 -257 16 -130 c 2,7,-1
 287 1039 l 1,8,-1
 491 1039 l 1,9,-1
 216 -134 l 2,10,11
 195 -224 195 -224 151.5 -292 c 128,-1,12
 108 -360 108 -360 38.5 -399 c 128,-1,13
 -31 -438 -31 -438 -128 -438 c 0,0,1
EndSplineSet
EndChar

StartChar: uni0250
Encoding: 592 592 369
Width: 1096
GlyphClass: 1
Flags: W
LayerCount: 2
Fore
SplineSet
474 -20 m 0,0,1
 305 -20 305 -20 217.5 64.5 c 128,-1,2
 130 149 130 149 130 290 c 0,3,4
 130 350 130 350 144 409 c 2,5,-1
 283 1035 l 1,6,-1
 436 1035 l 1,7,-1
 415 881 l 1,8,9
 498 972 498 972 589 1014 c 128,-1,10
 680 1056 680 1056 799 1056 c 0,11,12
 880 1056 880 1056 946.5 1025 c 128,-1,13
 1013 994 1013 994 1052.5 936 c 128,-1,14
 1092 878 1092 878 1092 795 c 0,15,16
 1092 759 1092 759 1082 718 c 0,17,18
 1016 430 1016 430 628 430 c 1,19,-1
 325 421 l 1,20,21
 312 357 312 357 312 314 c 0,22,23
 312 229 312 229 358 189.5 c 128,-1,24
 404 150 404 150 494 150 c 0,25,26
 580 150 580 150 660 197 c 128,-1,27
 740 244 740 244 793 309 c 1,28,-1
 921 178 l 1,29,30
 820 73 820 73 711 26.5 c 128,-1,31
 602 -20 602 -20 474 -20 c 0,0,1
360 569 m 1,32,-1
 638 579 l 2,33,34
 728 579 728 579 799 627.5 c 128,-1,35
 870 676 870 676 892 758 c 0,36,37
 895 774 895 774 895 787 c 0,38,39
 895 840 895 840 852.5 863.5 c 128,-1,40
 810 887 810 887 744 887 c 0,41,42
 654 887 654 887 572.5 839 c 128,-1,43
 491 791 491 791 435 719 c 128,-1,44
 379 647 379 647 360 569 c 1,32,-1
EndSplineSet
EndChar

StartChar: uni0254
Encoding: 596 596 370
Width: 1014
GlyphClass: 1
Flags: W
LayerCount: 2
Fore
SplineSet
362 -20 m 256,0,1
 258 -20 258 -20 182 17 c 128,-1,2
 106 54 106 54 59 118.5 c 128,-1,3
 12 183 12 183 -5 269 c 1,4,-1
 197 331 l 1,5,6
 201 242 201 242 251.5 198.5 c 128,-1,7
 302 155 302 155 381 155 c 0,8,9
 479 155 479 155 553.5 209.5 c 128,-1,10
 628 264 628 264 677 351 c 128,-1,11
 726 438 726 438 748 537 c 0,12,13
 763 604 763 604 763 663 c 0,14,15
 763 760 763 760 717.5 820 c 128,-1,16
 672 880 672 880 571 880 c 0,17,18
 476 880 476 880 399.5 825.5 c 128,-1,19
 323 771 323 771 282 687 c 1,20,-1
 119 778 l 1,21,22
 204 919 204 919 324.5 987.5 c 128,-1,23
 445 1056 445 1056 581 1056 c 0,24,25
 709 1056 709 1056 792 1004.5 c 128,-1,26
 875 953 875 953 915.5 864 c 128,-1,27
 956 775 956 775 956 662 c 0,28,29
 956 566 956 566 925 456.5 c 128,-1,30
 894 347 894 347 827 243 c 0,31,32
 777 167 777 167 708.5 108 c 128,-1,33
 640 49 640 49 553 14.5 c 128,-1,34
 466 -20 466 -20 362 -20 c 256,0,1
EndSplineSet
EndChar

StartChar: uni0258
Encoding: 600 600 371
Width: 1075
GlyphClass: 1
Flags: W
LayerCount: 2
Fore
SplineSet
405 -12 m 0,0,1
 272 -12 272 -12 180.5 29.5 c 128,-1,2
 89 71 89 71 26 157 c 1,3,-1
 180 265 l 1,4,5
 220 208 220 208 277 186 c 128,-1,6
 334 164 334 164 427 164 c 0,7,8
 562 164 562 164 655 248 c 128,-1,9
 748 332 748 332 785 465 c 1,10,-1
 68 465 l 1,11,12
 68 495 68 495 76 530 c 0,13,14
 129 759 129 759 265 905.5 c 128,-1,15
 401 1052 401 1052 641 1052 c 0,16,17
 770 1052 770 1052 853.5 1000.5 c 128,-1,18
 937 949 937 949 978 859.5 c 128,-1,19
 1019 770 1019 770 1019 658 c 0,20,21
 1019 562 1019 562 987.5 451.5 c 128,-1,22
 956 341 956 341 887 240 c 0,23,24
 835 166 835 166 764.5 109.5 c 128,-1,25
 694 53 694 53 603.5 20.5 c 128,-1,26
 513 -12 513 -12 405 -12 c 0,0,1
287 596 m 1,27,-1
 822 613 l 1,28,29
 826 643 826 643 826 677 c 0,30,31
 826 771 826 771 780.5 828 c 128,-1,32
 735 885 735 885 632 885 c 0,33,34
 540 885 540 885 471 847.5 c 128,-1,35
 402 810 402 810 356 745.5 c 128,-1,36
 310 681 310 681 287 596 c 1,27,-1
EndSplineSet
EndChar

StartChar: uni0259
Encoding: 601 601 372
Width: 1067
GlyphClass: 1
Flags: W
LayerCount: 2
Fore
SplineSet
422 -12 m 0,0,1
 228 -12 228 -12 141.5 85 c 128,-1,2
 55 182 55 182 55 346 c 0,3,4
 55 432 55 432 80 547 c 0,5,6
 87 575 87 575 95 592 c 1,7,-1
 810 592 l 1,8,9
 816 633 816 633 817 666 c 0,10,11
 817 762 817 762 766 819 c 128,-1,12
 715 876 715 876 607 876 c 0,13,14
 509 876 509 876 436 848 c 128,-1,15
 363 820 363 820 297 761 c 1,16,-1
 181 895 l 1,17,18
 279 977 279 977 383.5 1014.5 c 128,-1,19
 488 1052 488 1052 617 1052 c 0,20,21
 751 1052 751 1052 838.5 1001.5 c 128,-1,22
 926 951 926 951 969.5 863 c 128,-1,23
 1013 775 1013 775 1013 662 c 0,24,25
 1013 561 1013 561 980 454.5 c 128,-1,26
 947 348 947 348 886 251 c 0,27,28
 837 175 837 175 768 116 c 128,-1,29
 699 57 699 57 612 22.5 c 128,-1,30
 525 -12 525 -12 422 -12 c 0,0,1
434 154 m 0,31,32
 558 154 558 154 646 236.5 c 128,-1,33
 734 319 734 319 773 444 c 1,34,-1
 240 427 l 1,35,36
 232 379 232 379 232 344 c 0,37,38
 232 256 232 256 280.5 205 c 128,-1,39
 329 154 329 154 434 154 c 0,31,32
EndSplineSet
EndChar

StartChar: uni02D0
Encoding: 720 720 377
Width: 518
GlyphClass: 1
Flags: W
LayerCount: 2
Fore
SplineSet
269 583 m 1,0,-1
 29 999 l 1,1,-1
 479 1019 l 1,2,-1
 269 583 l 1,0,-1
39 -20 m 1,3,-1
 248 416 l 1,4,-1
 489 0 l 1,5,-1
 39 -20 l 1,3,-1
EndSplineSet
EndChar

StartChar: uni02D1
Encoding: 721 721 378
Width: 539
GlyphClass: 1
Flags: W
LayerCount: 2
Fore
SplineSet
280 240 m 1,0,-1
 39 657 l 1,1,-1
 489 677 l 1,2,-1
 280 240 l 1,0,-1
EndSplineSet
EndChar

StartChar: uni02F5
Encoding: 757 757 385
Width: 1148
GlyphClass: 1
Flags: W
LayerCount: 2
Fore
SplineSet
635 687 m 1,0,-1
 465 687 l 1,1,-1
 256 997 l 1,2,-1
 485 997 l 1,3,-1
 635 687 l 1,0,-1
984 687 m 1,4,-1
 814 687 l 1,5,-1
 605 997 l 1,6,-1
 835 997 l 1,7,-1
 984 687 l 1,4,-1
EndSplineSet
EndChar

StartChar: uni02F6
Encoding: 758 758 386
Width: 1147
GlyphClass: 1
Flags: W
LayerCount: 2
Fore
SplineSet
267 688 m 1,0,-1
 109 688 l 1,1,-1
 401 998 l 1,2,-1
 608 998 l 1,3,-1
 267 688 l 1,0,-1
606 688 m 1,4,-1
 447 688 l 1,5,-1
 740 998 l 1,6,-1
 968 998 l 1,7,-1
 606 688 l 1,4,-1
EndSplineSet
EndChar

StartChar: gravecomb
Encoding: 768 768 387
Width: 0
GlyphClass: 4
Flags: W
AnchorPoint: "Anchor-1" -30 1050 mark 0
LayerCount: 2
Fore
SplineSet
88 1164 m 5,0,-1
 -72 1164 l 5,1,-1
 -284 1464 l 5,2,-1
 -64 1464 l 5,3,-1
 88 1164 l 5,0,-1
EndSplineSet
EndChar

StartChar: acutecomb
Encoding: 769 769 388
Width: 0
GlyphClass: 4
Flags: W
AnchorPoint: "Anchor-1" -228 1039 mark 0
LayerCount: 2
Fore
SplineSet
-184 1164 m 1,0,-1
 -344 1164 l 1,1,-1
 -55 1453 l 1,2,-1
 173 1453 l 1,3,-1
 -184 1164 l 1,0,-1
EndSplineSet
EndChar

StartChar: uni0302
Encoding: 770 770 389
Width: 0
GlyphClass: 4
Flags: W
AnchorPoint: "Anchor-1" -211 1065 mark 0
LayerCount: 2
Fore
SplineSet
104 1164 m 5,0,-1
 -64 1164 l 5,1,-1
 -173 1331 l 5,2,-1
 -362 1164 l 5,3,-1
 -542 1164 l 5,4,-1
 -139 1518 l 5,5,-1
 104 1164 l 5,0,-1
EndSplineSet
EndChar

StartChar: tildecomb
Encoding: 771 771 390
Width: 0
GlyphClass: 4
Flags: W
AnchorPoint: "Anchor-1" -277 1045 mark 0
LayerCount: 2
Fore
SplineSet
-110 1164 m 4,0,1
 -172 1164 -172 1164 -203 1190 c 132,-1,2
 -234 1216 -234 1216 -258 1259 c 4,3,4
 -275 1288 -275 1288 -288.5 1301 c 132,-1,5
 -302 1314 -302 1314 -321 1314 c 4,6,7
 -359 1314 -359 1314 -389 1274.5 c 132,-1,8
 -419 1235 -419 1235 -434 1177 c 5,9,-1
 -560 1177 l 5,10,11
 -531 1309 -531 1309 -469 1376.5 c 132,-1,12
 -407 1444 -407 1444 -324 1444 c 4,13,14
 -265 1444 -265 1444 -233.5 1418 c 132,-1,15
 -202 1392 -202 1392 -175 1347 c 4,16,17
 -158 1319 -158 1319 -145 1306 c 132,-1,18
 -132 1293 -132 1293 -114 1293 c 4,19,20
 -76 1293 -76 1293 -46 1334 c 132,-1,21
 -16 1375 -16 1375 0 1438 c 5,22,-1
 133 1438 l 5,23,24
 101 1297 101 1297 38.5 1230.5 c 132,-1,25
 -24 1164 -24 1164 -110 1164 c 4,0,1
EndSplineSet
EndChar

StartChar: uni0304
Encoding: 772 772 391
Width: 0
GlyphClass: 4
Flags: W
AnchorPoint: "Anchor-1" -303 1039 mark 0
LayerCount: 2
Fore
SplineSet
2 1206 m 1,0,-1
 -548 1206 l 1,1,-1
 -517 1340 l 1,2,-1
 33 1340 l 1,3,-1
 2 1206 l 1,0,-1
EndSplineSet
EndChar

StartChar: uni0306
Encoding: 774 774 392
Width: 0
GlyphClass: 4
Flags: W
AnchorPoint: "Anchor-1" -291 1039 mark 0
LayerCount: 2
Fore
SplineSet
-251 1183 m 0,0,1
 -385 1183 -385 1183 -452 1238 c 128,-1,2
 -519 1293 -519 1293 -519 1384 c 0,3,4
 -519 1416 -519 1416 -510 1453 c 1,5,-1
 -361 1453 l 1,6,7
 -366 1428 -366 1428 -366 1413 c 0,8,9
 -366 1359 -366 1359 -332.5 1334.5 c 128,-1,10
 -299 1310 -299 1310 -246 1310 c 0,11,12
 -172 1310 -172 1310 -114.5 1351.5 c 128,-1,13
 -57 1393 -57 1393 -41 1453 c 1,14,-1
 108 1453 l 1,15,16
 75 1313 75 1313 -18 1248 c 128,-1,17
 -111 1183 -111 1183 -251 1183 c 0,0,1
EndSplineSet
EndChar

StartChar: uni0307
Encoding: 775 775 393
Width: 0
GlyphClass: 4
Flags: W
AnchorPoint: "Anchor-1" -126 978 mark 0
LayerCount: 2
Fore
SplineSet
24 1184 m 5,0,-1
 -187 1184 l 5,1,-1
 -140 1392 l 5,2,-1
 72 1392 l 5,3,-1
 24 1184 l 5,0,-1
EndSplineSet
EndChar

StartChar: uni0308
Encoding: 776 776 394
Width: 0
GlyphClass: 4
Flags: W
AnchorPoint: "Anchor-1" -288 978 mark 0
LayerCount: 2
Fore
SplineSet
-318 1184 m 5,0,-1
 -503 1184 l 5,1,-1
 -456 1392 l 5,2,-1
 -270 1392 l 5,3,-1
 -318 1184 l 5,0,-1
27 1184 m 5,4,-1
 -159 1184 l 5,5,-1
 -111 1392 l 5,6,-1
 75 1392 l 5,7,-1
 27 1184 l 5,4,-1
EndSplineSet
EndChar

StartChar: hookabovecomb
Encoding: 777 777 395
Width: 0
GlyphClass: 4
Flags: W
AnchorPoint: "Anchor-1" -204 1026 mark 0
LayerCount: 2
Fore
SplineSet
-240 1077 m 1,0,-1
 -247 1161 l 1,1,2
 -163 1175 -163 1175 -122.5 1200.5 c 128,-1,3
 -82 1226 -82 1226 -82 1273 c 0,4,5
 -82 1313 -82 1313 -126 1333 c 128,-1,6
 -170 1353 -170 1353 -242 1353 c 2,7,-1
 -273 1353 l 1,8,-1
 -249 1476 l 1,9,10
 -170 1476 -170 1476 -115.5 1467.5 c 128,-1,11
 -61 1459 -61 1459 -15 1432 c 0,12,13
 60 1387 60 1387 60 1306 c 0,14,15
 60 1231 60 1231 21.5 1185 c 128,-1,16
 -17 1139 -17 1139 -81 1116 c 128,-1,17
 -145 1093 -145 1093 -240 1077 c 1,0,-1
EndSplineSet
EndChar

StartChar: uni030A
Encoding: 778 778 396
Width: 0
GlyphClass: 4
Flags: W
AnchorPoint: "Anchor-1" -201 1039 mark 0
LayerCount: 2
Fore
SplineSet
-172 1114 m 0,0,1
 -258 1114 -258 1114 -306 1167 c 128,-1,2
 -354 1220 -354 1220 -354 1293 c 0,3,4
 -354 1365 -354 1365 -316.5 1422.5 c 128,-1,5
 -279 1480 -279 1480 -221 1513 c 128,-1,6
 -163 1546 -163 1546 -100 1546 c 0,7,8
 -17 1546 -17 1546 33 1493 c 128,-1,9
 83 1440 83 1440 83 1367 c 0,10,11
 83 1269 83 1269 5.5 1191.5 c 128,-1,12
 -72 1114 -72 1114 -172 1114 c 0,0,1
-158 1231 m 0,13,14
 -103 1231 -103 1231 -68.5 1271.5 c 128,-1,15
 -34 1312 -34 1312 -34 1357 c 0,16,17
 -34 1395 -34 1395 -57 1414 c 128,-1,18
 -80 1433 -80 1433 -114 1433 c 0,19,20
 -171 1433 -171 1433 -203.5 1395 c 128,-1,21
 -236 1357 -236 1357 -236 1307 c 0,22,23
 -236 1233 -236 1233 -158 1231 c 0,13,14
EndSplineSet
EndChar

StartChar: uni030B
Encoding: 779 779 397
Width: 0
GlyphClass: 4
Flags: W
AnchorPoint: "Anchor-1" -432 1039 mark 0
LayerCount: 2
Fore
SplineSet
-525 1143 m 1,0,-1
 -683 1143 l 1,1,-1
 -391 1453 l 1,2,-1
 -184 1453 l 1,3,-1
 -525 1143 l 1,0,-1
-186 1143 m 1,4,-1
 -345 1143 l 1,5,-1
 -52 1453 l 1,6,-1
 176 1453 l 1,7,-1
 -186 1143 l 1,4,-1
EndSplineSet
EndChar

StartChar: uni030C
Encoding: 780 780 398
Width: 0
GlyphClass: 4
Flags: W
AnchorPoint: "Anchor-1" -213 1039 mark 0
LayerCount: 2
Fore
SplineSet
-218 1120 m 1,0,-1
 -466 1452 l 1,1,-1
 -295 1452 l 1,2,-1
 -187 1292 l 1,3,-1
 3 1452 l 1,4,-1
 180 1452 l 1,5,-1
 -218 1120 l 1,0,-1
EndSplineSet
EndChar

StartChar: uni030F
Encoding: 783 783 399
Width: 0
GlyphClass: 4
Flags: W
AnchorPoint: "Anchor-1" -227 1039 mark 0
LayerCount: 2
Fore
SplineSet
-265 1143 m 1,0,-1
 -435 1143 l 1,1,-1
 -644 1453 l 1,2,-1
 -415 1453 l 1,3,-1
 -265 1143 l 1,0,-1
84 1143 m 1,4,-1
 -86 1143 l 1,5,-1
 -295 1453 l 1,6,-1
 -65 1453 l 1,7,-1
 84 1143 l 1,4,-1
EndSplineSet
EndChar

StartChar: uni0312
Encoding: 786 786 400
Width: 0
GlyphClass: 4
Flags: W
AnchorPoint: "Anchor-1" -177 1039 mark 0
LayerCount: 2
Fore
SplineSet
-70 1161 m 1,0,-1
 -306 1161 l 1,1,-1
 11 1468 l 1,2,-1
 138 1468 l 1,3,-1
 -70 1161 l 1,0,-1
EndSplineSet
EndChar

StartChar: uni031B
Encoding: 795 795 401
Width: 0
GlyphClass: 1
Flags: W
LayerCount: 2
Fore
SplineSet
-301 990 m 1,0,-1
 -276 1120 l 1,1,2
 -195 1120 -195 1120 -146.5 1167 c 128,-1,3
 -98 1214 -98 1214 -78 1319 c 2,4,-1
 -62 1394 l 1,5,-1
 75 1394 l 1,6,-1
 57 1308 l 2,7,8
 30 1163 30 1163 -59.5 1076.5 c 128,-1,9
 -149 990 -149 990 -301 990 c 1,0,-1
EndSplineSet
EndChar

StartChar: dotbelowcomb
Encoding: 803 803 402
Width: 0
GlyphClass: 4
Flags: W
AnchorPoint: "Anchor-1" -471 -471 mark 0
LayerCount: 2
Fore
SplineSet
-201 -315 m 1,0,-1
 -412 -315 l 1,1,-1
 -365 -107 l 1,2,-1
 -153 -107 l 1,3,-1
 -201 -315 l 1,0,-1
EndSplineSet
EndChar

StartChar: uni0326
Encoding: 806 806 403
Width: 0
GlyphClass: 4
Flags: W
AnchorPoint: "Anchor-3" -465 -459 basemark 0
AnchorPoint: "Anchor-3" -291 0 mark 0
AnchorPoint: "Anchor-0" -291 0 mark 0
LayerCount: 2
Fore
SplineSet
-504 -452 m 1,0,-1
 -631 -452 l 1,1,-1
 -423 -109 l 1,2,-1
 -187 -109 l 1,3,-1
 -504 -452 l 1,0,-1
EndSplineSet
EndChar

StartChar: uni0327
Encoding: 807 807 404
Width: 0
GlyphClass: 4
Flags: W
AnchorPoint: "Anchor-3" -514 -500 basemark 0
AnchorPoint: "Anchor-3" -375 0 mark 0
AnchorPoint: "Anchor-0" -375 0 mark 0
LayerCount: 2
Fore
SplineSet
-522 -513 m 0,0,1
 -591 -513 -591 -513 -635.5 -473.5 c 128,-1,2
 -680 -434 -680 -434 -691 -378 c 1,3,-1
 -568 -341 l 1,4,5
 -563 -393 -563 -393 -512 -393 c 0,6,7
 -466 -393 -466 -393 -432 -362 c 0,8,9
 -391 -325 -391 -325 -384 -271 c 1,10,11
 -384 -236 -384 -236 -419.5 -211.5 c 128,-1,12
 -455 -187 -455 -187 -529 -187 c 2,13,-1
 -591 -187 l 1,14,-1
 -445 -1 l 1,15,-1
 -310 -1 l 1,16,-1
 -416 -110 l 1,17,18
 -338 -118 -338 -118 -300 -159.5 c 128,-1,19
 -262 -201 -262 -201 -262 -262 c 0,20,21
 -262 -325 -262 -325 -296 -382.5 c 128,-1,22
 -330 -440 -330 -440 -389 -476.5 c 128,-1,23
 -448 -513 -448 -513 -522 -513 c 0,0,1
EndSplineSet
EndChar

StartChar: uni0328
Encoding: 808 808 405
Width: 0
GlyphClass: 4
Flags: W
AnchorPoint: "Anchor-2" -263 0 mark 0
LayerCount: 2
Fore
SplineSet
-480 -451 m 0,0,1
 -564 -451 -564 -451 -613 -405 c 128,-1,2
 -662 -359 -662 -359 -662 -283 c 0,3,4
 -662 -187 -662 -187 -593 -112 c 0,5,6
 -543 -61 -543 -61 -495 -33 c 128,-1,7
 -447 -5 -447 -5 -418 3 c 1,8,-1
 -257 -2 l 1,9,10
 -322 -26 -322 -26 -416 -86 c 128,-1,11
 -510 -146 -510 -146 -532 -240 c 0,12,13
 -536 -255 -536 -255 -536 -269 c 0,14,15
 -536 -320 -536 -320 -482 -320 c 0,16,17
 -408 -320 -408 -320 -346 -253 c 1,18,-1
 -251 -341 l 1,19,20
 -346 -451 -346 -451 -480 -451 c 0,0,1
EndSplineSet
EndChar

StartChar: pi
Encoding: 960 960 406
Width: 1027
GlyphClass: 1
Flags: W
LayerCount: 2
Fore
SplineSet
749 -20 m 0,0,1
 658 -20 658 -20 611 35.5 c 128,-1,2
 564 91 564 91 564 173 c 0,3,4
 564 204 564 204 572 243 c 2,5,-1
 708 863 l 1,6,-1
 447 863 l 1,7,-1
 251 0 l 1,8,-1
 68 0 l 1,9,-1
 264 863 l 1,10,-1
 179 863 l 1,11,-1
 220 1039 l 1,12,-1
 1016 1039 l 1,13,-1
 975 863 l 1,14,-1
 889 863 l 1,15,-1
 748 239 l 2,16,17
 739 200 739 200 739 176 c 0,18,19
 739 131 739 131 768 131 c 0,20,21
 798 131 798 131 833 155 c 1,22,-1
 865 7 l 1,23,24
 816 -20 816 -20 749 -20 c 0,0,1
EndSplineSet
EndChar

StartChar: uni0402
Encoding: 1026 1026 409
Width: 1621
GlyphClass: 1
Flags: W
LayerCount: 2
Fore
SplineSet
1011 -19 m 0,0,1
 918 -19 918 -19 838.5 19 c 128,-1,2
 759 57 759 57 713 114 c 1,3,-1
 846 240 l 1,4,5
 895 170 895 170 1008 170 c 0,6,7
 1120 170 1120 170 1204.5 247.5 c 128,-1,8
 1289 325 1289 325 1319 454 c 0,9,10
 1341 548 1341 548 1341 611 c 0,11,12
 1341 714 1341 714 1282 760 c 128,-1,13
 1223 806 1223 806 1100 806 c 0,14,15
 989 806 989 806 898 765 c 128,-1,16
 807 724 807 724 749 666 c 1,17,-1
 592 0 l 1,18,-1
 388 0 l 1,19,-1
 673 1237 l 1,20,-1
 211 1237 l 1,21,-1
 252 1412 l 1,22,-1
 1378 1412 l 1,23,-1
 1337 1237 l 1,24,-1
 876 1237 l 1,25,-1
 794 905 l 1,26,27
 951 1001 951 1001 1121 1001 c 0,28,29
 1339 1001 1339 1001 1441 903 c 128,-1,30
 1543 805 1543 805 1543 628 c 0,31,32
 1543 516 1543 516 1510 397.5 c 128,-1,33
 1477 279 1477 279 1412 187 c 0,34,35
 1335 84 1335 84 1232 32.5 c 128,-1,36
 1129 -19 1129 -19 1011 -19 c 0,0,1
EndSplineSet
Position2: "'cpsp' Capital Spacing lookup 0 per glyph data 0" dx=5 dy=0 dh=10 dv=0
EndChar

StartChar: uni0403
Encoding: 1027 1027 410
Width: 1072
GlyphClass: 1
Flags: W
LayerCount: 2
Fore
SplineSet
849 1537 m 1,0,-1
 699 1537 l 1,1,-1
 985 1826 l 1,2,-1
 1202 1826 l 1,3,-1
 849 1537 l 1,0,-1
288 0 m 1,4,-1
 85 0 l 1,5,-1
 411 1412 l 1,6,-1
 1238 1412 l 1,7,-1
 1196 1231 l 1,8,-1
 571 1231 l 1,9,-1
 288 0 l 1,4,-1
EndSplineSet
Position2: "'cpsp' Capital Spacing lookup 0 per glyph data 0" dx=5 dy=0 dh=10 dv=0
EndChar

StartChar: uni0404
Encoding: 1028 1028 411
Width: 1428
GlyphClass: 1
Flags: W
LayerCount: 2
Fore
SplineSet
655 -20 m 0,0,1
 475 -20 475 -20 358.5 47 c 128,-1,2
 242 114 242 114 185.5 231 c 128,-1,3
 129 348 129 348 129 499 c 0,4,5
 129 633 129 633 174 788.5 c 128,-1,6
 219 944 219 944 311 1084 c 0,7,8
 418 1245 418 1245 585 1340.5 c 128,-1,9
 752 1436 752 1436 964 1436 c 0,10,11
 1178 1436 1178 1436 1308.5 1330.5 c 128,-1,12
 1439 1225 1439 1225 1479 1037 c 1,13,-1
 1279 978 l 1,14,15
 1264 1244 1264 1244 943 1244 c 0,16,17
 799 1244 799 1244 687.5 1183 c 128,-1,18
 576 1122 576 1122 498 1019.5 c 128,-1,19
 420 917 420 917 378 787 c 1,20,-1
 980 795 l 1,21,-1
 940 624 l 1,22,-1
 337 615 l 1,23,24
 330 567 330 567 330 516 c 0,25,26
 330 355 330 355 414 263 c 128,-1,27
 498 171 498 171 674 171 c 0,28,29
 982 171 982 171 1156 457 c 1,30,-1
 1328 363 l 1,31,32
 1198 166 1198 166 1023 73 c 128,-1,33
 848 -20 848 -20 655 -20 c 0,0,1
EndSplineSet
Position2: "'cpsp' Capital Spacing lookup 0 per glyph data 0" dx=5 dy=0 dh=10 dv=0
EndChar

StartChar: uni0406
Encoding: 1030 1030 413
Width: 599
GlyphClass: 1
Flags: W
LayerCount: 2
Fore
SplineSet
287 0 m 1,0,-1
 83 0 l 1,1,-1
 409 1412 l 1,2,-1
 612 1412 l 1,3,-1
 287 0 l 1,0,-1
EndSplineSet
Position2: "'cpsp' Capital Spacing lookup 0 per glyph data 0" dx=5 dy=0 dh=10 dv=0
EndChar

StartChar: uni0407
Encoding: 1031 1031 414
Width: 597
GlyphClass: 1
Flags: W
LayerCount: 2
Fore
SplineSet
465 1583 m 1,0,-1
 286 1583 l 1,1,-1
 328 1763 l 1,2,-1
 507 1763 l 1,3,-1
 465 1583 l 1,0,-1
807 1583 m 1,4,-1
 628 1583 l 1,5,-1
 670 1763 l 1,6,-1
 849 1763 l 1,7,-1
 807 1583 l 1,4,-1
285 0 m 1,8,-1
 82 0 l 1,9,-1
 408 1412 l 1,10,-1
 610 1412 l 1,11,-1
 285 0 l 1,8,-1
EndSplineSet
Position2: "'cpsp' Capital Spacing lookup 0 per glyph data 0" dx=5 dy=0 dh=10 dv=0
EndChar

StartChar: uni0409
Encoding: 1033 1033 416
Width: 1975
GlyphClass: 1
Flags: W
LayerCount: 2
Fore
SplineSet
109 -20 m 0,0,1
 8 -20 8 -20 -75 36 c 1,2,-1
 18 193 l 1,3,4
 73 173 73 173 118 173 c 0,5,6
 172 173 172 173 233 291 c 0,7,8
 347 520 347 520 432 895 c 2,9,-1
 551 1412 l 1,10,-1
 1429 1412 l 1,11,-1
 1288 799 l 1,12,-1
 1498 799 l 2,13,14
 1617 799 1617 799 1706.5 763.5 c 128,-1,15
 1796 728 1796 728 1845.5 659 c 128,-1,16
 1895 590 1895 590 1895 489 c 0,17,18
 1895 319 1895 319 1776 178 c 1,19,20
 1694 88 1694 88 1576.5 44 c 128,-1,21
 1459 0 1459 0 1325 0 c 2,22,-1
 902 0 l 1,23,-1
 1185 1231 l 1,24,-1
 711 1231 l 1,25,-1
 630 880 l 2,26,27
 573 630 573 630 515 447.5 c 128,-1,28
 457 265 457 265 355.5 122.5 c 128,-1,29
 254 -20 254 -20 109 -20 c 0,0,1
1356 186 m 2,30,31
 1497 186 1497 186 1581.5 250 c 128,-1,32
 1666 314 1666 314 1690 421 c 0,33,34
 1696 448 1696 448 1696 472 c 0,35,36
 1696 541 1696 541 1641 577 c 128,-1,37
 1586 613 1586 613 1467 613 c 2,38,-1
 1245 613 l 1,39,-1
 1145 186 l 1,40,-1
 1356 186 l 2,30,31
EndSplineSet
Position2: "'cpsp' Capital Spacing lookup 0 per glyph data 0" dx=5 dy=0 dh=10 dv=0
EndChar

StartChar: uni040A
Encoding: 1034 1034 417
Width: 2029
GlyphClass: 1
Flags: W
LayerCount: 2
Fore
SplineSet
1380 0 m 2,0,-1
 956 0 l 1,1,-1
 1097 616 l 1,2,-1
 427 616 l 1,3,-1
 286 0 l 1,4,-1
 83 0 l 1,5,-1
 409 1412 l 1,6,-1
 611 1412 l 1,7,-1
 469 797 l 1,8,-1
 1139 797 l 1,9,-1
 1281 1412 l 1,10,-1
 1485 1412 l 1,11,-1
 1344 799 l 1,12,-1
 1553 799 l 2,13,14
 1738 799 1738 799 1843.5 717 c 128,-1,15
 1949 635 1949 635 1949 488 c 0,16,17
 1949 412 1949 412 1920.5 329 c 128,-1,18
 1892 246 1892 246 1831 178 c 0,19,20
 1749 88 1749 88 1631.5 44 c 128,-1,21
 1514 0 1514 0 1380 0 c 2,0,-1
1410 186 m 2,22,23
 1547 186 1547 186 1633 248.5 c 128,-1,24
 1719 311 1719 311 1744 421 c 0,25,26
 1750 448 1750 448 1750 472 c 0,27,28
 1750 541 1750 541 1695 577 c 128,-1,29
 1640 613 1640 613 1521 613 c 2,30,-1
 1300 613 l 1,31,-1
 1201 186 l 1,32,-1
 1410 186 l 2,22,23
EndSplineSet
Position2: "'cpsp' Capital Spacing lookup 0 per glyph data 0" dx=5 dy=0 dh=10 dv=0
EndChar

StartChar: uni040B
Encoding: 1035 1035 418
Width: 1642
GlyphClass: 1
Flags: W
LayerCount: 2
Fore
SplineSet
1419 0 m 1,0,-1
 1216 0 l 1,1,-1
 1310 410 l 2,2,3
 1335 516 1335 516 1335 592 c 0,4,5
 1335 703 1335 703 1277 754.5 c 128,-1,6
 1219 806 1219 806 1100 806 c 0,7,8
 989 806 989 806 898 765 c 128,-1,9
 807 724 807 724 749 666 c 1,10,-1
 592 0 l 1,11,-1
 388 0 l 1,12,-1
 673 1237 l 1,13,-1
 211 1237 l 1,14,-1
 252 1412 l 1,15,-1
 1378 1412 l 1,16,-1
 1337 1237 l 1,17,-1
 876 1237 l 1,18,-1
 795 905 l 1,19,20
 941 1001 941 1001 1121 1001 c 0,21,22
 1333 1001 1333 1001 1435.5 897.5 c 128,-1,23
 1538 794 1538 794 1538 608 c 0,24,25
 1538 515 1538 515 1512 403 c 2,26,-1
 1419 0 l 1,0,-1
EndSplineSet
Position2: "'cpsp' Capital Spacing lookup 0 per glyph data 0" dx=5 dy=0 dh=10 dv=0
EndChar

StartChar: uni040C
Encoding: 1036 1036 419
Width: 1306
GlyphClass: 1
Flags: W
LayerCount: 2
Fore
SplineSet
909 1537 m 1,0,-1
 759 1537 l 1,1,-1
 1044 1826 l 1,2,-1
 1261 1826 l 1,3,-1
 909 1537 l 1,0,-1
1144 0 m 1,4,-1
 899 0 l 1,5,-1
 836 529 l 2,6,7
 829 587 829 587 792.5 636 c 128,-1,8
 756 685 756 685 687 685 c 2,9,-1
 444 685 l 1,10,-1
 288 0 l 1,11,-1
 85 0 l 1,12,-1
 411 1412 l 1,13,-1
 613 1412 l 1,14,-1
 487 868 l 1,15,-1
 644 868 l 1,16,-1
 1129 1412 l 1,17,-1
 1399 1412 l 1,18,-1
 839 824 l 1,19,20
 894 824 894 824 934.5 787.5 c 128,-1,21
 975 751 975 751 999 701.5 c 128,-1,22
 1023 652 1023 652 1029 609 c 2,23,-1
 1144 0 l 1,4,-1
EndSplineSet
Position2: "'cpsp' Capital Spacing lookup 0 per glyph data 0" dx=5 dy=0 dh=10 dv=0
EndChar

StartChar: uni040D
Encoding: 1037 1037 420
Width: 1474
GlyphClass: 1
Flags: W
LayerCount: 2
Fore
SplineSet
1097 1529 m 1,0,-1
 944 1529 l 1,1,-1
 739 1826 l 1,2,-1
 948 1826 l 1,3,-1
 1097 1529 l 1,0,-1
1160 0 m 1,4,-1
 957 0 l 1,5,6
 1215 1116 1215 1116 1223 1145 c 1,7,-1
 331 0 l 1,8,-1
 85 0 l 1,9,-1
 411 1412 l 1,10,-1
 613 1412 l 1,11,12
 358 305 358 305 346 264 c 1,13,-1
 1240 1412 l 1,14,-1
 1486 1412 l 1,15,-1
 1160 0 l 1,4,-1
EndSplineSet
Position2: "'cpsp' Capital Spacing lookup 0 per glyph data 0" dx=5 dy=0 dh=10 dv=0
EndChar

StartChar: uni040E
Encoding: 1038 1038 421
Width: 1118
GlyphClass: 1
Flags: W
LayerCount: 2
Fore
SplineSet
809 1555 m 0,0,1
 681 1555 681 1555 612.5 1608.5 c 128,-1,2
 544 1662 544 1662 544 1755 c 0,3,4
 544 1789 544 1789 553 1826 c 1,5,-1
 694 1826 l 1,6,7
 690 1807 690 1807 690 1786 c 0,8,9
 690 1731 690 1731 724.5 1705 c 128,-1,10
 759 1679 759 1679 814 1679 c 0,11,12
 885 1679 885 1679 945 1720 c 128,-1,13
 1005 1761 1005 1761 1024 1826 c 1,14,-1
 1165 1826 l 1,15,16
 1133 1684 1133 1684 1038 1619.5 c 128,-1,17
 943 1555 943 1555 809 1555 c 0,0,1
347 0 m 1,18,-1
 128 0 l 1,19,-1
 429 457 l 1,20,-1
 255 1412 l 1,21,-1
 469 1412 l 1,22,-1
 584 676 l 1,23,-1
 1065 1412 l 1,24,-1
 1289 1412 l 1,25,-1
 347 0 l 1,18,-1
EndSplineSet
Position2: "'cpsp' Capital Spacing lookup 0 per glyph data 0" dx=5 dy=0 dh=10 dv=0
EndChar

StartChar: uni040F
Encoding: 1039 1039 422
Width: 1471
GlyphClass: 1
Flags: W
LayerCount: 2
Fore
SplineSet
650 -307 m 1,0,-1
 448 -307 l 1,1,-1
 519 0 l 1,2,-1
 83 0 l 1,3,-1
 409 1412 l 1,4,-1
 611 1412 l 1,5,-1
 327 182 l 1,6,-1
 997 182 l 1,7,-1
 1281 1412 l 1,8,-1
 1484 1412 l 1,9,-1
 1158 0 l 1,10,-1
 722 0 l 1,11,-1
 650 -307 l 1,0,-1
EndSplineSet
Position2: "'cpsp' Capital Spacing lookup 0 per glyph data 0" dx=5 dy=0 dh=10 dv=0
EndChar

StartChar: uni0410
Encoding: 1040 1040 423
Width: 1323
GlyphClass: 1
Flags: W
LayerCount: 2
Fore
SplineSet
1167 0 m 1,0,-1
 951 0 l 1,1,-1
 912 307 l 1,2,-1
 328 307 l 1,3,-1
 147 0 l 1,4,-1
 -77 0 l 1,5,-1
 794 1412 l 1,6,-1
 948 1412 l 1,7,-1
 1167 0 l 1,0,-1
887 486 m 1,8,-1
 809 1114 l 1,9,-1
 436 486 l 1,10,-1
 887 486 l 1,8,-1
EndSplineSet
Position2: "'cpsp' Capital Spacing lookup 0 per glyph data 0" dx=5 dy=0 dh=10 dv=0
EndChar

StartChar: uni0411
Encoding: 1041 1041 424
Width: 1262
GlyphClass: 1
Flags: W
LayerCount: 2
Fore
SplineSet
595 0 m 2,0,-1
 85 0 l 1,1,-1
 411 1412 l 1,2,-1
 1193 1412 l 1,3,-1
 1150 1229 l 1,4,-1
 570 1229 l 1,5,-1
 476 817 l 1,6,-1
 788 817 l 2,7,8
 911 817 911 817 991 779 c 128,-1,9
 1071 741 1071 741 1109.5 672 c 128,-1,10
 1148 603 1148 603 1148 510 c 0,11,12
 1148 426 1148 426 1119.5 337.5 c 128,-1,13
 1091 249 1091 249 1027 176 c 0,14,15
 944 87 944 87 831.5 43.5 c 128,-1,16
 719 0 719 0 595 0 c 2,0,-1
632 191 m 2,17,18
 734 191 734 191 823 254 c 128,-1,19
 912 317 912 317 944 436 c 0,20,21
 949 455 949 455 949 480 c 0,22,23
 949 554 949 554 892 595.5 c 128,-1,24
 835 637 835 637 743 637 c 2,25,-1
 434 637 l 1,26,-1
 332 191 l 1,27,-1
 632 191 l 2,17,18
EndSplineSet
Position2: "'cpsp' Capital Spacing lookup 0 per glyph data 0" dx=5 dy=0 dh=10 dv=0
EndChar

StartChar: uni0413
Encoding: 1043 1043 426
Width: 1072
GlyphClass: 1
Flags: W
LayerCount: 2
Fore
SplineSet
288 0 m 1,0,-1
 85 0 l 1,1,-1
 411 1412 l 1,2,-1
 1238 1412 l 1,3,-1
 1196 1231 l 1,4,-1
 571 1231 l 1,5,-1
 288 0 l 1,0,-1
EndSplineSet
Position2: "'cpsp' Capital Spacing lookup 0 per glyph data 0" dx=5 dy=0 dh=10 dv=0
EndChar

StartChar: uni0414
Encoding: 1044 1044 427
Width: 1458
GlyphClass: 2
Flags: W
LayerCount: 2
Fore
SplineSet
1185 -307 m 1,0,-1
 983 -307 l 1,1,-1
 1055 0 l 1,2,-1
 129 0 l 1,3,-1
 57 -306 l 1,4,-1
 -145 -307 l 1,5,-1
 -33 182 l 1,6,-1
 124 191 l 1,7,8
 250 367 250 367 325.5 537.5 c 128,-1,9
 401 708 401 708 448 914 c 2,10,-1
 563 1412 l 1,11,-1
 1441 1412 l 1,12,-1
 1156 182 l 1,13,-1
 1297 182 l 1,14,-1
 1185 -307 l 1,0,-1
336 174 m 1,15,-1
 954 182 l 1,16,-1
 1196 1231 l 1,17,-1
 724 1231 l 1,18,-1
 647 899 l 1,19,20
 554 469 554 469 336 174 c 1,15,-1
EndSplineSet
Substitution2: "'ss02' Style Set 2 lookup 16 subtable" uni0414.1
Substitution2: "'ss03' Style Set 3 lookup 15 subtable" uni0431.loclSRB
Substitution2: "'locl' Localized Forms in Cyrillic lookup 10 subtable" uni0414.1
Substitution2: "'locl' Localized Forms in Cyrillic lookup 9 subtable" uni0414.loclSRB
Substitution2: "'locl' Localized Forms in Cyrillic lookup 8 subtable" uni0414.loclSRB
AlternateSubs2: "'aalt' Access All Alternates lookup 1 subtable" uni0431.loclSRB uni0414.1
Position2: "'cpsp' Capital Spacing lookup 0 per glyph data 0" dx=5 dy=0 dh=10 dv=0
EndChar

StartChar: uni0416
Encoding: 1046 1046 429
Width: 2021
GlyphClass: 1
Flags: W
LayerCount: 2
Fore
SplineSet
1854 0 m 1,0,-1
 1609 0 l 1,1,-1
 1547 529 l 2,2,3
 1539 592 1539 592 1503 638.5 c 128,-1,4
 1467 685 1467 685 1397 685 c 2,5,-1
 1154 685 l 1,6,-1
 998 0 l 1,7,-1
 795 0 l 1,8,-1
 952 685 l 1,9,-1
 723 685 l 2,10,11
 653 685 653 685 590.5 631.5 c 128,-1,12
 528 578 528 578 492 512 c 2,13,-1
 186 0 l 1,14,-1
 -65 0 l 1,15,-1
 330 626 l 2,16,17
 358 669 358 669 401.5 714.5 c 128,-1,18
 445 760 445 760 499 792 c 128,-1,19
 553 824 553 824 612 824 c 1,20,-1
 339 1412 l 1,21,-1
 600 1412 l 1,22,-1
 833 868 l 1,23,-1
 994 868 l 1,24,-1
 1121 1412 l 1,25,-1
 1323 1412 l 1,26,-1
 1197 868 l 1,27,-1
 1354 868 l 1,28,-1
 1839 1412 l 1,29,-1
 2109 1412 l 1,30,-1
 1548 824 l 1,31,32
 1605 824 1605 824 1645.5 787 c 128,-1,33
 1686 750 1686 750 1709.5 700.5 c 128,-1,34
 1733 651 1733 651 1739 609 c 2,35,-1
 1854 0 l 1,0,-1
EndSplineSet
Position2: "'cpsp' Capital Spacing lookup 0 per glyph data 0" dx=5 dy=0 dh=10 dv=0
EndChar

StartChar: uni0417
Encoding: 1047 1047 430
Width: 1111
GlyphClass: 1
Flags: W
LayerCount: 2
Fore
SplineSet
404 -20 m 0,0,1
 260 -20 260 -20 149 37.5 c 128,-1,2
 38 95 38 95 -2 210 c 1,3,-1
 180 302 l 1,4,5
 213 156 213 156 420 156 c 0,6,7
 545 156 545 156 651.5 226.5 c 128,-1,8
 758 297 758 297 793 432 c 0,9,10
 800 460 800 460 800 489 c 0,11,12
 800 548 800 548 768 586.5 c 128,-1,13
 736 625 736 625 680.5 643.5 c 128,-1,14
 625 662 625 662 554 662 c 2,15,-1
 398 662 l 1,16,-1
 437 838 l 1,17,-1
 589 838 l 2,18,19
 684 838 684 838 766 895.5 c 128,-1,20
 848 953 848 953 876 1058 c 0,21,22
 882 1084 882 1084 882 1107 c 0,23,24
 882 1180 882 1180 830.5 1216.5 c 128,-1,25
 779 1253 779 1253 702 1253 c 0,26,27
 612 1253 612 1253 530 1203.5 c 128,-1,28
 448 1154 448 1154 419 1066 c 1,29,-1
 222 1083 l 1,30,31
 273 1254 273 1254 413.5 1344 c 128,-1,32
 554 1434 554 1434 717 1434 c 0,33,34
 814 1434 814 1434 895 1400 c 128,-1,35
 976 1366 976 1366 1024.5 1299.5 c 128,-1,36
 1073 1233 1073 1233 1073 1135 c 0,37,38
 1073 988 1073 988 981 874 c 0,39,40
 921 800 921 800 826 756 c 1,41,42
 900 727 900 727 948 661 c 128,-1,43
 996 595 996 595 996 490 c 0,44,45
 996 442 996 442 982 381 c 0,46,47
 949 246 949 246 862.5 157 c 128,-1,48
 776 68 776 68 655.5 24 c 128,-1,49
 535 -20 535 -20 404 -20 c 0,0,1
EndSplineSet
Position2: "'cpsp' Capital Spacing lookup 0 per glyph data 0" dx=5 dy=0 dh=10 dv=0
EndChar

StartChar: uni0418
Encoding: 1048 1048 431
Width: 1438
GlyphClass: 1
Flags: W
LayerCount: 2
Fore
SplineSet
1124 0 m 1,0,-1
 926 0 l 1,1,-1
 1183 1118 l 1,2,-1
 324 0 l 1,3,-1
 85 0 l 1,4,-1
 411 1413 l 1,5,-1
 608 1413 l 1,6,-1
 351 297 l 1,7,-1
 1213 1413 l 1,8,-1
 1450 1413 l 1,9,-1
 1124 0 l 1,0,-1
EndSplineSet
Position2: "'cpsp' Capital Spacing lookup 0 per glyph data 0" dx=5 dy=0 dh=10 dv=0
EndChar

StartChar: uni0419
Encoding: 1049 1049 432
Width: 1474
GlyphClass: 1
Flags: W
LayerCount: 2
Fore
SplineSet
1014 1555 m 0,0,1
 886 1555 886 1555 817.5 1608.5 c 128,-1,2
 749 1662 749 1662 749 1755 c 0,3,4
 749 1789 749 1789 758 1826 c 1,5,-1
 899 1826 l 1,6,7
 895 1807 895 1807 895 1786 c 0,8,9
 895 1730 895 1730 930 1704.5 c 128,-1,10
 965 1679 965 1679 1018 1679 c 0,11,12
 1094 1679 1094 1679 1152.5 1721.5 c 128,-1,13
 1211 1764 1211 1764 1229 1826 c 1,14,-1
 1371 1826 l 1,15,16
 1339 1684 1339 1684 1243.5 1619.5 c 128,-1,17
 1148 1555 1148 1555 1014 1555 c 0,0,1
1160 0 m 1,18,-1
 957 0 l 1,19,20
 1215 1116 1215 1116 1223 1145 c 1,21,-1
 331 0 l 1,22,-1
 85 0 l 1,23,-1
 411 1412 l 1,24,-1
 613 1412 l 1,25,26
 358 305 358 305 346 264 c 1,27,-1
 1240 1412 l 1,28,-1
 1486 1412 l 1,29,-1
 1160 0 l 1,18,-1
EndSplineSet
Position2: "'cpsp' Capital Spacing lookup 0 per glyph data 0" dx=5 dy=0 dh=10 dv=0
EndChar

StartChar: uni041A
Encoding: 1050 1050 433
Width: 1306
GlyphClass: 1
Flags: W
LayerCount: 2
Fore
SplineSet
1144 0 m 1,0,-1
 899 0 l 1,1,-1
 836 529 l 2,2,3
 829 587 829 587 792.5 636 c 128,-1,4
 756 685 756 685 687 685 c 2,5,-1
 444 685 l 1,6,-1
 288 0 l 1,7,-1
 85 0 l 1,8,-1
 411 1412 l 1,9,-1
 613 1412 l 1,10,-1
 487 868 l 1,11,-1
 644 868 l 1,12,-1
 1129 1412 l 1,13,-1
 1399 1412 l 1,14,-1
 839 824 l 1,15,16
 894 824 894 824 934.5 787.5 c 128,-1,17
 975 751 975 751 999 701.5 c 128,-1,18
 1023 652 1023 652 1029 609 c 2,19,-1
 1144 0 l 1,0,-1
EndSplineSet
Position2: "'cpsp' Capital Spacing lookup 0 per glyph data 0" dx=5 dy=0 dh=10 dv=0
EndChar

StartChar: uni041B
Encoding: 1051 1051 434
Width: 1423
GlyphClass: 2
Flags: W
LayerCount: 2
Fore
SplineSet
110 -20 m 0,0,1
 12 -20 12 -20 -70 36 c 1,2,-1
 30 207 l 1,3,4
 60 182 60 182 97 182 c 0,5,6
 176 182 176 182 243 307 c 0,7,8
 306 425 306 425 360.5 611 c 128,-1,9
 415 797 415 797 481 1087 c 2,10,-1
 556 1412 l 1,11,-1
 1434 1412 l 1,12,-1
 1109 0 l 1,13,-1
 907 0 l 1,14,-1
 1190 1231 l 1,15,-1
 716 1231 l 1,16,-1
 658 979 l 2,17,18
 582 651 582 651 521 453.5 c 128,-1,19
 460 256 460 256 359 118 c 128,-1,20
 258 -20 258 -20 110 -20 c 0,0,1
EndSplineSet
Substitution2: "'ss02' Style Set 2 lookup 16 subtable" uni041B.1
Substitution2: "'ss03' Style Set 3 lookup 15 subtable" uni0414.loclSRB
Substitution2: "'locl' Localized Forms in Cyrillic lookup 10 subtable" uni041B.1
Substitution2: "'locl' Localized Forms in Cyrillic lookup 9 subtable" uni041B.loclSRB
Substitution2: "'locl' Localized Forms in Cyrillic lookup 8 subtable" uni041B.loclSRB
AlternateSubs2: "'aalt' Access All Alternates lookup 1 subtable" uni0414.loclSRB uni041B.1
Position2: "'cpsp' Capital Spacing lookup 0 per glyph data 0" dx=5 dy=0 dh=10 dv=0
EndChar

StartChar: uni041F
Encoding: 1055 1055 438
Width: 1471
GlyphClass: 1
Flags: W
LayerCount: 2
Fore
SplineSet
1158 0 m 1,0,-1
 956 0 l 1,1,-1
 1239 1231 l 1,2,-1
 569 1231 l 1,3,-1
 286 0 l 1,4,-1
 83 0 l 1,5,-1
 409 1412 l 1,6,-1
 1484 1412 l 1,7,-1
 1158 0 l 1,0,-1
EndSplineSet
Position2: "'cpsp' Capital Spacing lookup 0 per glyph data 0" dx=5 dy=0 dh=10 dv=0
EndChar

StartChar: uni0420
Encoding: 1056 1056 439
Width: 1158
GlyphClass: 1
Flags: W
LayerCount: 2
Fore
SplineSet
286 0 m 1,0,-1
 83 0 l 1,1,-1
 409 1412 l 1,2,-1
 821 1412 l 2,3,4
 938 1412 938 1412 1027 1376.5 c 128,-1,5
 1116 1341 1116 1341 1166 1271 c 128,-1,6
 1216 1201 1216 1201 1216 1097 c 0,7,8
 1216 1045 1216 1045 1203 992 c 0,9,10
 1158 805 1158 805 1008 709 c 128,-1,11
 858 613 858 613 649 613 c 2,12,-1
 427 613 l 1,13,-1
 286 0 l 1,0,-1
679 800 m 2,14,15
 819 800 819 800 902.5 859.5 c 128,-1,16
 986 919 986 919 1011 1028 c 0,17,18
 1018 1061 1018 1061 1018 1081 c 0,19,20
 1018 1150 1018 1150 962.5 1188.5 c 128,-1,21
 907 1227 907 1227 790 1227 c 2,22,-1
 568 1227 l 1,23,-1
 469 800 l 1,24,-1
 679 800 l 2,14,15
EndSplineSet
Position2: "'cpsp' Capital Spacing lookup 0 per glyph data 0" dx=5 dy=0 dh=10 dv=0
EndChar

StartChar: uni0421
Encoding: 1057 1057 440
Width: 1428
GlyphClass: 1
Flags: W
LayerCount: 2
Fore
SplineSet
655 -20 m 0,0,1
 475 -20 475 -20 358.5 47 c 128,-1,2
 242 114 242 114 185.5 231 c 128,-1,3
 129 348 129 348 129 499 c 0,4,5
 129 633 129 633 174 788.5 c 128,-1,6
 219 944 219 944 311 1084 c 0,7,8
 418 1245 418 1245 585 1340.5 c 128,-1,9
 752 1436 752 1436 964 1436 c 0,10,11
 1178 1436 1178 1436 1308.5 1330.5 c 128,-1,12
 1439 1225 1439 1225 1479 1037 c 1,13,-1
 1279 978 l 1,14,15
 1264 1244 1264 1244 943 1244 c 0,16,17
 784 1244 784 1244 664 1171 c 128,-1,18
 544 1098 544 1098 465.5 975.5 c 128,-1,19
 387 853 387 853 352 699 c 0,20,21
 329 599 329 599 329 515 c 0,22,23
 329 355 329 355 413 263 c 128,-1,24
 497 171 497 171 674 171 c 0,25,26
 982 171 982 171 1156 457 c 1,27,-1
 1328 363 l 1,28,29
 1198 166 1198 166 1023 73 c 128,-1,30
 848 -20 848 -20 655 -20 c 0,0,1
EndSplineSet
Position2: "'cpsp' Capital Spacing lookup 0 per glyph data 0" dx=5 dy=0 dh=10 dv=0
EndChar

StartChar: uni0422
Encoding: 1058 1058 441
Width: 1208
GlyphClass: 1
Flags: W
LayerCount: 2
Fore
SplineSet
591 0 m 1,0,-1
 388 0 l 1,1,-1
 673 1237 l 1,2,-1
 211 1237 l 1,3,-1
 252 1412 l 1,4,-1
 1378 1412 l 1,5,-1
 1337 1237 l 1,6,-1
 875 1237 l 1,7,-1
 591 0 l 1,0,-1
EndSplineSet
Position2: "'cpsp' Capital Spacing lookup 0 per glyph data 0" dx=5 dy=0 dh=10 dv=0
EndChar

StartChar: uni0423
Encoding: 1059 1059 442
Width: 1118
GlyphClass: 1
Flags: W
LayerCount: 2
Fore
SplineSet
347 0 m 1,0,-1
 128 0 l 1,1,-1
 429 457 l 1,2,-1
 255 1412 l 1,3,-1
 469 1412 l 1,4,-1
 584 676 l 1,5,-1
 1065 1412 l 1,6,-1
 1289 1412 l 1,7,-1
 347 0 l 1,0,-1
EndSplineSet
Position2: "'cpsp' Capital Spacing lookup 0 per glyph data 0" dx=5 dy=0 dh=10 dv=0
EndChar

StartChar: uni0424
Encoding: 1060 1060 443
Width: 1738
GlyphClass: 1
Flags: W
LayerCount: 2
Fore
SplineSet
856 0 m 1,0,-1
 652 0 l 1,1,-1
 683 109 l 1,2,3
 494 109 494 109 373 163 c 128,-1,4
 252 217 252 217 194 314.5 c 128,-1,5
 136 412 136 412 136 544 c 0,6,7
 136 626 136 626 159 724 c 0,8,9
 199 899 199 899 299.5 1032 c 128,-1,10
 400 1165 400 1165 570 1241 c 0,11,12
 732 1312 732 1312 948 1312 c 1,13,-1
 978 1412 l 1,14,-1
 1182 1412 l 1,15,-1
 1152 1312 l 1,16,17
 1341 1312 1341 1312 1461.5 1256.5 c 128,-1,18
 1582 1201 1582 1201 1640 1101 c 128,-1,19
 1698 1001 1698 1001 1698 867 c 0,20,21
 1698 781 1698 781 1676 687 c 0,22,23
 1636 512 1636 512 1537 382.5 c 128,-1,24
 1438 253 1438 253 1276 181 c 128,-1,25
 1114 109 1114 109 887 109 c 1,26,-1
 856 0 l 1,0,-1
712 292 m 1,27,-1
 918 1129 l 1,28,29
 761 1129 761 1129 646.5 1074 c 128,-1,30
 532 1019 532 1019 460 920 c 128,-1,31
 388 821 388 821 358 687 c 0,32,33
 342 617 342 617 342 565 c 0,34,35
 342 434 342 434 431.5 363 c 128,-1,36
 521 292 521 292 712 292 c 1,27,-1
916 292 m 1,37,38
 1073 292 1073 292 1187.5 345 c 128,-1,39
 1302 398 1302 398 1374 494.5 c 128,-1,40
 1446 591 1446 591 1476 724 c 0,41,42
 1491 790 1491 790 1491 845 c 0,43,44
 1491 977 1491 977 1402.5 1053 c 128,-1,45
 1314 1129 1314 1129 1122 1129 c 1,46,-1
 916 292 l 1,37,38
EndSplineSet
Position2: "'cpsp' Capital Spacing lookup 0 per glyph data 0" dx=5 dy=0 dh=10 dv=0
EndChar

StartChar: uni0425
Encoding: 1061 1061 444
Width: 1304
GlyphClass: 1
Flags: W
LayerCount: 2
Fore
SplineSet
1134 0 m 1,0,-1
 898 0 l 1,1,-1
 668 558 l 1,2,-1
 182 0 l 1,3,-1
 -65 0 l 1,4,-1
 569 707 l 1,5,-1
 267 1413 l 1,6,-1
 506 1413 l 1,7,-1
 726 846 l 1,8,-1
 1217 1413 l 1,9,-1
 1463 1413 l 1,10,-1
 830 707 l 1,11,-1
 1134 0 l 1,0,-1
EndSplineSet
Position2: "'cpsp' Capital Spacing lookup 0 per glyph data 0" dx=5 dy=0 dh=10 dv=0
EndChar

StartChar: uni0426
Encoding: 1062 1062 445
Width: 1503
GlyphClass: 1
Flags: W
LayerCount: 2
Fore
SplineSet
1243 -278 m 1,0,-1
 1041 -278 l 1,1,-1
 1106 0 l 1,2,-1
 85 0 l 1,3,-1
 411 1412 l 1,4,-1
 613 1412 l 1,5,-1
 329 182 l 1,6,-1
 999 182 l 1,7,-1
 1283 1412 l 1,8,-1
 1486 1412 l 1,9,-1
 1201 182 l 1,10,-1
 1348 182 l 1,11,-1
 1243 -278 l 1,0,-1
EndSplineSet
Position2: "'cpsp' Capital Spacing lookup 0 per glyph data 0" dx=5 dy=0 dh=10 dv=0
EndChar

StartChar: uni0427
Encoding: 1063 1063 446
Width: 1338
GlyphClass: 1
Flags: W
LayerCount: 2
Fore
SplineSet
1024 0 m 1,0,-1
 820 0 l 1,1,-1
 941 507 l 1,2,3
 796 410 796 410 615 410 c 0,4,5
 404 410 404 410 301.5 513.5 c 128,-1,6
 199 617 199 617 199 801 c 0,7,8
 199 891 199 891 226 1009 c 2,9,-1
 319 1412 l 1,10,-1
 522 1412 l 1,11,-1
 427 1002 l 2,12,13
 402 896 402 896 402 820 c 0,14,15
 402 709 402 709 459.5 657.5 c 128,-1,16
 517 606 517 606 635 606 c 0,17,18
 747 606 747 606 837.5 647 c 128,-1,19
 928 688 928 688 989 746 c 1,20,-1
 1146 1412 l 1,21,-1
 1350 1412 l 1,22,-1
 1024 0 l 1,0,-1
EndSplineSet
Position2: "'cpsp' Capital Spacing lookup 0 per glyph data 0" dx=5 dy=0 dh=10 dv=0
EndChar

StartChar: uni0428
Encoding: 1064 1064 447
Width: 1775
GlyphClass: 1
Flags: W
LayerCount: 2
Fore
SplineSet
1461 0 m 1,0,-1
 85 0 l 1,1,-1
 411 1412 l 1,2,-1
 613 1412 l 1,3,-1
 329 182 l 1,4,-1
 711 182 l 1,5,-1
 996 1412 l 1,6,-1
 1199 1412 l 1,7,-1
 914 182 l 1,8,-1
 1299 182 l 1,9,-1
 1584 1412 l 1,10,-1
 1787 1412 l 1,11,-1
 1461 0 l 1,0,-1
EndSplineSet
Position2: "'cpsp' Capital Spacing lookup 0 per glyph data 0" dx=5 dy=0 dh=10 dv=0
EndChar

StartChar: uni0429
Encoding: 1065 1065 448
Width: 1802
GlyphClass: 1
Flags: W
LayerCount: 2
Fore
SplineSet
1542 -278 m 1,0,-1
 1340 -278 l 1,1,-1
 1405 0 l 1,2,-1
 83 0 l 1,3,-1
 409 1412 l 1,4,-1
 611 1412 l 1,5,-1
 327 182 l 1,6,-1
 709 182 l 1,7,-1
 994 1412 l 1,8,-1
 1197 1412 l 1,9,-1
 913 182 l 1,10,-1
 1298 182 l 1,11,-1
 1582 1412 l 1,12,-1
 1785 1412 l 1,13,-1
 1500 182 l 1,14,-1
 1647 182 l 1,15,-1
 1542 -278 l 1,0,-1
EndSplineSet
Position2: "'cpsp' Capital Spacing lookup 0 per glyph data 0" dx=5 dy=0 dh=10 dv=0
EndChar

StartChar: uni042A
Encoding: 1066 1066 449
Width: 1385
GlyphClass: 1
Flags: W
LayerCount: 2
Fore
SplineSet
735 0 m 2,0,-1
 312 0 l 1,1,-1
 597 1238 l 1,2,-1
 211 1238 l 1,3,-1
 252 1412 l 1,4,-1
 839 1412 l 1,5,-1
 698 799 l 1,6,-1
 908 799 l 2,7,8
 1027 799 1027 799 1116.5 763.5 c 128,-1,9
 1206 728 1206 728 1255.5 659 c 128,-1,10
 1305 590 1305 590 1305 489 c 0,11,12
 1305 321 1305 321 1186 178 c 1,13,14
 1104 88 1104 88 986.5 44 c 128,-1,15
 869 0 869 0 735 0 c 2,0,-1
766 186 m 2,16,17
 907 186 907 186 991.5 250 c 128,-1,18
 1076 314 1076 314 1100 421 c 0,19,20
 1107 454 1107 454 1107 473 c 0,21,22
 1107 613 1107 613 877 613 c 2,23,-1
 655 613 l 1,24,-1
 555 186 l 1,25,-1
 766 186 l 2,16,17
EndSplineSet
Position2: "'cpsp' Capital Spacing lookup 0 per glyph data 0" dx=5 dy=0 dh=10 dv=0
EndChar

StartChar: uni042B
Encoding: 1067 1067 450
Width: 1682
GlyphClass: 1
Flags: W
LayerCount: 2
Fore
SplineSet
507 0 m 2,0,-1
 83 0 l 1,1,-1
 409 1412 l 1,2,-1
 611 1412 l 1,3,-1
 470 799 l 1,4,-1
 679 799 l 2,5,6
 795 799 795 799 884.5 765 c 128,-1,7
 974 731 974 731 1025.5 662.5 c 128,-1,8
 1077 594 1077 594 1077 489 c 0,9,10
 1077 321 1077 321 958 178 c 1,11,12
 876 88 876 88 758.5 44 c 128,-1,13
 641 0 641 0 507 0 c 2,0,-1
1370 0 m 1,14,-1
 1167 0 l 1,15,-1
 1493 1412 l 1,16,-1
 1695 1412 l 1,17,-1
 1370 0 l 1,14,-1
537 186 m 2,18,19
 678 186 678 186 762.5 250 c 128,-1,20
 847 314 847 314 871 421 c 0,21,22
 878 454 878 454 878 473 c 0,23,24
 878 613 878 613 648 613 c 2,25,-1
 427 613 l 1,26,-1
 327 186 l 1,27,-1
 537 186 l 2,18,19
EndSplineSet
Position2: "'cpsp' Capital Spacing lookup 0 per glyph data 0" dx=5 dy=0 dh=10 dv=0
EndChar

StartChar: uni042C
Encoding: 1068 1068 451
Width: 1157
GlyphClass: 1
Flags: W
LayerCount: 2
Fore
SplineSet
507 0 m 2,0,-1
 83 0 l 1,1,-1
 409 1412 l 1,2,-1
 611 1412 l 1,3,-1
 470 799 l 1,4,-1
 679 799 l 2,5,6
 795 799 795 799 884.5 765 c 128,-1,7
 974 731 974 731 1025.5 662.5 c 128,-1,8
 1077 594 1077 594 1077 489 c 0,9,10
 1077 321 1077 321 958 178 c 1,11,12
 876 88 876 88 758.5 44 c 128,-1,13
 641 0 641 0 507 0 c 2,0,-1
537 186 m 2,14,15
 678 186 678 186 762.5 250 c 128,-1,16
 847 314 847 314 871 421 c 0,17,18
 878 454 878 454 878 473 c 0,19,20
 878 613 878 613 648 613 c 2,21,-1
 427 613 l 1,22,-1
 327 186 l 1,23,-1
 537 186 l 2,14,15
EndSplineSet
Position2: "'cpsp' Capital Spacing lookup 0 per glyph data 0" dx=5 dy=0 dh=10 dv=0
EndChar

StartChar: uni042D
Encoding: 1069 1069 452
Width: 1426
GlyphClass: 1
Flags: W
LayerCount: 2
Fore
SplineSet
556 -20 m 0,0,1
 353 -20 353 -20 218 81 c 128,-1,2
 83 182 83 182 43 380 c 1,3,-1
 241 440 l 1,4,5
 261 302 261 302 342 236.5 c 128,-1,6
 423 171 423 171 576 171 c 0,7,8
 719 171 719 171 831 231 c 128,-1,9
 943 291 943 291 1022 395 c 128,-1,10
 1101 499 1101 499 1145 632 c 1,11,-1
 543 624 l 1,12,-1
 582 795 l 1,13,-1
 1186 804 l 1,14,15
 1193 850 1193 850 1193 901 c 0,16,17
 1193 1059 1193 1059 1109.5 1151.5 c 128,-1,18
 1026 1244 1026 1244 852 1244 c 0,19,20
 703 1244 703 1244 575.5 1177 c 128,-1,21
 448 1110 448 1110 369 961 c 1,22,-1
 196 1054 l 1,23,24
 330 1251 330 1251 504 1343.5 c 128,-1,25
 678 1436 678 1436 870 1436 c 0,26,27
 1048 1436 1048 1436 1164 1369 c 128,-1,28
 1280 1302 1280 1302 1337 1184.5 c 128,-1,29
 1394 1067 1394 1067 1394 915 c 0,30,31
 1394 777 1394 777 1348 622 c 128,-1,32
 1302 467 1302 467 1212 331 c 0,33,34
 1103 170 1103 170 936 75 c 128,-1,35
 769 -20 769 -20 556 -20 c 0,0,1
EndSplineSet
Position2: "'cpsp' Capital Spacing lookup 0 per glyph data 0" dx=5 dy=0 dh=10 dv=0
EndChar

StartChar: uni042E
Encoding: 1070 1070 453
Width: 1944
GlyphClass: 2
Flags: W
LayerCount: 2
Fore
SplineSet
1075 -20 m 0,0,1
 896 -20 896 -20 779.5 46.5 c 128,-1,2
 663 113 663 113 606.5 229.5 c 128,-1,3
 550 346 550 346 550 495 c 0,4,5
 550 551 550 551 560 624 c 1,6,-1
 427 616 l 1,7,-1
 286 0 l 1,8,-1
 83 0 l 1,9,-1
 409 1412 l 1,10,-1
 611 1412 l 1,11,-1
 469 797 l 1,12,-1
 600 806 l 1,13,14
 655 980 655 980 762 1122.5 c 128,-1,15
 869 1265 869 1265 1033 1352 c 0,16,17
 1190 1434 1190 1434 1386 1434 c 0,18,19
 1566 1434 1566 1434 1682.5 1367.5 c 128,-1,20
 1799 1301 1799 1301 1855 1183.5 c 128,-1,21
 1911 1066 1911 1066 1911 914 c 0,22,23
 1911 770 1911 770 1865.5 617.5 c 128,-1,24
 1820 465 1820 465 1732 332 c 0,25,26
 1624 171 1624 171 1456.5 75.5 c 128,-1,27
 1289 -20 1289 -20 1075 -20 c 0,0,1
1092 163 m 0,28,29
 1250 163 1250 163 1372 240 c 0,30,31
 1497 321 1497 321 1573.5 447.5 c 128,-1,32
 1650 574 1650 574 1684 725 c 0,33,34
 1706 822 1706 822 1706 905 c 0,35,36
 1706 1063 1706 1063 1624.5 1156.5 c 128,-1,37
 1543 1250 1543 1250 1368 1250 c 0,38,39
 1211 1250 1211 1250 1091 1174 c 0,40,41
 966 1092 966 1092 889.5 965.5 c 128,-1,42
 813 839 813 839 779 688 c 0,43,44
 756 591 756 591 756 506 c 0,45,46
 756 349 756 349 837.5 256 c 128,-1,47
 919 163 919 163 1092 163 c 0,28,29
EndSplineSet
Substitution2: "'ss02' Style Set 2 lookup 16 subtable" uni042E.1
Substitution2: "'ss03' Style Set 3 lookup 15 subtable" uni041B.loclSRB
Substitution2: "'locl' Localized Forms in Cyrillic lookup 10 subtable" uni042E.1
AlternateSubs2: "'aalt' Access All Alternates lookup 1 subtable" uni041B.loclSRB uni042E.1
Position2: "'cpsp' Capital Spacing lookup 0 per glyph data 0" dx=5 dy=0 dh=10 dv=0
EndChar

StartChar: uni042F
Encoding: 1071 1071 454
Width: 1239
GlyphClass: 1
Flags: W
LayerCount: 2
Fore
SplineSet
923 -2 m 1,0,-1
 719 -2 l 1,1,-1
 860 619 l 1,2,-1
 653 619 l 1,3,-1
 173 -2 l 1,4,-1
 -68 -2 l 1,5,-1
 460 639 l 1,6,7
 363 678 363 678 316.5 762 c 128,-1,8
 270 846 270 846 270 948 c 0,9,10
 270 1001 270 1001 282 1055 c 0,11,12
 325 1242 325 1242 470.5 1327 c 128,-1,13
 616 1412 616 1412 825 1412 c 2,14,-1
 1247 1412 l 1,15,-1
 923 -2 l 1,0,-1
900 794 m 1,16,-1
 1000 1231 l 1,17,-1
 767 1231 l 2,18,19
 654 1231 654 1231 572.5 1179.5 c 128,-1,20
 491 1128 491 1128 464 1025 c 0,21,22
 457 996 457 996 457 967 c 0,23,24
 457 885 457 885 512.5 842 c 128,-1,25
 568 799 568 799 658 794 c 1,26,-1
 900 794 l 1,16,-1
EndSplineSet
Position2: "'cpsp' Capital Spacing lookup 0 per glyph data 0" dx=5 dy=0 dh=10 dv=0
EndChar

StartChar: uni0431
Encoding: 1073 1073 456
Width: 1237
GlyphClass: 1
Flags: W
LayerCount: 2
Fore
SplineSet
559 -20 m 0,0,1
 431 -20 431 -20 341.5 27.5 c 128,-1,2
 252 75 252 75 205 160 c 128,-1,3
 158 245 158 245 158 357 c 0,4,5
 158 425 158 425 176 503 c 2,6,-1
 237 760 l 2,7,8
 284 959 284 959 372 1071.5 c 128,-1,9
 460 1184 460 1184 564 1250 c 1,10,11
 689 1314 689 1314 832 1354.5 c 128,-1,12
 975 1395 975 1395 1169 1436 c 1,13,-1
 1136 1242 l 1,14,15
 702 1143 702 1143 557 1034 c 0,16,17
 464 964 464 964 416 787 c 1,18,19
 489 862 489 862 593.5 911 c 128,-1,20
 698 960 698 960 818 960 c 0,21,22
 940 960 940 960 1021 916 c 128,-1,23
 1102 872 1102 872 1142 793.5 c 128,-1,24
 1182 715 1182 715 1182 612 c 0,25,26
 1182 514 1182 514 1148 412.5 c 128,-1,27
 1114 311 1114 311 1044 221 c 0,28,29
 958 113 958 113 832.5 46.5 c 128,-1,30
 707 -20 707 -20 559 -20 c 0,0,1
571 144 m 0,31,32
 673 144 673 144 751.5 191 c 128,-1,33
 830 238 830 238 882 316 c 128,-1,34
 934 394 934 394 958 491 c 0,35,36
 972 551 972 551 972 596 c 0,37,38
 972 686 972 686 920.5 740 c 128,-1,39
 869 794 869 794 753 794 c 0,40,41
 653 794 653 794 574 744.5 c 128,-1,42
 495 695 495 695 442.5 617.5 c 128,-1,43
 390 540 390 540 370 454 c 0,44,45
 355 395 355 395 355 345 c 0,46,47
 355 255 355 255 406 199.5 c 128,-1,48
 457 144 457 144 571 144 c 0,31,32
EndSplineSet
Substitution2: "'locl' Localized Forms in Cyrillic lookup 8 subtable" uni0431.loclSRB
EndChar

StartChar: uni0432
Encoding: 1074 1074 457
Width: 1099
GlyphClass: 2
Flags: W
LayerCount: 2
Fore
SplineSet
490 0 m 2,0,-1
 42 0 l 1,1,-1
 281 1039 l 1,2,-1
 717 1039 l 2,3,4
 869 1039 869 1039 951.5 992.5 c 128,-1,5
 1034 946 1034 946 1034 832 c 0,6,7
 1034 703 1034 703 958 617 c 0,8,9
 908 561 908 561 819 541 c 1,10,11
 894 532 894 532 933.5 482.5 c 128,-1,12
 973 433 973 433 973 354 c 0,13,14
 973 294 973 294 950.5 226 c 128,-1,15
 928 158 928 158 883 111 c 0,16,17
 828 54 828 54 733.5 27 c 128,-1,18
 639 0 639 0 490 0 c 2,0,-1
632 620 m 2,19,20
 712 620 712 620 765 660 c 0,21,22
 836 712 836 712 837 790 c 0,23,24
 837 831 837 831 803 848 c 128,-1,25
 769 865 769 865 695 865 c 2,26,-1
 436 865 l 1,27,-1
 383 620 l 1,28,-1
 632 620 l 2,19,20
526 177 m 2,29,30
 641 177 641 177 701.5 214 c 128,-1,31
 762 251 762 251 773 309 c 0,32,33
 777 330 777 330 777 351 c 0,34,35
 777 407 777 407 736.5 428.5 c 128,-1,36
 696 450 696 450 600 450 c 2,37,-1
 341 450 l 1,38,-1
 281 177 l 1,39,-1
 526 177 l 2,29,30
EndSplineSet
Substitution2: "'ss02' Style Set 2 lookup 16 subtable" uni0432.1
Substitution2: "'ss03' Style Set 3 lookup 15 subtable" uni0432.loclSRB
Substitution2: "'locl' Localized Forms in Cyrillic lookup 10 subtable" uni0432.1
Substitution2: "'locl' Localized Forms in Cyrillic lookup 9 subtable" uni0432.loclSRB
Substitution2: "'locl' Localized Forms in Cyrillic lookup 8 subtable" uni0432.loclSRB
AlternateSubs2: "'aalt' Access All Alternates lookup 1 subtable" uni0432.loclSRB uni0432.1
EndChar

StartChar: uni0433
Encoding: 1075 1075 458
Width: 813
GlyphClass: 2
Flags: W
LayerCount: 2
Fore
SplineSet
245 0 m 1,0,-1
 42 0 l 1,1,-1
 281 1039 l 1,2,-1
 917 1039 l 1,3,-1
 883 891 l 1,4,-1
 449 891 l 1,5,-1
 245 0 l 1,0,-1
EndSplineSet
Substitution2: "'ss02' Style Set 2 lookup 16 subtable" uni0433.1
Substitution2: "'ss03' Style Set 3 lookup 15 subtable" uni0433.loclSRB
Substitution2: "'locl' Localized Forms in Cyrillic lookup 10 subtable" uni0433.1
Substitution2: "'locl' Localized Forms in Cyrillic lookup 9 subtable" uni0433.loclSRB
Substitution2: "'locl' Localized Forms in Cyrillic lookup 8 subtable" uni0433.loclSRB
AlternateSubs2: "'aalt' Access All Alternates lookup 1 subtable" uni0433.loclSRB uni0433.1
EndChar

StartChar: uni0434
Encoding: 1076 1076 459
Width: 1211
GlyphClass: 2
Flags: W
LayerCount: 2
Fore
SplineSet
944 -307 m 1,0,-1
 742 -307 l 1,1,-1
 815 0 l 1,2,-1
 98 0 l 1,3,-1
 24 -307 l 1,4,-1
 -180 -307 l 1,5,-1
 -71 149 l 1,6,-1
 58 156 l 1,7,8
 224 309 224 309 300 646 c 2,9,-1
 389 1039 l 1,10,-1
 1134 1039 l 1,11,-1
 929 149 l 1,12,-1
 1054 149 l 1,13,-1
 944 -307 l 1,0,-1
275 143 m 1,14,-1
 726 149 l 1,15,-1
 895 891 l 1,16,-1
 558 891 l 1,17,-1
 500 635 l 2,18,19
 462 465 462 465 407.5 340.5 c 128,-1,20
 353 216 353 216 275 143 c 1,14,-1
EndSplineSet
Substitution2: "'ss02' Style Set 2 lookup 16 subtable" uni0434.1
Substitution2: "'ss03' Style Set 3 lookup 15 subtable" uni0434.loclSRB
Substitution2: "'locl' Localized Forms in Cyrillic lookup 10 subtable" uni0434.1
Substitution2: "'locl' Localized Forms in Cyrillic lookup 9 subtable" uni0434.loclSRB
Substitution2: "'locl' Localized Forms in Cyrillic lookup 8 subtable" uni0434.loclSRB
AlternateSubs2: "'aalt' Access All Alternates lookup 1 subtable" uni0434.loclSRB uni0434.1
EndChar

StartChar: uni0435
Encoding: 1077 1077 460
Width: 1073
GlyphClass: 1
Flags: W
LayerCount: 2
Fore
SplineSet
455 -12 m 0,0,1
 322 -12 322 -12 235 38 c 128,-1,2
 148 88 148 88 105 175 c 128,-1,3
 62 262 62 262 62 375 c 0,4,5
 62 490 62 490 101.5 609 c 128,-1,6
 141 728 141 728 217 828 c 128,-1,7
 293 928 293 928 402.5 990 c 128,-1,8
 512 1052 512 1052 651 1052 c 0,9,10
 845 1052 845 1052 932 953 c 128,-1,11
 1019 854 1019 854 1019 691 c 0,12,13
 1019 600 1019 600 995 494 c 0,14,15
 990 473 990 473 980 447 c 1,16,-1
 264 447 l 1,17,18
 257 409 257 409 256 371 c 0,19,20
 256 280 256 280 306.5 222.5 c 128,-1,21
 357 165 357 165 466 165 c 0,22,23
 565 165 565 165 637.5 192 c 128,-1,24
 710 219 710 219 775 277 c 1,25,-1
 893 144 l 1,26,27
 795 63 795 63 690 25.5 c 128,-1,28
 585 -12 585 -12 455 -12 c 0,0,1
834 594 m 1,29,30
 842 638 842 638 842 686 c 0,31,32
 842 789 842 789 790 837 c 128,-1,33
 738 885 738 885 627 885 c 256,34,35
 516 885 516 885 428.5 802.5 c 128,-1,36
 341 720 341 720 300 594 c 1,37,-1
 834 594 l 1,29,30
EndSplineSet
EndChar

StartChar: uni0436
Encoding: 1078 1078 461
Width: 1539
GlyphClass: 2
Flags: W
LayerCount: 2
Fore
SplineSet
1386 0 m 1,0,-1
 1152 0 l 1,1,-1
 1114 381 l 2,2,3
 1107 449 1107 449 1078.5 478 c 128,-1,4
 1050 507 1050 507 993 507 c 2,5,-1
 866 507 l 1,6,-1
 751 0 l 1,7,-1
 549 0 l 1,8,-1
 665 507 l 1,9,-1
 550 507 l 2,10,11
 440 507 440 507 362 363 c 1,12,-1
 150 0 l 1,13,-1
 -90 0 l 1,14,-1
 193 470 l 2,15,16
 233 532 233 532 286.5 579.5 c 128,-1,17
 340 627 340 627 396 627 c 1,18,-1
 213 1039 l 1,19,-1
 446 1039 l 1,20,-1
 596 658 l 1,21,-1
 701 658 l 1,22,-1
 787 1039 l 1,23,-1
 990 1039 l 1,24,-1
 903 658 l 1,25,-1
 1003 658 l 1,26,-1
 1326 1039 l 1,27,-1
 1570 1039 l 1,28,-1
 1184 627 l 1,29,30
 1236 627 1236 627 1269.5 571.5 c 128,-1,31
 1303 516 1303 516 1312 452 c 2,32,-1
 1386 0 l 1,0,-1
EndSplineSet
Substitution2: "'ss02' Style Set 2 lookup 16 subtable" uni0436.1
Substitution2: "'ss03' Style Set 3 lookup 15 subtable" uni0436.loclSRB
Substitution2: "'locl' Localized Forms in Cyrillic lookup 10 subtable" uni0436.1
Substitution2: "'locl' Localized Forms in Cyrillic lookup 9 subtable" uni0436.loclSRB
Substitution2: "'locl' Localized Forms in Cyrillic lookup 8 subtable" uni0436.loclSRB
AlternateSubs2: "'aalt' Access All Alternates lookup 1 subtable" uni0436.loclSRB uni0436.1
EndChar

StartChar: uni0437
Encoding: 1079 1079 462
Width: 1009
GlyphClass: 2
Flags: W
LayerCount: 2
Fore
SplineSet
357 -20 m 0,0,1
 213 -20 213 -20 116.5 40.5 c 128,-1,2
 20 101 20 101 -28 204 c 1,3,-1
 158 315 l 1,4,5
 175 233 175 233 233 192.5 c 128,-1,6
 291 152 291 152 368 152 c 0,7,8
 502 152 502 152 580.5 193 c 128,-1,9
 659 234 659 234 679 321 c 0,10,11
 684 341 684 341 684 363 c 0,12,13
 684 408 684 408 644.5 425 c 128,-1,14
 605 442 605 442 497 442 c 2,15,-1
 369 442 l 1,16,-1
 411 612 l 1,17,-1
 541 613 l 1,18,19
 717 629 717 629 743 772 c 0,20,21
 746 785 746 785 746 797 c 0,22,23
 746 840 746 840 703.5 858.5 c 128,-1,24
 661 877 661 877 576 877 c 0,25,26
 503 877 503 877 421.5 835.5 c 128,-1,27
 340 794 340 794 275 711 c 1,28,-1
 113 827 l 1,29,30
 224 954 224 954 340 1003 c 128,-1,31
 456 1052 456 1052 586 1052 c 0,32,33
 939 1052 939 1052 939 825 c 0,34,35
 939 769 939 769 920 710 c 128,-1,36
 901 651 901 651 862 610 c 0,37,38
 811 557 811 557 709 532 c 1,39,40
 785 522 785 522 830.5 475 c 128,-1,41
 876 428 876 428 876 346 c 0,42,43
 876 310 876 310 868 276 c 0,44,45
 801 -20 801 -20 357 -20 c 0,0,1
EndSplineSet
Substitution2: "'ss02' Style Set 2 lookup 16 subtable" uni0437.1
Substitution2: "'ss03' Style Set 3 lookup 15 subtable" uni0437.loclSRB
Substitution2: "'locl' Localized Forms in Cyrillic lookup 10 subtable" uni0437.1
Substitution2: "'locl' Localized Forms in Cyrillic lookup 9 subtable" uni0437.loclSRB
Substitution2: "'locl' Localized Forms in Cyrillic lookup 8 subtable" uni0437.loclSRB
AlternateSubs2: "'aalt' Access All Alternates lookup 1 subtable" uni0437.loclSRB uni0437.1
EndChar

StartChar: uni0438
Encoding: 1080 1080 463
Width: 1222
GlyphClass: 2
Flags: W
LayerCount: 2
Fore
SplineSet
937 0 m 1,0,-1
 735 0 l 1,1,-1
 881 638 l 2,2,3
 898 708 898 708 920 763 c 1,4,5
 912 755 912 755 277 0 c 1,6,-1
 50 0 l 1,7,-1
 289 1039 l 1,8,-1
 492 1039 l 1,9,-1
 346 401 l 2,10,11
 330 340 330 340 307 276 c 1,12,-1
 951 1039 l 1,13,-1
 1176 1039 l 1,14,-1
 937 0 l 1,0,-1
EndSplineSet
Substitution2: "'ss02' Style Set 2 lookup 16 subtable" uni0438.1
Substitution2: "'ss03' Style Set 3 lookup 15 subtable" uni0438.loclSRB
Substitution2: "'locl' Localized Forms in Cyrillic lookup 10 subtable" uni0438.1
Substitution2: "'locl' Localized Forms in Cyrillic lookup 9 subtable" uni0438.loclSRB
Substitution2: "'locl' Localized Forms in Cyrillic lookup 8 subtable" uni0438.loclSRB
AlternateSubs2: "'aalt' Access All Alternates lookup 1 subtable" uni0438.loclSRB uni0438.1
EndChar

